000001  _RACORD_GCP_NEW_59-30-00.m  V     C        00:59:30:00 01:00:00:00 00:59:30:00 01:00:00:00
*FROM CLIP NAME:  _RACORD_GCP_NEW_59-30-00.mov
000002  _RACORD_GCP_NEW_59-30-00.m  V     C        00:59:30:00 01:00:00:00 00:59:30:00 01:00:00:00
*FROM CLIP NAME:  _RACORD_GCP_NEW_59-30-00.mov
000003  _RACORD_GCP_NEW_59-30-00.m  V     C        00:59:30:00 01:00:00:00 00:59:30:00 01:00:00:00
*FROM CLIP NAME:  _RACORD_GCP_NEW_59-30-00.mov
000004  _RACORD_GCP_NEW_59-30-00.m  V     C        00:59:30:00 01:00:00:00 00:59:30:00 01:00:00:00
*FROM CLIP NAME:  _RACORD_GCP_NEW_59-30-00.mov
000005  _RACORD_GCP_NEW_59-30-00.m  V     C        00:59:30:00 01:00:00:00 00:59:30:00 01:00:00:00
*FROM CLIP NAME:  _RACORD_GCP_NEW_59-30-00.mov
000006  35-PGM_R-250607_1503.wav    V     C        15:03:55:09 15:04:10:19 01:00:01:09 01:00:16:19
*FROM CLIP NAME:  35-PGM_R-250607_1503.wav
000007  06-LARA-250607_1503.wav     V     C        15:03:55:09 15:04:10:19 01:00:01:09 01:00:16:19
*FROM CLIP NAME:  06-LARA-250607_1503.wav
000008  34-PGM_L-250607_1503.wav    V     C        15:03:55:09 15:04:10:19 01:00:01:09 01:00:16:19
*FROM CLIP NAME:  34-PGM_L-250607_1503.wav
000009  Apollo_SSM_4_11__I-Dare-Yo  V     C        00:00:00:00 00:00:47:10 01:00:15:22 01:01:03:07
*FROM CLIP NAME:  Apollo_SSM_4_11__I-Dare-You__Jason-Garner-Tim-Brown.mp3_L
000010  Apollo_SSM_4_11__I-Dare-Yo  V     C        00:00:00:00 00:00:47:10 01:00:15:22 01:01:03:07
*FROM CLIP NAME:  Apollo_SSM_4_11__I-Dare-You__Jason-Garner-Tim-Brown.mp3_R
000011  35-PGM_R-250607_1503.wav    V     C        15:03:55:09 15:04:00:21 01:00:16:19 01:00:22:06
*FROM CLIP NAME:  35-PGM_R-250607_1503.wav
000012  39-MIX-LARA_L-250607_1503.  V     C        15:03:55:09 15:04:00:21 01:00:16:19 01:00:22:06
*FROM CLIP NAME:  39-MIX-LARA_L-250607_1503.wav
000013  08-HERO-250607_1503.wav     V     C        15:03:55:09 15:04:00:21 01:00:16:19 01:00:22:06
*FROM CLIP NAME:  08-HERO-250607_1503.wav
000014  06-LARA-250607_1503.wav     V     C        15:03:55:09 15:04:00:21 01:00:16:19 01:00:22:06
*FROM CLIP NAME:  06-LARA-250607_1503.wav
000015  34-PGM_L-250607_1503.wav    V     C        15:03:55:09 15:04:00:21 01:00:16:19 01:00:22:06
*FROM CLIP NAME:  34-PGM_L-250607_1503.wav
000016  40-MIX-LARA_R-250607_1503.  V     C        15:03:55:09 15:04:00:21 01:00:16:19 01:00:22:06
*FROM CLIP NAME:  40-MIX-LARA_R-250607_1503.wav
000017  07-ROZA-250607_1503.wav     V     C        15:03:55:09 15:04:00:21 01:00:16:19 01:00:22:06
*FROM CLIP NAME:  07-ROZA-250607_1503.wav
000018  34-PGM_L-250607_1503.wav    V     C        15:03:55:09 15:04:36:22 01:00:22:06 01:01:03:19
*FROM CLIP NAME:  34-PGM_L-250607_1503.wav
000019  35-PGM_R-250607_1503.wav    V     C        15:03:55:09 15:04:36:22 01:00:22:06 01:01:03:19
*FROM CLIP NAME:  35-PGM_R-250607_1503.wav
000020  40-MIX-LARA_R-250607_1503.  V     C        15:03:55:09 15:04:36:22 01:00:22:06 01:01:03:19
*FROM CLIP NAME:  40-MIX-LARA_R-250607_1503.wav
000021  07-ROZA-250607_1503.wav     V     C        15:03:55:09 15:04:36:22 01:00:22:06 01:01:03:19
*FROM CLIP NAME:  07-ROZA-250607_1503.wav
000022  08-HERO-250607_1503.wav     V     C        15:03:55:09 15:04:36:22 01:00:22:06 01:01:03:19
*FROM CLIP NAME:  08-HERO-250607_1503.wav
000023  06-LARA-250607_1503.wav     V     C        15:03:55:09 15:04:36:22 01:00:22:06 01:01:03:19
*FROM CLIP NAME:  06-LARA-250607_1503.wav
000024  39-MIX-LARA_L-250607_1503.  V     C        15:03:55:09 15:04:36:22 01:00:22:06 01:01:03:19
*FROM CLIP NAME:  39-MIX-LARA_L-250607_1503.wav
000025  134935__ztrees1__whoosh.wa  V     C        00:07:31:01 00:07:32:08 01:00:33:07 01:00:34:14
*FROM CLIP NAME:  134935__ztrees1__whoosh.wav_L
000026  134935__ztrees1__whoosh.wa  V     C        00:07:31:01 00:07:32:08 01:00:33:07 01:00:34:14
*FROM CLIP NAME:  134935__ztrees1__whoosh.wav_R
000027  134935__ztrees1__whoosh.wa  V     C        00:07:31:01 00:07:32:08 01:00:52:03 01:00:53:10
*FROM CLIP NAME:  134935__ztrees1__whoosh.wav_R
000028  134935__ztrees1__whoosh.wa  V     C        00:07:31:01 00:07:32:08 01:00:52:03 01:00:53:10
*FROM CLIP NAME:  134935__ztrees1__whoosh.wav_L
000029  35-PGM_R-250607_1503.wav    V     C        15:03:55:09 15:03:58:05 01:01:03:19 01:01:06:15
*FROM CLIP NAME:  35-PGM_R-250607_1503.wav
000030  08-HERO-250607_1503.wav     V     C        15:03:55:09 15:03:58:05 01:01:03:19 01:01:06:15
*FROM CLIP NAME:  08-HERO-250607_1503.wav
000031  39-MIX-LARA_L-250607_1503.  V     C        15:03:55:09 15:03:58:05 01:01:03:19 01:01:06:15
*FROM CLIP NAME:  39-MIX-LARA_L-250607_1503.wav
000032  40-MIX-LARA_R-250607_1503.  V     C        15:03:55:09 15:03:58:05 01:01:03:19 01:01:06:15
*FROM CLIP NAME:  40-MIX-LARA_R-250607_1503.wav
000033  07-ROZA-250607_1503.wav     V     C        15:03:55:09 15:03:58:05 01:01:03:19 01:01:06:15
*FROM CLIP NAME:  07-ROZA-250607_1503.wav
000034  06-LARA-250607_1503.wav     V     C        15:03:55:09 15:03:58:05 01:01:03:19 01:01:06:15
*FROM CLIP NAME:  06-LARA-250607_1503.wav
000035  34-PGM_L-250607_1503.wav    V     C        15:03:55:09 15:03:58:05 01:01:03:19 01:01:06:15
*FROM CLIP NAME:  34-PGM_L-250607_1503.wav
000036  08-HERO-250607_1503.wav     V     C        15:03:55:09 15:03:58:05 01:01:06:15 01:01:09:11
*FROM CLIP NAME:  08-HERO-250607_1503.wav
000037  34-PGM_L-250607_1503.wav    V     C        15:03:55:09 15:03:58:05 01:01:06:15 01:01:09:11
*FROM CLIP NAME:  34-PGM_L-250607_1503.wav
000038  07-ROZA-250607_1503.wav     V     C        15:03:55:09 15:03:58:05 01:01:06:15 01:01:09:11
*FROM CLIP NAME:  07-ROZA-250607_1503.wav
000039  39-MIX-LARA_L-250607_1503.  V     C        15:03:55:09 15:03:58:05 01:01:06:15 01:01:09:11
*FROM CLIP NAME:  39-MIX-LARA_L-250607_1503.wav
000040  35-PGM_R-250607_1503.wav    V     C        15:03:55:09 15:03:58:05 01:01:06:15 01:01:09:11
*FROM CLIP NAME:  35-PGM_R-250607_1503.wav
000041  06-LARA-250607_1503.wav     V     C        15:03:55:09 15:03:58:05 01:01:06:15 01:01:09:11
*FROM CLIP NAME:  06-LARA-250607_1503.wav
000042  40-MIX-LARA_R-250607_1503.  V     C        15:03:55:09 15:03:58:05 01:01:06:15 01:01:09:11
*FROM CLIP NAME:  40-MIX-LARA_R-250607_1503.wav
000043  36-PGM2_L-250607_1503.wav   V     C        15:03:55:09 15:04:00:07 01:01:09:11 01:01:14:09
*FROM CLIP NAME:  36-PGM2_L-250607_1503.wav
000044  08-HERO-250607_1503.wav     V     C        15:03:55:09 15:04:04:10 01:01:14:09 01:01:23:10
*FROM CLIP NAME:  08-HERO-250607_1503.wav
000045  07-ROZA-250607_1503.wav     V     C        15:03:55:09 15:04:04:10 01:01:14:09 01:01:23:10
*FROM CLIP NAME:  07-ROZA-250607_1503.wav
000046  39-MIX-LARA_L-250607_1503.  V     C        15:03:55:09 15:04:04:10 01:01:14:09 01:01:23:10
*FROM CLIP NAME:  39-MIX-LARA_L-250607_1503.wav
000047  35-PGM_R-250607_1503.wav    V     C        15:03:55:09 15:04:04:10 01:01:14:09 01:01:23:10
*FROM CLIP NAME:  35-PGM_R-250607_1503.wav
000048  06-LARA-250607_1503.wav     V     C        15:03:55:09 15:04:04:10 01:01:14:09 01:01:23:10
*FROM CLIP NAME:  06-LARA-250607_1503.wav
000049  40-MIX-LARA_R-250607_1503.  V     C        15:03:55:09 15:04:04:10 01:01:14:09 01:01:23:10
*FROM CLIP NAME:  40-MIX-LARA_R-250607_1503.wav
000050  34-PGM_L-250607_1503.wav    V     C        15:03:55:09 15:04:04:10 01:01:14:09 01:01:23:10
*FROM CLIP NAME:  34-PGM_L-250607_1503.wav
000051  39-MIX-LARA_L-250607_1503.  V     C        15:03:55:09 15:03:58:14 01:01:23:10 01:01:26:15
*FROM CLIP NAME:  39-MIX-LARA_L-250607_1503.wav
000052  35-PGM_R-250607_1503.wav    V     C        15:03:55:09 15:03:58:14 01:01:23:10 01:01:26:15
*FROM CLIP NAME:  35-PGM_R-250607_1503.wav
000053  07-ROZA-250607_1503.wav     V     C        15:03:55:09 15:03:58:14 01:01:23:10 01:01:26:15
*FROM CLIP NAME:  07-ROZA-250607_1503.wav
000054  34-PGM_L-250607_1503.wav    V     C        15:03:55:09 15:03:58:14 01:01:23:10 01:01:26:15
*FROM CLIP NAME:  34-PGM_L-250607_1503.wav
000055  40-MIX-LARA_R-250607_1503.  V     C        15:03:55:09 15:03:58:14 01:01:23:10 01:01:26:15
*FROM CLIP NAME:  40-MIX-LARA_R-250607_1503.wav
000056  08-HERO-250607_1503.wav     V     C        15:03:55:09 15:03:58:14 01:01:23:10 01:01:26:15
*FROM CLIP NAME:  08-HERO-250607_1503.wav
000057  06-LARA-250607_1503.wav     V     C        15:03:55:09 15:03:58:14 01:01:23:10 01:01:26:15
*FROM CLIP NAME:  06-LARA-250607_1503.wav
000058  08-HERO-250607_1503.wav     V     C        15:03:55:09 15:03:57:00 01:01:26:15 01:01:28:06
*FROM CLIP NAME:  08-HERO-250607_1503.wav
000059  36-PGM2_L-250607_1503.wav   V     C        15:03:55:09 15:04:01:20 01:01:28:06 01:01:34:17
*FROM CLIP NAME:  36-PGM2_L-250607_1503.wav
000060  40-MIX-LARA_R-250607_1503.  V     C        15:03:55:09 15:03:58:13 01:01:34:17 01:01:37:21
*FROM CLIP NAME:  40-MIX-LARA_R-250607_1503.wav
000061  08-HERO-250607_1503.wav     V     C        15:03:55:09 15:03:58:13 01:01:34:17 01:01:37:21
*FROM CLIP NAME:  08-HERO-250607_1503.wav
000062  06-LARA-250607_1503.wav     V     C        15:03:55:09 15:03:58:13 01:01:34:17 01:01:37:21
*FROM CLIP NAME:  06-LARA-250607_1503.wav
000063  39-MIX-LARA_L-250607_1503.  V     C        15:03:55:09 15:03:58:13 01:01:34:17 01:01:37:21
*FROM CLIP NAME:  39-MIX-LARA_L-250607_1503.wav
000064  07-ROZA-250607_1503.wav     V     C        15:03:55:09 15:03:58:13 01:01:34:17 01:01:37:21
*FROM CLIP NAME:  07-ROZA-250607_1503.wav
000065  35-PGM_R-250607_1503.wav    V     C        15:03:55:09 15:03:58:13 01:01:34:17 01:01:37:21
*FROM CLIP NAME:  35-PGM_R-250607_1503.wav
000066  34-PGM_L-250607_1503.wav    V     C        15:03:55:09 15:03:58:13 01:01:34:17 01:01:37:21
*FROM CLIP NAME:  34-PGM_L-250607_1503.wav
000067  35-PGM_R-250607_1503.wav    V     C        15:03:55:09 15:04:00:00 01:01:37:21 01:01:42:12
*FROM CLIP NAME:  35-PGM_R-250607_1503.wav
000068  34-PGM_L-250607_1503.wav    V     C        15:03:55:09 15:04:00:00 01:01:37:21 01:01:42:12
*FROM CLIP NAME:  34-PGM_L-250607_1503.wav
000069  08-HERO-250607_1503.wav     V     C        15:03:55:09 15:04:00:00 01:01:37:21 01:01:42:12
*FROM CLIP NAME:  08-HERO-250607_1503.wav
000070  06-LARA-250607_1503.wav     V     C        15:03:55:09 15:04:00:00 01:01:37:21 01:01:42:12
*FROM CLIP NAME:  06-LARA-250607_1503.wav
000071  39-MIX-LARA_L-250607_1503.  V     C        15:03:55:09 15:04:00:00 01:01:37:21 01:01:42:12
*FROM CLIP NAME:  39-MIX-LARA_L-250607_1503.wav
000072  07-ROZA-250607_1503.wav     V     C        15:03:55:09 15:04:00:00 01:01:37:21 01:01:42:12
*FROM CLIP NAME:  07-ROZA-250607_1503.wav
000073  40-MIX-LARA_R-250607_1503.  V     C        15:03:55:09 15:04:00:00 01:01:37:21 01:01:42:12
*FROM CLIP NAME:  40-MIX-LARA_R-250607_1503.wav
000074  07-ROZA-250607_1503.wav     V     C        15:03:55:09 15:03:57:15 01:01:42:12 01:01:44:18
*FROM CLIP NAME:  07-ROZA-250607_1503.wav
000075  08-HERO-250607_1503.wav     V     C        15:03:55:09 15:03:57:15 01:01:42:12 01:01:44:18
*FROM CLIP NAME:  08-HERO-250607_1503.wav
000076  35-PGM_R-250607_1503.wav    V     C        15:03:55:09 15:03:57:15 01:01:42:12 01:01:44:18
*FROM CLIP NAME:  35-PGM_R-250607_1503.wav
000077  39-MIX-LARA_L-250607_1503.  V     C        15:03:55:09 15:03:57:15 01:01:42:12 01:01:44:18
*FROM CLIP NAME:  39-MIX-LARA_L-250607_1503.wav
000078  06-LARA-250607_1503.wav     V     C        15:03:55:09 15:03:57:15 01:01:42:12 01:01:44:18
*FROM CLIP NAME:  06-LARA-250607_1503.wav
000079  40-MIX-LARA_R-250607_1503.  V     C        15:03:55:09 15:03:57:15 01:01:42:12 01:01:44:18
*FROM CLIP NAME:  40-MIX-LARA_R-250607_1503.wav
000080  34-PGM_L-250607_1503.wav    V     C        15:03:55:09 15:03:57:15 01:01:42:12 01:01:44:18
*FROM CLIP NAME:  34-PGM_L-250607_1503.wav
000081  34-PGM_L-250607_1503.wav    V     C        15:03:55:09 15:03:56:17 01:01:44:18 01:01:46:01
*FROM CLIP NAME:  34-PGM_L-250607_1503.wav
000082  35-PGM_R-250607_1503.wav    V     C        15:03:55:09 15:03:56:17 01:01:44:18 01:01:46:01
*FROM CLIP NAME:  35-PGM_R-250607_1503.wav
000083  08-HERO-250607_1503.wav     V     C        15:03:55:09 15:03:56:17 01:01:44:18 01:01:46:01
*FROM CLIP NAME:  08-HERO-250607_1503.wav
000084  06-LARA-250607_1503.wav     V     C        15:03:55:09 15:03:56:17 01:01:44:18 01:01:46:01
*FROM CLIP NAME:  06-LARA-250607_1503.wav
000085  39-MIX-LARA_L-250607_1503.  V     C        15:03:55:09 15:03:56:17 01:01:44:18 01:01:46:01
*FROM CLIP NAME:  39-MIX-LARA_L-250607_1503.wav
000086  07-ROZA-250607_1503.wav     V     C        15:03:55:09 15:03:56:17 01:01:44:18 01:01:46:01
*FROM CLIP NAME:  07-ROZA-250607_1503.wav
000087  40-MIX-LARA_R-250607_1503.  V     C        15:03:55:09 15:03:56:17 01:01:44:18 01:01:46:01
*FROM CLIP NAME:  40-MIX-LARA_R-250607_1503.wav
000088  35-PGM_R-250607_1503.wav    V     C        15:03:55:09 15:03:59:16 01:01:46:01 01:01:50:08
*FROM CLIP NAME:  35-PGM_R-250607_1503.wav
000089  07-ROZA-250607_1503.wav     V     C        15:03:55:09 15:03:59:16 01:01:46:01 01:01:50:08
*FROM CLIP NAME:  07-ROZA-250607_1503.wav
000090  08-HERO-250607_1503.wav     V     C        15:03:55:09 15:03:59:16 01:01:46:01 01:01:50:08
*FROM CLIP NAME:  08-HERO-250607_1503.wav
000091  06-LARA-250607_1503.wav     V     C        15:03:55:09 15:03:59:16 01:01:46:01 01:01:50:08
*FROM CLIP NAME:  06-LARA-250607_1503.wav
000092  40-MIX-LARA_R-250607_1503.  V     C        15:03:55:09 15:03:59:16 01:01:46:01 01:01:50:08
*FROM CLIP NAME:  40-MIX-LARA_R-250607_1503.wav
000093  39-MIX-LARA_L-250607_1503.  V     C        15:03:55:09 15:03:59:16 01:01:46:01 01:01:50:08
*FROM CLIP NAME:  39-MIX-LARA_L-250607_1503.wav
000094  34-PGM_L-250607_1503.wav    V     C        15:03:55:09 15:03:59:16 01:01:46:01 01:01:50:08
*FROM CLIP NAME:  34-PGM_L-250607_1503.wav
000095  34-PGM_L-250607_1503.wav    V     C        15:03:55:09 15:04:04:00 01:01:50:08 01:01:58:24
*FROM CLIP NAME:  34-PGM_L-250607_1503.wav
000096  06-LARA-250607_1503.wav     V     C        15:03:55:09 15:04:04:00 01:01:50:08 01:01:58:24
*FROM CLIP NAME:  06-LARA-250607_1503.wav
000097  40-MIX-LARA_R-250607_1503.  V     C        15:03:55:09 15:04:04:00 01:01:50:08 01:01:58:24
*FROM CLIP NAME:  40-MIX-LARA_R-250607_1503.wav
000098  07-ROZA-250607_1503.wav     V     C        15:03:55:09 15:04:04:00 01:01:50:08 01:01:58:24
*FROM CLIP NAME:  07-ROZA-250607_1503.wav
000099  08-HERO-250607_1503.wav     V     C        15:03:55:09 15:04:04:00 01:01:50:08 01:01:58:24
*FROM CLIP NAME:  08-HERO-250607_1503.wav
000100  35-PGM_R-250607_1503.wav    V     C        15:03:55:09 15:04:04:00 01:01:50:08 01:01:58:24
*FROM CLIP NAME:  35-PGM_R-250607_1503.wav
000101  39-MIX-LARA_L-250607_1503.  V     C        15:03:55:09 15:04:04:00 01:01:50:08 01:01:58:24
*FROM CLIP NAME:  39-MIX-LARA_L-250607_1503.wav
000102  35-PGM_R-250607_1503.wav    V     C        15:03:55:09 15:04:02:01 01:01:58:24 01:02:05:16
*FROM CLIP NAME:  35-PGM_R-250607_1503.wav
000103  39-MIX-LARA_L-250607_1503.  V     C        15:03:55:09 15:04:02:01 01:01:58:24 01:02:05:16
*FROM CLIP NAME:  39-MIX-LARA_L-250607_1503.wav
000104  07-ROZA-250607_1503.wav     V     C        15:03:55:09 15:04:02:01 01:01:58:24 01:02:05:16
*FROM CLIP NAME:  07-ROZA-250607_1503.wav
000105  34-PGM_L-250607_1503.wav    V     C        15:03:55:09 15:04:02:01 01:01:58:24 01:02:05:16
*FROM CLIP NAME:  34-PGM_L-250607_1503.wav
000106  08-HERO-250607_1503.wav     V     C        15:03:55:09 15:04:02:01 01:01:58:24 01:02:05:16
*FROM CLIP NAME:  08-HERO-250607_1503.wav
000107  06-LARA-250607_1503.wav     V     C        15:03:55:09 15:04:02:01 01:01:58:24 01:02:05:16
*FROM CLIP NAME:  06-LARA-250607_1503.wav
000108  40-MIX-LARA_R-250607_1503.  V     C        15:03:55:09 15:04:02:01 01:01:58:24 01:02:05:16
*FROM CLIP NAME:  40-MIX-LARA_R-250607_1503.wav
000109  34-PGM_L-250607_1503.wav    V     C        15:03:55:10 15:04:00:22 01:02:05:16 01:02:11:03
*FROM CLIP NAME:  34-PGM_L-250607_1503.wav
000110  08-HERO-250607_1503.wav     V     C        15:03:55:10 15:04:00:22 01:02:05:16 01:02:11:03
*FROM CLIP NAME:  08-HERO-250607_1503.wav
000111  39-MIX-LARA_L-250607_1503.  V     C        15:03:55:10 15:04:00:22 01:02:05:16 01:02:11:03
*FROM CLIP NAME:  39-MIX-LARA_L-250607_1503.wav
000112  35-PGM_R-250607_1503.wav    V     C        15:03:55:10 15:04:00:22 01:02:05:16 01:02:11:03
*FROM CLIP NAME:  35-PGM_R-250607_1503.wav
000113  06-LARA-250607_1503.wav     V     C        15:03:55:10 15:04:00:22 01:02:05:16 01:02:11:03
*FROM CLIP NAME:  06-LARA-250607_1503.wav
000114  07-ROZA-250607_1503.wav     V     C        15:03:55:10 15:04:00:22 01:02:05:16 01:02:11:03
*FROM CLIP NAME:  07-ROZA-250607_1503.wav
000115  40-MIX-LARA_R-250607_1503.  V     C        15:03:55:10 15:04:00:22 01:02:05:16 01:02:11:03
*FROM CLIP NAME:  40-MIX-LARA_R-250607_1503.wav
000116  36-PGM2_L-250607_1503.wav   V     C        15:03:55:09 15:04:01:22 01:02:11:03 01:02:17:16
*FROM CLIP NAME:  36-PGM2_L-250607_1503.wav
000117  39-MIX-LARA_L-250607_1503.  V     C        15:03:55:09 15:03:59:13 01:02:17:16 01:02:21:20
*FROM CLIP NAME:  39-MIX-LARA_L-250607_1503.wav
000118  06-LARA-250607_1503.wav     V     C        15:03:55:09 15:03:59:13 01:02:17:16 01:02:21:20
*FROM CLIP NAME:  06-LARA-250607_1503.wav
000119  08-HERO-250607_1503.wav     V     C        15:03:55:09 15:03:59:13 01:02:17:16 01:02:21:20
*FROM CLIP NAME:  08-HERO-250607_1503.wav
000120  35-PGM_R-250607_1503.wav    V     C        15:03:55:09 15:03:59:13 01:02:17:16 01:02:21:20
*FROM CLIP NAME:  35-PGM_R-250607_1503.wav
000121  40-MIX-LARA_R-250607_1503.  V     C        15:03:55:09 15:03:59:13 01:02:17:16 01:02:21:20
*FROM CLIP NAME:  40-MIX-LARA_R-250607_1503.wav
000122  07-ROZA-250607_1503.wav     V     C        15:03:55:09 15:03:59:13 01:02:17:16 01:02:21:20
*FROM CLIP NAME:  07-ROZA-250607_1503.wav
000123  34-PGM_L-250607_1503.wav    V     C        15:03:55:09 15:03:59:13 01:02:17:16 01:02:21:20
*FROM CLIP NAME:  34-PGM_L-250607_1503.wav
000124  40-MIX-LARA_R-250607_1503.  V     C        15:03:55:09 15:03:59:04 01:02:21:20 01:02:25:15
*FROM CLIP NAME:  40-MIX-LARA_R-250607_1503.wav
000125  08-HERO-250607_1503.wav     V     C        15:03:55:09 15:03:59:04 01:02:21:20 01:02:25:15
*FROM CLIP NAME:  08-HERO-250607_1503.wav
000126  06-LARA-250607_1503.wav     V     C        15:03:55:09 15:03:59:04 01:02:21:20 01:02:25:15
*FROM CLIP NAME:  06-LARA-250607_1503.wav
000127  35-PGM_R-250607_1503.wav    V     C        15:03:55:09 15:03:59:04 01:02:21:20 01:02:25:15
*FROM CLIP NAME:  35-PGM_R-250607_1503.wav
000128  39-MIX-LARA_L-250607_1503.  V     C        15:03:55:09 15:03:59:04 01:02:21:20 01:02:25:15
*FROM CLIP NAME:  39-MIX-LARA_L-250607_1503.wav
000129  34-PGM_L-250607_1503.wav    V     C        15:03:55:09 15:03:59:04 01:02:21:20 01:02:25:15
*FROM CLIP NAME:  34-PGM_L-250607_1503.wav
000130  07-ROZA-250607_1503.wav     V     C        15:03:55:09 15:03:59:04 01:02:21:20 01:02:25:15
*FROM CLIP NAME:  07-ROZA-250607_1503.wav
000131  06-LARA-250607_1503.wav     V     C        15:03:55:09 15:04:13:11 01:02:25:15 01:02:43:17
*FROM CLIP NAME:  06-LARA-250607_1503.wav
000132  35-PGM_R-250607_1503.wav    V     C        15:03:55:09 15:04:13:11 01:02:25:15 01:02:43:17
*FROM CLIP NAME:  35-PGM_R-250607_1503.wav
000133  07-ROZA-250607_1503.wav     V     C        15:03:55:09 15:04:13:11 01:02:25:15 01:02:43:17
*FROM CLIP NAME:  07-ROZA-250607_1503.wav
000134  40-MIX-LARA_R-250607_1503.  V     C        15:03:55:09 15:04:13:11 01:02:25:15 01:02:43:17
*FROM CLIP NAME:  40-MIX-LARA_R-250607_1503.wav
000135  39-MIX-LARA_L-250607_1503.  V     C        15:03:55:09 15:04:13:11 01:02:25:15 01:02:43:17
*FROM CLIP NAME:  39-MIX-LARA_L-250607_1503.wav
000136  34-PGM_L-250607_1503.wav    V     C        15:03:55:09 15:04:13:11 01:02:25:15 01:02:43:17
*FROM CLIP NAME:  34-PGM_L-250607_1503.wav
000137  08-HERO-250607_1503.wav     V     C        15:03:55:09 15:04:13:11 01:02:25:15 01:02:43:17
*FROM CLIP NAME:  08-HERO-250607_1503.wav
000138  07-ROZA-250607_1503.wav     V     C        15:03:55:09 15:04:12:05 01:02:43:17 01:03:00:13
*FROM CLIP NAME:  07-ROZA-250607_1503.wav
000139  35-PGM_R-250607_1503.wav    V     C        15:03:55:09 15:04:12:05 01:02:43:17 01:03:00:13
*FROM CLIP NAME:  35-PGM_R-250607_1503.wav
000140  40-MIX-LARA_R-250607_1503.  V     C        15:03:55:09 15:04:12:05 01:02:43:17 01:03:00:13
*FROM CLIP NAME:  40-MIX-LARA_R-250607_1503.wav
000141  34-PGM_L-250607_1503.wav    V     C        15:03:55:09 15:04:12:05 01:02:43:17 01:03:00:13
*FROM CLIP NAME:  34-PGM_L-250607_1503.wav
000142  06-LARA-250607_1503.wav     V     C        15:03:55:09 15:04:12:05 01:02:43:17 01:03:00:13
*FROM CLIP NAME:  06-LARA-250607_1503.wav
000143  08-HERO-250607_1503.wav     V     C        15:03:55:09 15:04:12:05 01:02:43:17 01:03:00:13
*FROM CLIP NAME:  08-HERO-250607_1503.wav
000144  39-MIX-LARA_L-250607_1503.  V     C        15:03:55:09 15:04:12:05 01:02:43:17 01:03:00:13
*FROM CLIP NAME:  39-MIX-LARA_L-250607_1503.wav
000145  36-PGM2_L-250607_1503.wav   V     C        15:03:55:09 15:04:02:14 01:03:00:13 01:03:07:18
*FROM CLIP NAME:  36-PGM2_L-250607_1503.wav
000146  06-LARA-250607_1503.wav     V     C        15:03:55:09 15:03:58:05 01:03:07:18 01:03:10:14
*FROM CLIP NAME:  06-LARA-250607_1503.wav
000147  07-ROZA-250607_1503.wav     V     C        15:03:55:09 15:03:59:16 01:03:10:14 01:03:14:21
*FROM CLIP NAME:  07-ROZA-250607_1503.wav
000148  34-PGM_L-250607_1503.wav    V     C        15:03:55:09 15:03:59:16 01:03:10:14 01:03:14:21
*FROM CLIP NAME:  34-PGM_L-250607_1503.wav
000149  35-PGM_R-250607_1503.wav    V     C        15:03:55:09 15:03:59:16 01:03:10:14 01:03:14:21
*FROM CLIP NAME:  35-PGM_R-250607_1503.wav
000150  08-HERO-250607_1503.wav     V     C        15:03:55:09 15:03:59:16 01:03:10:14 01:03:14:21
*FROM CLIP NAME:  08-HERO-250607_1503.wav
000151  39-MIX-LARA_L-250607_1503.  V     C        15:03:55:09 15:03:59:16 01:03:10:14 01:03:14:21
*FROM CLIP NAME:  39-MIX-LARA_L-250607_1503.wav
000152  06-LARA-250607_1503.wav     V     C        15:03:55:09 15:03:59:16 01:03:10:14 01:03:14:21
*FROM CLIP NAME:  06-LARA-250607_1503.wav
000153  40-MIX-LARA_R-250607_1503.  V     C        15:03:55:09 15:03:59:16 01:03:10:14 01:03:14:21
*FROM CLIP NAME:  40-MIX-LARA_R-250607_1503.wav
000154  40-MIX-LARA_R-250607_1503.  V     C        15:03:55:09 15:03:56:24 01:03:14:21 01:03:16:11
*FROM CLIP NAME:  40-MIX-LARA_R-250607_1503.wav
000155  35-PGM_R-250607_1503.wav    V     C        15:03:55:09 15:03:56:24 01:03:14:21 01:03:16:11
*FROM CLIP NAME:  35-PGM_R-250607_1503.wav
000156  34-PGM_L-250607_1503.wav    V     C        15:03:55:09 15:03:56:24 01:03:14:21 01:03:16:11
*FROM CLIP NAME:  34-PGM_L-250607_1503.wav
000157  07-ROZA-250607_1503.wav     V     C        15:03:55:09 15:03:56:24 01:03:14:21 01:03:16:11
*FROM CLIP NAME:  07-ROZA-250607_1503.wav
000158  39-MIX-LARA_L-250607_1503.  V     C        15:03:55:09 15:03:56:24 01:03:14:21 01:03:16:11
*FROM CLIP NAME:  39-MIX-LARA_L-250607_1503.wav
000159  08-HERO-250607_1503.wav     V     C        15:03:55:09 15:03:56:24 01:03:14:21 01:03:16:11
*FROM CLIP NAME:  08-HERO-250607_1503.wav
000160  06-LARA-250607_1503.wav     V     C        15:03:55:09 15:03:56:24 01:03:14:21 01:03:16:11
*FROM CLIP NAME:  06-LARA-250607_1503.wav
000161  35-PGM_R-250607_1503.wav    V     C        15:03:55:10 15:03:57:21 01:03:16:11 01:03:18:22
*FROM CLIP NAME:  35-PGM_R-250607_1503.wav
000162  39-MIX-LARA_L-250607_1503.  V     C        15:03:55:10 15:03:57:21 01:03:16:11 01:03:18:22
*FROM CLIP NAME:  39-MIX-LARA_L-250607_1503.wav
000163  08-HERO-250607_1503.wav     V     C        15:03:55:10 15:03:57:21 01:03:16:11 01:03:18:22
*FROM CLIP NAME:  08-HERO-250607_1503.wav
000164  34-PGM_L-250607_1503.wav    V     C        15:03:55:10 15:03:57:21 01:03:16:11 01:03:18:22
*FROM CLIP NAME:  34-PGM_L-250607_1503.wav
000165  07-ROZA-250607_1503.wav     V     C        15:03:55:10 15:03:57:21 01:03:16:11 01:03:18:22
*FROM CLIP NAME:  07-ROZA-250607_1503.wav
000166  40-MIX-LARA_R-250607_1503.  V     C        15:03:55:10 15:03:57:21 01:03:16:11 01:03:18:22
*FROM CLIP NAME:  40-MIX-LARA_R-250607_1503.wav
000167  06-LARA-250607_1503.wav     V     C        15:03:55:10 15:03:57:21 01:03:16:11 01:03:18:22
*FROM CLIP NAME:  06-LARA-250607_1503.wav
000168  34-PGM_L-250607_1503.wav    V     C        15:03:55:09 15:03:58:15 01:03:18:22 01:03:22:03
*FROM CLIP NAME:  34-PGM_L-250607_1503.wav
000169  08-HERO-250607_1503.wav     V     C        15:03:55:09 15:03:58:15 01:03:18:22 01:03:22:03
*FROM CLIP NAME:  08-HERO-250607_1503.wav
000170  06-LARA-250607_1503.wav     V     C        15:03:55:09 15:03:58:15 01:03:18:22 01:03:22:03
*FROM CLIP NAME:  06-LARA-250607_1503.wav
000171  40-MIX-LARA_R-250607_1503.  V     C        15:03:55:09 15:03:58:15 01:03:18:22 01:03:22:03
*FROM CLIP NAME:  40-MIX-LARA_R-250607_1503.wav
000172  07-ROZA-250607_1503.wav     V     C        15:03:55:09 15:03:58:15 01:03:18:22 01:03:22:03
*FROM CLIP NAME:  07-ROZA-250607_1503.wav
000173  39-MIX-LARA_L-250607_1503.  V     C        15:03:55:09 15:03:58:15 01:03:18:22 01:03:22:03
*FROM CLIP NAME:  39-MIX-LARA_L-250607_1503.wav
000174  35-PGM_R-250607_1503.wav    V     C        15:03:55:09 15:03:58:15 01:03:18:22 01:03:22:03
*FROM CLIP NAME:  35-PGM_R-250607_1503.wav
000175  34-PGM_L-250607_1503.wav    V     C        15:03:55:09 15:04:01:21 01:03:22:03 01:03:28:15
*FROM CLIP NAME:  34-PGM_L-250607_1503.wav
000176  06-LARA-250607_1503.wav     V     C        15:03:55:09 15:04:01:21 01:03:22:03 01:03:28:15
*FROM CLIP NAME:  06-LARA-250607_1503.wav
000177  39-MIX-LARA_L-250607_1503.  V     C        15:03:55:09 15:04:01:21 01:03:22:03 01:03:28:15
*FROM CLIP NAME:  39-MIX-LARA_L-250607_1503.wav
000178  07-ROZA-250607_1503.wav     V     C        15:03:55:09 15:04:01:21 01:03:22:03 01:03:28:15
*FROM CLIP NAME:  07-ROZA-250607_1503.wav
000179  40-MIX-LARA_R-250607_1503.  V     C        15:03:55:09 15:04:01:21 01:03:22:03 01:03:28:15
*FROM CLIP NAME:  40-MIX-LARA_R-250607_1503.wav
000180  08-HERO-250607_1503.wav     V     C        15:03:55:09 15:04:01:21 01:03:22:03 01:03:28:15
*FROM CLIP NAME:  08-HERO-250607_1503.wav
000181  35-PGM_R-250607_1503.wav    V     C        15:03:55:09 15:04:01:21 01:03:22:03 01:03:28:15
*FROM CLIP NAME:  35-PGM_R-250607_1503.wav
000182  08-HERO-250607_1503.wav     V     C        15:03:55:09 15:04:06:05 01:03:28:15 01:03:39:11
*FROM CLIP NAME:  08-HERO-250607_1503.wav
000183  06-LARA-250607_1503.wav     V     C        15:03:55:09 15:04:06:05 01:03:28:15 01:03:39:11
*FROM CLIP NAME:  06-LARA-250607_1503.wav
000184  40-MIX-LARA_R-250607_1503.  V     C        15:03:55:09 15:04:06:05 01:03:28:15 01:03:39:11
*FROM CLIP NAME:  40-MIX-LARA_R-250607_1503.wav
000185  34-PGM_L-250607_1503.wav    V     C        15:03:55:09 15:04:06:05 01:03:28:15 01:03:39:11
*FROM CLIP NAME:  34-PGM_L-250607_1503.wav
000186  39-MIX-LARA_L-250607_1503.  V     C        15:03:55:09 15:04:06:05 01:03:28:15 01:03:39:11
*FROM CLIP NAME:  39-MIX-LARA_L-250607_1503.wav
000187  07-ROZA-250607_1503.wav     V     C        15:03:55:09 15:04:06:05 01:03:28:15 01:03:39:11
*FROM CLIP NAME:  07-ROZA-250607_1503.wav
000188  35-PGM_R-250607_1503.wav    V     C        15:03:55:09 15:04:06:05 01:03:28:15 01:03:39:11
*FROM CLIP NAME:  35-PGM_R-250607_1503.wav
000189  40-MIX-LARA_R-250607_1503.  V     C        15:03:55:09 15:04:00:24 01:03:39:11 01:03:45:01
*FROM CLIP NAME:  40-MIX-LARA_R-250607_1503.wav
000190  08-HERO-250607_1503.wav     V     C        15:03:55:09 15:04:00:24 01:03:39:11 01:03:45:01
*FROM CLIP NAME:  08-HERO-250607_1503.wav
000191  34-PGM_L-250607_1503.wav    V     C        15:03:55:09 15:04:00:24 01:03:39:11 01:03:45:01
*FROM CLIP NAME:  34-PGM_L-250607_1503.wav
000192  35-PGM_R-250607_1503.wav    V     C        15:03:55:09 15:04:00:24 01:03:39:11 01:03:45:01
*FROM CLIP NAME:  35-PGM_R-250607_1503.wav
000193  39-MIX-LARA_L-250607_1503.  V     C        15:03:55:09 15:04:00:24 01:03:39:11 01:03:45:01
*FROM CLIP NAME:  39-MIX-LARA_L-250607_1503.wav
000194  07-ROZA-250607_1503.wav     V     C        15:03:55:09 15:04:00:24 01:03:39:11 01:03:45:01
*FROM CLIP NAME:  07-ROZA-250607_1503.wav
000195  06-LARA-250607_1503.wav     V     C        15:03:55:09 15:04:00:24 01:03:39:11 01:03:45:01
*FROM CLIP NAME:  06-LARA-250607_1503.wav
000196  08-HERO-250607_1503.wav     V     C        15:03:55:09 15:04:12:02 01:03:45:01 01:04:01:19
*FROM CLIP NAME:  08-HERO-250607_1503.wav
000197  39-MIX-LARA_L-250607_1503.  V     C        15:03:55:09 15:04:12:02 01:03:45:01 01:04:01:19
*FROM CLIP NAME:  39-MIX-LARA_L-250607_1503.wav
000198  34-PGM_L-250607_1503.wav    V     C        15:03:55:09 15:04:12:02 01:03:45:01 01:04:01:19
*FROM CLIP NAME:  34-PGM_L-250607_1503.wav
000199  06-LARA-250607_1503.wav     V     C        15:03:55:09 15:04:12:02 01:03:45:01 01:04:01:19
*FROM CLIP NAME:  06-LARA-250607_1503.wav
000200  40-MIX-LARA_R-250607_1503.  V     C        15:03:55:09 15:04:12:02 01:03:45:01 01:04:01:19
*FROM CLIP NAME:  40-MIX-LARA_R-250607_1503.wav
000201  35-PGM_R-250607_1503.wav    V     C        15:03:55:09 15:04:12:02 01:03:45:01 01:04:01:19
*FROM CLIP NAME:  35-PGM_R-250607_1503.wav
000202  07-ROZA-250607_1503.wav     V     C        15:03:55:09 15:04:12:02 01:03:45:01 01:04:01:19
*FROM CLIP NAME:  07-ROZA-250607_1503.wav
000203  35-PGM_R-250607_1503.wav    V     C        15:03:55:09 15:03:58:10 01:04:01:19 01:04:04:20
*FROM CLIP NAME:  35-PGM_R-250607_1503.wav
000204  34-PGM_L-250607_1503.wav    V     C        15:03:55:09 15:03:58:10 01:04:01:19 01:04:04:20
*FROM CLIP NAME:  34-PGM_L-250607_1503.wav
000205  39-MIX-LARA_L-250607_1503.  V     C        15:03:55:09 15:03:58:10 01:04:01:19 01:04:04:20
*FROM CLIP NAME:  39-MIX-LARA_L-250607_1503.wav
000206  08-HERO-250607_1503.wav     V     C        15:03:55:09 15:03:58:10 01:04:01:19 01:04:04:20
*FROM CLIP NAME:  08-HERO-250607_1503.wav
000207  40-MIX-LARA_R-250607_1503.  V     C        15:03:55:09 15:03:58:10 01:04:01:19 01:04:04:20
*FROM CLIP NAME:  40-MIX-LARA_R-250607_1503.wav
000208  06-LARA-250607_1503.wav     V     C        15:03:55:09 15:03:58:10 01:04:01:19 01:04:04:20
*FROM CLIP NAME:  06-LARA-250607_1503.wav
000209  07-ROZA-250607_1503.wav     V     C        15:03:55:09 15:03:58:10 01:04:01:19 01:04:04:20
*FROM CLIP NAME:  07-ROZA-250607_1503.wav
000210  36-PGM2_L-250607_1503.wav   V     C        15:03:55:09 15:04:05:15 01:04:04:20 01:04:15:01
*FROM CLIP NAME:  36-PGM2_L-250607_1503.wav
000211  06-LARA-250607_1503.wav     V     C        15:03:55:09 15:04:01:08 01:04:15:01 01:04:21:00
*FROM CLIP NAME:  06-LARA-250607_1503.wav
000212  40-MIX-LARA_R-250607_1503.  V     C        15:03:55:09 15:04:01:08 01:04:15:01 01:04:21:00
*FROM CLIP NAME:  40-MIX-LARA_R-250607_1503.wav
000213  39-MIX-LARA_L-250607_1503.  V     C        15:03:55:09 15:04:01:08 01:04:15:01 01:04:21:00
*FROM CLIP NAME:  39-MIX-LARA_L-250607_1503.wav
000214  08-HERO-250607_1503.wav     V     C        15:03:55:09 15:04:01:08 01:04:15:01 01:04:21:00
*FROM CLIP NAME:  08-HERO-250607_1503.wav
000215  35-PGM_R-250607_1503.wav    V     C        15:03:55:09 15:04:01:08 01:04:15:01 01:04:21:00
*FROM CLIP NAME:  35-PGM_R-250607_1503.wav
000216  34-PGM_L-250607_1503.wav    V     C        15:03:55:09 15:04:01:08 01:04:15:01 01:04:21:00
*FROM CLIP NAME:  34-PGM_L-250607_1503.wav
000217  07-ROZA-250607_1503.wav     V     C        15:03:55:09 15:04:01:08 01:04:15:01 01:04:21:00
*FROM CLIP NAME:  07-ROZA-250607_1503.wav
000218  39-MIX-LARA_L-250607_1503.  V     C        15:03:55:09 15:03:56:06 01:04:21:00 01:04:21:22
*FROM CLIP NAME:  39-MIX-LARA_L-250607_1503.wav
000219  40-MIX-LARA_R-250607_1503.  V     C        15:03:55:09 15:03:56:06 01:04:21:00 01:04:21:22
*FROM CLIP NAME:  40-MIX-LARA_R-250607_1503.wav
000220  06-LARA-250607_1503.wav     V     C        15:03:55:09 15:03:56:06 01:04:21:00 01:04:21:22
*FROM CLIP NAME:  06-LARA-250607_1503.wav
000221  08-HERO-250607_1503.wav     V     C        15:03:55:09 15:03:56:06 01:04:21:00 01:04:21:22
*FROM CLIP NAME:  08-HERO-250607_1503.wav
000222  34-PGM_L-250607_1503.wav    V     C        15:03:55:09 15:03:56:06 01:04:21:00 01:04:21:22
*FROM CLIP NAME:  34-PGM_L-250607_1503.wav
000223  35-PGM_R-250607_1503.wav    V     C        15:03:55:09 15:03:56:06 01:04:21:00 01:04:21:22
*FROM CLIP NAME:  35-PGM_R-250607_1503.wav
000224  07-ROZA-250607_1503.wav     V     C        15:03:55:09 15:03:56:06 01:04:21:00 01:04:21:22
*FROM CLIP NAME:  07-ROZA-250607_1503.wav
000225  40-MIX-LARA_R-250607_1503.  V     C        15:03:55:09 15:04:07:20 01:04:21:22 01:04:34:08
*FROM CLIP NAME:  40-MIX-LARA_R-250607_1503.wav
000226  35-PGM_R-250607_1503.wav    V     C        15:03:55:09 15:04:07:20 01:04:21:22 01:04:34:08
*FROM CLIP NAME:  35-PGM_R-250607_1503.wav
000227  08-HERO-250607_1503.wav     V     C        15:03:55:09 15:04:07:20 01:04:21:22 01:04:34:08
*FROM CLIP NAME:  08-HERO-250607_1503.wav
000228  34-PGM_L-250607_1503.wav    V     C        15:03:55:09 15:04:07:20 01:04:21:22 01:04:34:08
*FROM CLIP NAME:  34-PGM_L-250607_1503.wav
000229  06-LARA-250607_1503.wav     V     C        15:03:55:09 15:04:07:20 01:04:21:22 01:04:34:08
*FROM CLIP NAME:  06-LARA-250607_1503.wav
000230  07-ROZA-250607_1503.wav     V     C        15:03:55:09 15:04:07:20 01:04:21:22 01:04:34:08
*FROM CLIP NAME:  07-ROZA-250607_1503.wav
000231  39-MIX-LARA_L-250607_1503.  V     C        15:03:55:09 15:04:07:20 01:04:21:22 01:04:34:08
*FROM CLIP NAME:  39-MIX-LARA_L-250607_1503.wav
000232  08-HERO-250607_1503.wav     V     C        15:03:55:09 15:03:58:13 01:04:34:08 01:04:37:12
*FROM CLIP NAME:  08-HERO-250607_1503.wav
000233  39-MIX-LARA_L-250607_1503.  V     C        15:03:55:09 15:04:15:14 01:04:34:08 01:04:54:13
*FROM CLIP NAME:  39-MIX-LARA_L-250607_1503.wav
000234  40-MIX-LARA_R-250607_1503.  V     C        15:03:55:09 15:04:15:14 01:04:34:08 01:04:54:13
*FROM CLIP NAME:  40-MIX-LARA_R-250607_1503.wav
000235  06-LARA-250607_1503.wav     V     C        15:03:55:09 15:04:12:10 01:04:37:12 01:04:54:13
*FROM CLIP NAME:  06-LARA-250607_1503.wav
000236  34-PGM_L-250607_1503.wav    V     C        15:03:55:09 15:04:12:10 01:04:37:12 01:04:54:13
*FROM CLIP NAME:  34-PGM_L-250607_1503.wav
000237  35-PGM_R-250607_1503.wav    V     C        15:03:55:09 15:04:12:10 01:04:37:12 01:04:54:13
*FROM CLIP NAME:  35-PGM_R-250607_1503.wav
000238  07-ROZA-250607_1503.wav     V     C        15:03:55:09 15:04:12:10 01:04:37:12 01:04:54:13
*FROM CLIP NAME:  07-ROZA-250607_1503.wav
000239  08-HERO-250607_1503.wav     V     C        15:03:55:09 15:04:12:10 01:04:37:12 01:04:54:13
*FROM CLIP NAME:  08-HERO-250607_1503.wav
000240  06-LARA-250607_1503.wav     V     C        15:03:55:09 15:04:01:09 01:04:54:13 01:05:00:13
*FROM CLIP NAME:  06-LARA-250607_1503.wav
000241  39-MIX-LARA_L-250607_1503.  V     C        15:03:55:09 15:04:01:09 01:04:54:13 01:05:00:13
*FROM CLIP NAME:  39-MIX-LARA_L-250607_1503.wav
000242  07-ROZA-250607_1503.wav     V     C        15:03:55:09 15:04:01:09 01:04:54:13 01:05:00:13
*FROM CLIP NAME:  07-ROZA-250607_1503.wav
000243  40-MIX-LARA_R-250607_1503.  V     C        15:03:55:09 15:04:01:09 01:04:54:13 01:05:00:13
*FROM CLIP NAME:  40-MIX-LARA_R-250607_1503.wav
000244  35-PGM_R-250607_1503.wav    V     C        15:03:55:09 15:04:01:09 01:04:54:13 01:05:00:13
*FROM CLIP NAME:  35-PGM_R-250607_1503.wav
000245  08-HERO-250607_1503.wav     V     C        15:03:55:09 15:04:01:09 01:04:54:13 01:05:00:13
*FROM CLIP NAME:  08-HERO-250607_1503.wav
000246  34-PGM_L-250607_1503.wav    V     C        15:03:55:09 15:04:01:09 01:04:54:13 01:05:00:13
*FROM CLIP NAME:  34-PGM_L-250607_1503.wav
000247  39-MIX-LARA_L-250607_1503.  V     C        15:03:55:09 15:03:58:12 01:05:00:13 01:05:03:16
*FROM CLIP NAME:  39-MIX-LARA_L-250607_1503.wav
000248  06-LARA-250607_1503.wav     V     C        15:03:55:09 15:03:58:12 01:05:00:13 01:05:03:16
*FROM CLIP NAME:  06-LARA-250607_1503.wav
000249  08-HERO-250607_1503.wav     V     C        15:03:55:09 15:03:58:12 01:05:00:13 01:05:03:16
*FROM CLIP NAME:  08-HERO-250607_1503.wav
000250  07-ROZA-250607_1503.wav     V     C        15:03:55:09 15:03:58:12 01:05:00:13 01:05:03:16
*FROM CLIP NAME:  07-ROZA-250607_1503.wav
000251  34-PGM_L-250607_1503.wav    V     C        15:03:55:09 15:03:58:12 01:05:00:13 01:05:03:16
*FROM CLIP NAME:  34-PGM_L-250607_1503.wav
000252  35-PGM_R-250607_1503.wav    V     C        15:03:55:09 15:03:58:12 01:05:00:13 01:05:03:16
*FROM CLIP NAME:  35-PGM_R-250607_1503.wav
000253  40-MIX-LARA_R-250607_1503.  V     C        15:03:55:09 15:03:58:12 01:05:00:13 01:05:03:16
*FROM CLIP NAME:  40-MIX-LARA_R-250607_1503.wav
000254  39-MIX-LARA_L-250607_1503.  V     C        15:03:55:09 15:03:56:19 01:05:03:16 01:05:05:01
*FROM CLIP NAME:  39-MIX-LARA_L-250607_1503.wav
000255  35-PGM_R-250607_1503.wav    V     C        15:03:55:09 15:03:56:19 01:05:03:16 01:05:05:01
*FROM CLIP NAME:  35-PGM_R-250607_1503.wav
000256  08-HERO-250607_1503.wav     V     C        15:03:55:09 15:03:56:19 01:05:03:16 01:05:05:01
*FROM CLIP NAME:  08-HERO-250607_1503.wav
000257  07-ROZA-250607_1503.wav     V     C        15:03:55:09 15:03:56:19 01:05:03:16 01:05:05:01
*FROM CLIP NAME:  07-ROZA-250607_1503.wav
000258  40-MIX-LARA_R-250607_1503.  V     C        15:03:55:09 15:03:56:19 01:05:03:16 01:05:05:01
*FROM CLIP NAME:  40-MIX-LARA_R-250607_1503.wav
000259  34-PGM_L-250607_1503.wav    V     C        15:03:55:09 15:03:56:19 01:05:03:16 01:05:05:01
*FROM CLIP NAME:  34-PGM_L-250607_1503.wav
000260  06-LARA-250607_1503.wav     V     C        15:03:55:09 15:03:56:19 01:05:03:16 01:05:05:01
*FROM CLIP NAME:  06-LARA-250607_1503.wav
000261  08-HERO-250607_1503.wav     V     C        15:03:55:09 15:03:59:05 01:05:05:01 01:05:08:22
*FROM CLIP NAME:  08-HERO-250607_1503.wav
000262  07-ROZA-250607_1503.wav     V     C        15:03:55:09 15:03:59:05 01:05:05:01 01:05:08:22
*FROM CLIP NAME:  07-ROZA-250607_1503.wav
000263  34-PGM_L-250607_1503.wav    V     C        15:03:55:09 15:03:59:05 01:05:05:01 01:05:08:22
*FROM CLIP NAME:  34-PGM_L-250607_1503.wav
000264  40-MIX-LARA_R-250607_1503.  V     C        15:03:55:09 15:03:59:05 01:05:05:01 01:05:08:22
*FROM CLIP NAME:  40-MIX-LARA_R-250607_1503.wav
000265  06-LARA-250607_1503.wav     V     C        15:03:55:09 15:03:59:05 01:05:05:01 01:05:08:22
*FROM CLIP NAME:  06-LARA-250607_1503.wav
000266  39-MIX-LARA_L-250607_1503.  V     C        15:03:55:09 15:03:59:05 01:05:05:01 01:05:08:22
*FROM CLIP NAME:  39-MIX-LARA_L-250607_1503.wav
000267  35-PGM_R-250607_1503.wav    V     C        15:03:55:09 15:03:59:05 01:05:05:01 01:05:08:22
*FROM CLIP NAME:  35-PGM_R-250607_1503.wav
000268  08-HERO-250607_1503.wav     V     C        15:03:55:09 15:03:56:06 01:05:08:22 01:05:09:19
*FROM CLIP NAME:  08-HERO-250607_1503.wav
000269  08-HERO-250607_1503.wav     V     C        15:03:55:09 15:04:03:05 01:05:09:19 01:05:17:15
*FROM CLIP NAME:  08-HERO-250607_1503.wav
000270  34-PGM_L-250607_1503.wav    V     C        15:03:55:09 15:04:03:05 01:05:09:19 01:05:17:15
*FROM CLIP NAME:  34-PGM_L-250607_1503.wav
000271  40-MIX-LARA_R-250607_1503.  V     C        15:03:55:09 15:04:03:05 01:05:09:19 01:05:17:15
*FROM CLIP NAME:  40-MIX-LARA_R-250607_1503.wav
000272  35-PGM_R-250607_1503.wav    V     C        15:03:55:09 15:04:03:05 01:05:09:19 01:05:17:15
*FROM CLIP NAME:  35-PGM_R-250607_1503.wav
000273  06-LARA-250607_1503.wav     V     C        15:03:55:09 15:04:03:05 01:05:09:19 01:05:17:15
*FROM CLIP NAME:  06-LARA-250607_1503.wav
000274  39-MIX-LARA_L-250607_1503.  V     C        15:03:55:09 15:04:03:05 01:05:09:19 01:05:17:15
*FROM CLIP NAME:  39-MIX-LARA_L-250607_1503.wav
000275  07-ROZA-250607_1503.wav     V     C        15:03:55:09 15:04:03:05 01:05:09:19 01:05:17:15
*FROM CLIP NAME:  07-ROZA-250607_1503.wav
000276  36-PGM2_L-250607_1503.wav   V     C        15:03:55:09 15:04:05:22 01:05:17:15 01:05:28:03
*FROM CLIP NAME:  36-PGM2_L-250607_1503.wav
000277  08-HERO-250607_1503.wav     V     C        15:03:55:09 15:03:58:12 01:05:28:03 01:05:31:06
*FROM CLIP NAME:  08-HERO-250607_1503.wav
000278  07-ROZA-250607_1503.wav     V     C        15:03:55:09 15:03:58:12 01:05:28:03 01:05:31:06
*FROM CLIP NAME:  07-ROZA-250607_1503.wav
000279  39-MIX-LARA_L-250607_1503.  V     C        15:03:55:09 15:03:58:12 01:05:28:03 01:05:31:06
*FROM CLIP NAME:  39-MIX-LARA_L-250607_1503.wav
000280  40-MIX-LARA_R-250607_1503.  V     C        15:03:55:09 15:03:58:12 01:05:28:03 01:05:31:06
*FROM CLIP NAME:  40-MIX-LARA_R-250607_1503.wav
000281  35-PGM_R-250607_1503.wav    V     C        15:03:55:09 15:03:58:12 01:05:28:03 01:05:31:06
*FROM CLIP NAME:  35-PGM_R-250607_1503.wav
000282  06-LARA-250607_1503.wav     V     C        15:03:55:09 15:03:58:12 01:05:28:03 01:05:31:06
*FROM CLIP NAME:  06-LARA-250607_1503.wav
000283  34-PGM_L-250607_1503.wav    V     C        15:03:55:09 15:03:58:12 01:05:28:03 01:05:31:06
*FROM CLIP NAME:  34-PGM_L-250607_1503.wav
000284  34-PGM_L-250607_1503.wav    V     C        15:03:55:09 15:03:56:18 01:05:31:06 01:05:32:15
*FROM CLIP NAME:  34-PGM_L-250607_1503.wav
000285  08-HERO-250607_1503.wav     V     C        15:03:55:09 15:03:56:18 01:05:31:06 01:05:32:15
*FROM CLIP NAME:  08-HERO-250607_1503.wav
000286  40-MIX-LARA_R-250607_1503.  V     C        15:03:55:09 15:03:56:18 01:05:31:06 01:05:32:15
*FROM CLIP NAME:  40-MIX-LARA_R-250607_1503.wav
000287  07-ROZA-250607_1503.wav     V     C        15:03:55:09 15:03:56:18 01:05:31:06 01:05:32:15
*FROM CLIP NAME:  07-ROZA-250607_1503.wav
000288  06-LARA-250607_1503.wav     V     C        15:03:55:09 15:03:56:18 01:05:31:06 01:05:32:15
*FROM CLIP NAME:  06-LARA-250607_1503.wav
000289  39-MIX-LARA_L-250607_1503.  V     C        15:03:55:09 15:03:56:18 01:05:31:06 01:05:32:15
*FROM CLIP NAME:  39-MIX-LARA_L-250607_1503.wav
000290  35-PGM_R-250607_1503.wav    V     C        15:03:55:09 15:03:56:18 01:05:31:06 01:05:32:15
*FROM CLIP NAME:  35-PGM_R-250607_1503.wav
000291  06-LARA-250607_1503.wav     V     C        15:03:55:09 15:04:07:12 01:05:32:15 01:05:44:18
*FROM CLIP NAME:  06-LARA-250607_1503.wav
000292  40-MIX-LARA_R-250607_1503.  V     C        15:03:55:09 15:04:07:12 01:05:32:15 01:05:44:18
*FROM CLIP NAME:  40-MIX-LARA_R-250607_1503.wav
000293  35-PGM_R-250607_1503.wav    V     C        15:03:55:09 15:04:07:12 01:05:32:15 01:05:44:18
*FROM CLIP NAME:  35-PGM_R-250607_1503.wav
000294  08-HERO-250607_1503.wav     V     C        15:03:55:09 15:04:07:12 01:05:32:15 01:05:44:18
*FROM CLIP NAME:  08-HERO-250607_1503.wav
000295  07-ROZA-250607_1503.wav     V     C        15:03:55:09 15:04:07:12 01:05:32:15 01:05:44:18
*FROM CLIP NAME:  07-ROZA-250607_1503.wav
000296  34-PGM_L-250607_1503.wav    V     C        15:03:55:09 15:04:07:12 01:05:32:15 01:05:44:18
*FROM CLIP NAME:  34-PGM_L-250607_1503.wav
000297  39-MIX-LARA_L-250607_1503.  V     C        15:03:55:09 15:04:07:12 01:05:32:15 01:05:44:18
*FROM CLIP NAME:  39-MIX-LARA_L-250607_1503.wav
000298  07-ROZA-250607_1503.wav     V     C        15:03:55:09 15:04:07:02 01:05:44:18 01:05:56:11
*FROM CLIP NAME:  07-ROZA-250607_1503.wav
000299  08-HERO-250607_1503.wav     V     C        15:03:55:09 15:04:07:02 01:05:44:18 01:05:56:11
*FROM CLIP NAME:  08-HERO-250607_1503.wav
000300  40-MIX-LARA_R-250607_1503.  V     C        15:03:55:09 15:04:07:02 01:05:44:18 01:05:56:11
*FROM CLIP NAME:  40-MIX-LARA_R-250607_1503.wav
000301  34-PGM_L-250607_1503.wav    V     C        15:03:55:09 15:04:07:02 01:05:44:18 01:05:56:11
*FROM CLIP NAME:  34-PGM_L-250607_1503.wav
000302  39-MIX-LARA_L-250607_1503.  V     C        15:03:55:09 15:04:07:02 01:05:44:18 01:05:56:11
*FROM CLIP NAME:  39-MIX-LARA_L-250607_1503.wav
000303  35-PGM_R-250607_1503.wav    V     C        15:03:55:09 15:04:07:02 01:05:44:18 01:05:56:11
*FROM CLIP NAME:  35-PGM_R-250607_1503.wav
000304  06-LARA-250607_1503.wav     V     C        15:03:55:09 15:04:07:02 01:05:44:18 01:05:56:11
*FROM CLIP NAME:  06-LARA-250607_1503.wav
000305  36-PGM2_L-250607_1503.wav   V     C        15:03:55:09 15:04:02:07 01:05:56:11 01:06:03:09
*FROM CLIP NAME:  36-PGM2_L-250607_1503.wav
000306  08-HERO-250607_1503.wav     V     C        15:03:55:09 15:04:02:17 01:06:03:09 01:06:10:17
*FROM CLIP NAME:  08-HERO-250607_1503.wav
000307  40-MIX-LARA_R-250607_1503.  V     C        15:03:55:09 15:04:02:17 01:06:03:09 01:06:10:17
*FROM CLIP NAME:  40-MIX-LARA_R-250607_1503.wav
000308  06-LARA-250607_1503.wav     V     C        15:03:55:09 15:04:02:17 01:06:03:09 01:06:10:17
*FROM CLIP NAME:  06-LARA-250607_1503.wav
000309  34-PGM_L-250607_1503.wav    V     C        15:03:55:09 15:04:02:17 01:06:03:09 01:06:10:17
*FROM CLIP NAME:  34-PGM_L-250607_1503.wav
000310  39-MIX-LARA_L-250607_1503.  V     C        15:03:55:09 15:04:02:17 01:06:03:09 01:06:10:17
*FROM CLIP NAME:  39-MIX-LARA_L-250607_1503.wav
000311  35-PGM_R-250607_1503.wav    V     C        15:03:55:09 15:04:02:17 01:06:03:09 01:06:10:17
*FROM CLIP NAME:  35-PGM_R-250607_1503.wav
000312  07-ROZA-250607_1503.wav     V     C        15:03:55:09 15:04:02:17 01:06:03:09 01:06:10:17
*FROM CLIP NAME:  07-ROZA-250607_1503.wav
000313  40-MIX-LARA_R-250607_1503.  V     C        15:03:55:10 15:04:22:16 01:06:10:17 01:06:37:23
*FROM CLIP NAME:  40-MIX-LARA_R-250607_1503.wav
000314  06-LARA-250607_1503.wav     V     C        15:03:55:10 15:04:22:16 01:06:10:17 01:06:37:23
*FROM CLIP NAME:  06-LARA-250607_1503.wav
000315  08-HERO-250607_1503.wav     V     C        15:03:55:10 15:04:22:16 01:06:10:17 01:06:37:23
*FROM CLIP NAME:  08-HERO-250607_1503.wav
000316  39-MIX-LARA_L-250607_1503.  V     C        15:03:55:10 15:04:22:16 01:06:10:17 01:06:37:23
*FROM CLIP NAME:  39-MIX-LARA_L-250607_1503.wav
000317  34-PGM_L-250607_1503.wav    V     C        15:03:55:10 15:04:22:16 01:06:10:17 01:06:37:23
*FROM CLIP NAME:  34-PGM_L-250607_1503.wav
000318  35-PGM_R-250607_1503.wav    V     C        15:03:55:10 15:04:22:16 01:06:10:17 01:06:37:23
*FROM CLIP NAME:  35-PGM_R-250607_1503.wav
000319  07-ROZA-250607_1503.wav     V     C        15:03:55:10 15:04:22:16 01:06:10:17 01:06:37:23
*FROM CLIP NAME:  07-ROZA-250607_1503.wav
000320  06-LARA-250607_1503.wav     V     C        15:03:55:09 15:03:57:24 01:06:37:23 01:06:40:13
*FROM CLIP NAME:  06-LARA-250607_1503.wav
000321  08-HERO-250607_1503.wav     V     C        15:03:55:09 15:03:57:24 01:06:37:23 01:06:40:13
*FROM CLIP NAME:  08-HERO-250607_1503.wav
000322  35-PGM_R-250607_1503.wav    V     C        15:03:55:09 15:03:57:24 01:06:37:23 01:06:40:13
*FROM CLIP NAME:  35-PGM_R-250607_1503.wav
000323  34-PGM_L-250607_1503.wav    V     C        15:03:55:09 15:03:57:24 01:06:37:23 01:06:40:13
*FROM CLIP NAME:  34-PGM_L-250607_1503.wav
000324  07-ROZA-250607_1503.wav     V     C        15:03:55:09 15:03:57:24 01:06:37:23 01:06:40:13
*FROM CLIP NAME:  07-ROZA-250607_1503.wav
000325  40-MIX-LARA_R-250607_1503.  V     C        15:03:55:09 15:03:57:24 01:06:37:23 01:06:40:13
*FROM CLIP NAME:  40-MIX-LARA_R-250607_1503.wav
000326  39-MIX-LARA_L-250607_1503.  V     C        15:03:55:09 15:03:57:24 01:06:37:23 01:06:40:13
*FROM CLIP NAME:  39-MIX-LARA_L-250607_1503.wav
000327  Alfa.mov_R                  V     C        01:49:02:05 01:49:03:09 01:06:39:03 01:06:40:07
*FROM CLIP NAME:  Alfa.mov_R
000328  Alfa.mov_L                  V     C        01:49:02:05 01:49:03:09 01:06:39:03 01:06:40:07
*FROM CLIP NAME:  Alfa.mov_L
000329  34-PGM_L-250607_1503.wav    V     C        15:03:55:09 15:04:17:10 01:06:40:13 01:07:02:14
*FROM CLIP NAME:  34-PGM_L-250607_1503.wav
000330  35-PGM_R-250607_1503.wav    V     C        15:03:55:09 15:04:17:10 01:06:40:13 01:07:02:14
*FROM CLIP NAME:  35-PGM_R-250607_1503.wav
000331  07-ROZA-250607_1503.wav     V     C        15:03:55:09 15:04:17:10 01:06:40:13 01:07:02:14
*FROM CLIP NAME:  07-ROZA-250607_1503.wav
000332  06-LARA-250607_1503.wav     V     C        15:03:55:09 15:04:17:10 01:06:40:13 01:07:02:14
*FROM CLIP NAME:  06-LARA-250607_1503.wav
000333  40-MIX-LARA_R-250607_1503.  V     C        15:03:55:09 15:04:17:10 01:06:40:13 01:07:02:14
*FROM CLIP NAME:  40-MIX-LARA_R-250607_1503.wav
000334  39-MIX-LARA_L-250607_1503.  V     C        15:03:55:09 15:04:17:10 01:06:40:13 01:07:02:14
*FROM CLIP NAME:  39-MIX-LARA_L-250607_1503.wav
000335  08-HERO-250607_1503.wav     V     C        15:03:55:09 15:04:17:10 01:06:40:13 01:07:02:14
*FROM CLIP NAME:  08-HERO-250607_1503.wav
000336  36-PGM2_L-250607_1503.wav   V     C        15:03:55:09 15:04:01:03 01:07:02:14 01:07:08:08
*FROM CLIP NAME:  36-PGM2_L-250607_1503.wav
000337  07-ROZA-250607_1503.wav     V     C        15:03:55:09 15:04:07:08 01:07:08:08 01:07:20:07
*FROM CLIP NAME:  07-ROZA-250607_1503.wav
000338  35-PGM_R-250607_1503.wav    V     C        15:03:55:09 15:04:07:08 01:07:08:08 01:07:20:07
*FROM CLIP NAME:  35-PGM_R-250607_1503.wav
000339  40-MIX-LARA_R-250607_1503.  V     C        15:03:55:09 15:04:07:08 01:07:08:08 01:07:20:07
*FROM CLIP NAME:  40-MIX-LARA_R-250607_1503.wav
000340  34-PGM_L-250607_1503.wav    V     C        15:03:55:09 15:04:07:08 01:07:08:08 01:07:20:07
*FROM CLIP NAME:  34-PGM_L-250607_1503.wav
000341  06-LARA-250607_1503.wav     V     C        15:03:55:09 15:04:07:08 01:07:08:08 01:07:20:07
*FROM CLIP NAME:  06-LARA-250607_1503.wav
000342  08-HERO-250607_1503.wav     V     C        15:03:55:09 15:04:07:08 01:07:08:08 01:07:20:07
*FROM CLIP NAME:  08-HERO-250607_1503.wav
000343  39-MIX-LARA_L-250607_1503.  V     C        15:03:55:09 15:04:07:08 01:07:08:08 01:07:20:07
*FROM CLIP NAME:  39-MIX-LARA_L-250607_1503.wav
000344  __ZNAKOMSTVO___Heartbeat.w  V     C        00:00:00:00 00:00:24:17 01:07:09:08 01:07:34:00
*FROM CLIP NAME:  __ZNAKOMSTVO___Heartbeat.wav_R
000345  __ZNAKOMSTVO___Heartbeat.w  V     C        00:00:00:00 00:00:24:17 01:07:09:08 01:07:34:00
*FROM CLIP NAME:  __ZNAKOMSTVO___Heartbeat.wav_L
000346  __ZNAKOMSTVO__Suspence.wav  V     C        00:00:00:00 00:00:13:11 01:07:09:19 01:07:23:05
*FROM CLIP NAME:  __ZNAKOMSTVO__Suspence.wav_L
000347  __ZNAKOMSTVO__Suspence.wav  V     C        00:00:00:00 00:00:13:11 01:07:09:19 01:07:23:05
*FROM CLIP NAME:  __ZNAKOMSTVO__Suspence.wav_R
000348  07-ROZA-250607_1503.wav     V     C        15:03:55:09 15:04:23:13 01:07:20:24 01:07:49:03
*FROM CLIP NAME:  07-ROZA-250607_1503.wav
000349  35-PGM_R-250607_1503.wav    V     C        15:03:55:09 15:04:23:13 01:07:20:24 01:07:49:03
*FROM CLIP NAME:  35-PGM_R-250607_1503.wav
000350  34-PGM_L-250607_1503.wav    V     C        15:03:55:09 15:04:23:13 01:07:20:24 01:07:49:03
*FROM CLIP NAME:  34-PGM_L-250607_1503.wav
000351  40-MIX-LARA_R-250607_1503.  V     C        15:03:55:09 15:04:23:13 01:07:20:24 01:07:49:03
*FROM CLIP NAME:  40-MIX-LARA_R-250607_1503.wav
000352  06-LARA-250607_1503.wav     V     C        15:03:55:09 15:04:23:13 01:07:20:24 01:07:49:03
*FROM CLIP NAME:  06-LARA-250607_1503.wav
000353  08-HERO-250607_1503.wav     V     C        15:03:55:09 15:04:23:13 01:07:20:24 01:07:49:03
*FROM CLIP NAME:  08-HERO-250607_1503.wav
000354  39-MIX-LARA_L-250607_1503.  V     C        15:03:55:09 15:04:23:13 01:07:20:24 01:07:49:03
*FROM CLIP NAME:  39-MIX-LARA_L-250607_1503.wav
000355  Apollo_BAK_32_5__Non-Stop_  V     C        00:00:00:18 00:00:29:19 01:07:48:10 01:08:17:11
*FROM CLIP NAME:  Apollo_BAK_32_5__Non-Stop__Devon-May-Kai-Irving-Matt-Lawrence.mp3_R
000356  Apollo_BAK_32_5__Non-Stop_  V     C        00:00:00:18 00:00:29:19 01:07:48:10 01:08:17:11
*FROM CLIP NAME:  Apollo_BAK_32_5__Non-Stop__Devon-May-Kai-Irving-Matt-Lawrence.mp3_L
000357  07-ROZA-250607_1503.wav     V     C        15:03:55:09 15:04:23:17 01:07:49:03 01:08:17:11
*FROM CLIP NAME:  07-ROZA-250607_1503.wav
000358  35-PGM_R-250607_1503.wav    V     C        15:03:55:09 15:04:23:17 01:07:49:03 01:08:17:11
*FROM CLIP NAME:  35-PGM_R-250607_1503.wav
000359  34-PGM_L-250607_1503.wav    V     C        15:03:55:09 15:04:23:17 01:07:49:03 01:08:17:11
*FROM CLIP NAME:  34-PGM_L-250607_1503.wav
000360  06-LARA-250607_1503.wav     V     C        15:03:55:09 15:04:23:17 01:07:49:03 01:08:17:11
*FROM CLIP NAME:  06-LARA-250607_1503.wav
000361  40-MIX-LARA_R-250607_1503.  V     C        15:03:55:09 15:04:23:17 01:07:49:03 01:08:17:11
*FROM CLIP NAME:  40-MIX-LARA_R-250607_1503.wav
000362  08-HERO-250607_1503.wav     V     C        15:03:55:09 15:04:23:17 01:07:49:03 01:08:17:11
*FROM CLIP NAME:  08-HERO-250607_1503.wav
000363  39-MIX-LARA_L-250607_1503.  V     C        15:03:55:09 15:04:23:17 01:07:49:03 01:08:17:11
*FROM CLIP NAME:  39-MIX-LARA_L-250607_1503.wav
000364  134935__ztrees1__whoosh.wa  V     C        00:07:31:01 00:07:32:08 01:08:00:20 01:08:02:02
*FROM CLIP NAME:  134935__ztrees1__whoosh.wav_R
000365  134935__ztrees1__whoosh.wa  V     C        00:07:31:01 00:07:32:08 01:08:00:20 01:08:02:02
*FROM CLIP NAME:  134935__ztrees1__whoosh.wav_L
000366  07-ROZA-250607_1503.wav     V     C        15:03:55:09 15:03:58:22 01:08:17:11 01:08:20:24
*FROM CLIP NAME:  07-ROZA-250607_1503.wav
000367  35-PGM_R-250607_1503.wav    V     C        15:03:55:09 15:03:58:22 01:08:17:11 01:08:20:24
*FROM CLIP NAME:  35-PGM_R-250607_1503.wav
000368  34-PGM_L-250607_1503.wav    V     C        15:03:55:09 15:03:58:22 01:08:17:11 01:08:20:24
*FROM CLIP NAME:  34-PGM_L-250607_1503.wav
000369  40-MIX-LARA_R-250607_1503.  V     C        15:03:55:09 15:03:58:22 01:08:17:11 01:08:20:24
*FROM CLIP NAME:  40-MIX-LARA_R-250607_1503.wav
000370  06-LARA-250607_1503.wav     V     C        15:03:55:09 15:03:58:22 01:08:17:11 01:08:20:24
*FROM CLIP NAME:  06-LARA-250607_1503.wav
000371  08-HERO-250607_1503.wav     V     C        15:03:55:09 15:03:58:22 01:08:17:11 01:08:20:24
*FROM CLIP NAME:  08-HERO-250607_1503.wav
000372  39-MIX-LARA_L-250607_1503.  V     C        15:03:55:09 15:03:58:22 01:08:17:11 01:08:20:24
*FROM CLIP NAME:  39-MIX-LARA_L-250607_1503.wav
000373  35-PGM_R-250607_1503.wav    V     C        15:03:55:09 15:04:02:24 01:08:20:24 01:08:28:14
*FROM CLIP NAME:  35-PGM_R-250607_1503.wav
000374  34-PGM_L-250607_1503.wav    V     C        15:03:55:09 15:04:02:24 01:08:20:24 01:08:28:14
*FROM CLIP NAME:  34-PGM_L-250607_1503.wav
000375  06-LARA-250607_1503.wav     V     C        15:03:55:09 15:04:02:24 01:08:20:24 01:08:28:14
*FROM CLIP NAME:  06-LARA-250607_1503.wav
000376  08-HERO-250607_1503.wav     V     C        15:03:55:09 15:04:02:24 01:08:20:24 01:08:28:14
*FROM CLIP NAME:  08-HERO-250607_1503.wav
000377  07-ROZA-250607_1503.wav     V     C        15:03:55:09 15:04:02:24 01:08:20:24 01:08:28:14
*FROM CLIP NAME:  07-ROZA-250607_1503.wav
000378  39-MIX-LARA_L-250607_1503.  V     C        15:03:55:09 15:04:02:24 01:08:20:24 01:08:28:14
*FROM CLIP NAME:  39-MIX-LARA_L-250607_1503.wav
000379  40-MIX-LARA_R-250607_1503.  V     C        15:03:55:09 15:04:02:24 01:08:20:24 01:08:28:14
*FROM CLIP NAME:  40-MIX-LARA_R-250607_1503.wav
000380  36-PGM2_L-250607_1503.wav   V     C        15:03:55:09 15:04:01:21 01:08:28:14 01:08:35:01
*FROM CLIP NAME:  36-PGM2_L-250607_1503.wav
000381  07-ROZA-250607_1503.wav     V     C        15:03:55:09 15:03:58:12 01:08:35:01 01:08:38:04
*FROM CLIP NAME:  07-ROZA-250607_1503.wav
000382  35-PGM_R-250607_1503.wav    V     C        15:03:55:09 15:03:58:12 01:08:35:01 01:08:38:04
*FROM CLIP NAME:  35-PGM_R-250607_1503.wav
000383  06-LARA-250607_1503.wav     V     C        15:03:55:09 15:03:58:12 01:08:35:01 01:08:38:04
*FROM CLIP NAME:  06-LARA-250607_1503.wav
000384  34-PGM_L-250607_1503.wav    V     C        15:03:55:09 15:03:58:12 01:08:35:01 01:08:38:04
*FROM CLIP NAME:  34-PGM_L-250607_1503.wav
000385  08-HERO-250607_1503.wav     V     C        15:03:55:09 15:03:58:12 01:08:35:01 01:08:38:04
*FROM CLIP NAME:  08-HERO-250607_1503.wav
000386  39-MIX-LARA_L-250607_1503.  V     C        15:03:55:09 15:03:58:12 01:08:35:01 01:08:38:04
*FROM CLIP NAME:  39-MIX-LARA_L-250607_1503.wav
000387  40-MIX-LARA_R-250607_1503.  V     C        15:03:55:09 15:03:58:12 01:08:35:01 01:08:38:04
*FROM CLIP NAME:  40-MIX-LARA_R-250607_1503.wav
000388  11-1-250607_1503.wav        V     C        15:03:55:09 15:03:56:13 01:08:38:04 01:08:39:08
*FROM CLIP NAME:  11-1-250607_1503.wav
000389  08-HERO-250607_1503.wav     V     C        15:03:55:09 15:03:57:15 01:08:39:08 01:08:41:14
*FROM CLIP NAME:  08-HERO-250607_1503.wav
000390  39-MIX-LARA_L-250607_1503.  V     C        15:03:55:09 15:03:57:15 01:08:39:08 01:08:41:14
*FROM CLIP NAME:  39-MIX-LARA_L-250607_1503.wav
000391  06-LARA-250607_1503.wav     V     C        15:03:55:09 15:03:57:15 01:08:39:08 01:08:41:14
*FROM CLIP NAME:  06-LARA-250607_1503.wav
000392  07-ROZA-250607_1503.wav     V     C        15:03:55:09 15:03:57:15 01:08:39:08 01:08:41:14
*FROM CLIP NAME:  07-ROZA-250607_1503.wav
000393  34-PGM_L-250607_1503.wav    V     C        15:03:55:09 15:03:57:15 01:08:39:08 01:08:41:14
*FROM CLIP NAME:  34-PGM_L-250607_1503.wav
000394  40-MIX-LARA_R-250607_1503.  V     C        15:03:55:09 15:03:57:15 01:08:39:08 01:08:41:14
*FROM CLIP NAME:  40-MIX-LARA_R-250607_1503.wav
000395  35-PGM_R-250607_1503.wav    V     C        15:03:55:09 15:03:57:15 01:08:39:08 01:08:41:14
*FROM CLIP NAME:  35-PGM_R-250607_1503.wav
000396  35-PGM_R-250607_1503.wav    V     C        15:03:55:09 15:04:03:12 01:08:41:14 01:08:49:17
*FROM CLIP NAME:  35-PGM_R-250607_1503.wav
000397  08-HERO-250607_1503.wav     V     C        15:03:55:09 15:04:03:12 01:08:41:14 01:08:49:17
*FROM CLIP NAME:  08-HERO-250607_1503.wav
000398  40-MIX-LARA_R-250607_1503.  V     C        15:03:55:09 15:04:03:12 01:08:41:14 01:08:49:17
*FROM CLIP NAME:  40-MIX-LARA_R-250607_1503.wav
000399  34-PGM_L-250607_1503.wav    V     C        15:03:55:09 15:04:03:12 01:08:41:14 01:08:49:17
*FROM CLIP NAME:  34-PGM_L-250607_1503.wav
000400  39-MIX-LARA_L-250607_1503.  V     C        15:03:55:09 15:04:03:12 01:08:41:14 01:08:49:17
*FROM CLIP NAME:  39-MIX-LARA_L-250607_1503.wav
000401  07-ROZA-250607_1503.wav     V     C        15:03:55:09 15:04:03:12 01:08:41:14 01:08:49:17
*FROM CLIP NAME:  07-ROZA-250607_1503.wav
000402  06-LARA-250607_1503.wav     V     C        15:03:55:09 15:04:03:12 01:08:41:14 01:08:49:17
*FROM CLIP NAME:  06-LARA-250607_1503.wav
000403  35-PGM_R-250607_1503.wav    V     C        15:03:55:09 15:04:05:17 01:08:49:17 01:09:00:00
*FROM CLIP NAME:  35-PGM_R-250607_1503.wav
000404  34-PGM_L-250607_1503.wav    V     C        15:03:55:09 15:04:05:17 01:08:49:17 01:09:00:00
*FROM CLIP NAME:  34-PGM_L-250607_1503.wav
000405  39-MIX-LARA_L-250607_1503.  V     C        15:03:55:09 15:04:05:17 01:08:49:17 01:09:00:00
*FROM CLIP NAME:  39-MIX-LARA_L-250607_1503.wav
000406  08-HERO-250607_1503.wav     V     C        15:03:55:09 15:04:05:17 01:08:49:17 01:09:00:00
*FROM CLIP NAME:  08-HERO-250607_1503.wav
000407  07-ROZA-250607_1503.wav     V     C        15:03:55:09 15:04:05:17 01:08:49:17 01:09:00:00
*FROM CLIP NAME:  07-ROZA-250607_1503.wav
000408  40-MIX-LARA_R-250607_1503.  V     C        15:03:55:09 15:04:05:17 01:08:49:17 01:09:00:00
*FROM CLIP NAME:  40-MIX-LARA_R-250607_1503.wav
000409  06-LARA-250607_1503.wav     V     C        15:03:55:09 15:04:05:17 01:08:49:17 01:09:00:00
*FROM CLIP NAME:  06-LARA-250607_1503.wav
000410  06-LARA-250607_1503.wav     V     C        15:03:55:10 15:03:56:15 01:09:00:00 01:09:01:05
*FROM CLIP NAME:  06-LARA-250607_1503.wav
000411  06-LARA-250607_1503.wav     V     C        15:03:55:09 15:04:03:15 01:09:01:05 01:09:09:11
*FROM CLIP NAME:  06-LARA-250607_1503.wav
000412  08-HERO-250607_1503.wav     V     C        15:03:55:09 15:04:03:15 01:09:01:05 01:09:09:11
*FROM CLIP NAME:  08-HERO-250607_1503.wav
000413  34-PGM_L-250607_1503.wav    V     C        15:03:55:09 15:04:03:15 01:09:01:05 01:09:09:11
*FROM CLIP NAME:  34-PGM_L-250607_1503.wav
000414  07-ROZA-250607_1503.wav     V     C        15:03:55:09 15:04:03:15 01:09:01:05 01:09:09:11
*FROM CLIP NAME:  07-ROZA-250607_1503.wav
000415  39-MIX-LARA_L-250607_1503.  V     C        15:03:55:09 15:04:03:15 01:09:01:05 01:09:09:11
*FROM CLIP NAME:  39-MIX-LARA_L-250607_1503.wav
000416  35-PGM_R-250607_1503.wav    V     C        15:03:55:09 15:04:03:15 01:09:01:05 01:09:09:11
*FROM CLIP NAME:  35-PGM_R-250607_1503.wav
000417  40-MIX-LARA_R-250607_1503.  V     C        15:03:55:09 15:04:03:15 01:09:01:05 01:09:09:11
*FROM CLIP NAME:  40-MIX-LARA_R-250607_1503.wav
000418  11-1-250607_1503.wav        V     C        15:03:55:09 15:03:57:10 01:09:09:11 01:09:11:12
*FROM CLIP NAME:  11-1-250607_1503.wav
000419  06-LARA-250607_1503.wav     V     C        15:03:55:09 15:03:57:10 01:09:11:12 01:09:13:13
*FROM CLIP NAME:  06-LARA-250607_1503.wav
000420  11-1-250607_1503.wav        V     C        15:03:55:09 15:03:56:08 01:09:13:13 01:09:14:12
*FROM CLIP NAME:  11-1-250607_1503.wav
000421  36-PGM2_L-250607_1503.wav   V     C        15:03:55:09 15:04:05:17 01:09:14:12 01:09:24:20
*FROM CLIP NAME:  36-PGM2_L-250607_1503.wav
000422  08-HERO-250607_1503.wav     V     C        15:03:55:09 15:03:57:06 01:09:24:20 01:09:26:17
*FROM CLIP NAME:  08-HERO-250607_1503.wav
000423  39-MIX-LARA_L-250607_1503.  V     C        15:03:55:09 15:03:57:06 01:09:24:20 01:09:26:17
*FROM CLIP NAME:  39-MIX-LARA_L-250607_1503.wav
000424  40-MIX-LARA_R-250607_1503.  V     C        15:03:55:09 15:03:57:06 01:09:24:20 01:09:26:17
*FROM CLIP NAME:  40-MIX-LARA_R-250607_1503.wav
000425  07-ROZA-250607_1503.wav     V     C        15:03:55:09 15:03:57:06 01:09:24:20 01:09:26:17
*FROM CLIP NAME:  07-ROZA-250607_1503.wav
000426  34-PGM_L-250607_1503.wav    V     C        15:03:55:09 15:03:57:06 01:09:24:20 01:09:26:17
*FROM CLIP NAME:  34-PGM_L-250607_1503.wav
000427  35-PGM_R-250607_1503.wav    V     C        15:03:55:09 15:03:57:06 01:09:24:20 01:09:26:17
*FROM CLIP NAME:  35-PGM_R-250607_1503.wav
000428  06-LARA-250607_1503.wav     V     C        15:03:55:09 15:03:57:06 01:09:24:20 01:09:26:17
*FROM CLIP NAME:  06-LARA-250607_1503.wav
000429  39-MIX-LARA_L-250607_1503.  V     C        15:03:55:09 15:03:57:01 01:09:26:17 01:09:28:09
*FROM CLIP NAME:  39-MIX-LARA_L-250607_1503.wav
000430  07-ROZA-250607_1503.wav     V     C        15:03:55:09 15:03:57:01 01:09:26:17 01:09:28:09
*FROM CLIP NAME:  07-ROZA-250607_1503.wav
000431  35-PGM_R-250607_1503.wav    V     C        15:03:55:09 15:03:57:01 01:09:26:17 01:09:28:09
*FROM CLIP NAME:  35-PGM_R-250607_1503.wav
000432  34-PGM_L-250607_1503.wav    V     C        15:03:55:09 15:03:57:01 01:09:26:17 01:09:28:09
*FROM CLIP NAME:  34-PGM_L-250607_1503.wav
000433  06-LARA-250607_1503.wav     V     C        15:03:55:09 15:03:57:01 01:09:26:17 01:09:28:09
*FROM CLIP NAME:  06-LARA-250607_1503.wav
000434  40-MIX-LARA_R-250607_1503.  V     C        15:03:55:09 15:03:57:01 01:09:26:17 01:09:28:09
*FROM CLIP NAME:  40-MIX-LARA_R-250607_1503.wav
000435  08-HERO-250607_1503.wav     V     C        15:03:55:09 15:03:57:01 01:09:26:17 01:09:28:09
*FROM CLIP NAME:  08-HERO-250607_1503.wav
000436  06-LARA-250607_1503.wav     V     C        15:03:55:09 15:03:58:23 01:09:28:09 01:09:31:23
*FROM CLIP NAME:  06-LARA-250607_1503.wav
000437  39-MIX-LARA_L-250607_1503.  V     C        15:03:55:09 15:03:57:20 01:09:29:12 01:09:31:23
*FROM CLIP NAME:  39-MIX-LARA_L-250607_1503.wav
000438  07-ROZA-250607_1503.wav     V     C        15:03:55:09 15:03:57:20 01:09:29:12 01:09:31:23
*FROM CLIP NAME:  07-ROZA-250607_1503.wav
000439  34-PGM_L-250607_1503.wav    V     C        15:03:55:09 15:03:57:20 01:09:29:12 01:09:31:23
*FROM CLIP NAME:  34-PGM_L-250607_1503.wav
000440  40-MIX-LARA_R-250607_1503.  V     C        15:03:55:09 15:03:57:20 01:09:29:12 01:09:31:23
*FROM CLIP NAME:  40-MIX-LARA_R-250607_1503.wav
000441  35-PGM_R-250607_1503.wav    V     C        15:03:55:09 15:03:57:20 01:09:29:12 01:09:31:23
*FROM CLIP NAME:  35-PGM_R-250607_1503.wav
000442  08-HERO-250607_1503.wav     V     C        15:03:55:09 15:03:57:20 01:09:29:12 01:09:31:23
*FROM CLIP NAME:  08-HERO-250607_1503.wav
000443  40-MIX-LARA_R-250607_1503.  V     C        15:03:55:09 15:04:04:03 01:09:31:23 01:09:40:17
*FROM CLIP NAME:  40-MIX-LARA_R-250607_1503.wav
000444  39-MIX-LARA_L-250607_1503.  V     C        15:03:55:09 15:04:04:03 01:09:31:23 01:09:40:17
*FROM CLIP NAME:  39-MIX-LARA_L-250607_1503.wav
000445  07-ROZA-250607_1503.wav     V     C        15:03:55:09 15:04:04:03 01:09:31:23 01:09:40:17
*FROM CLIP NAME:  07-ROZA-250607_1503.wav
000446  08-HERO-250607_1503.wav     V     C        15:03:55:09 15:04:04:03 01:09:31:23 01:09:40:17
*FROM CLIP NAME:  08-HERO-250607_1503.wav
000447  06-LARA-250607_1503.wav     V     C        15:03:55:09 15:04:04:03 01:09:31:23 01:09:40:17
*FROM CLIP NAME:  06-LARA-250607_1503.wav
000448  34-PGM_L-250607_1503.wav    V     C        15:03:55:09 15:04:04:03 01:09:31:23 01:09:40:17
*FROM CLIP NAME:  34-PGM_L-250607_1503.wav
000449  35-PGM_R-250607_1503.wav    V     C        15:03:55:09 15:04:04:03 01:09:31:23 01:09:40:17
*FROM CLIP NAME:  35-PGM_R-250607_1503.wav
000450  39-MIX-LARA_L-250607_1503.  V     C        15:03:55:09 15:04:00:11 01:09:40:17 01:09:45:19
*FROM CLIP NAME:  39-MIX-LARA_L-250607_1503.wav
000451  40-MIX-LARA_R-250607_1503.  V     C        15:03:55:09 15:04:00:11 01:09:40:17 01:09:45:19
*FROM CLIP NAME:  40-MIX-LARA_R-250607_1503.wav
000452  35-PGM_R-250607_1503.wav    V     C        15:03:55:09 15:04:00:11 01:09:40:17 01:09:45:19
*FROM CLIP NAME:  35-PGM_R-250607_1503.wav
000453  07-ROZA-250607_1503.wav     V     C        15:03:55:09 15:04:00:11 01:09:40:17 01:09:45:19
*FROM CLIP NAME:  07-ROZA-250607_1503.wav
000454  34-PGM_L-250607_1503.wav    V     C        15:03:55:09 15:04:00:11 01:09:40:17 01:09:45:19
*FROM CLIP NAME:  34-PGM_L-250607_1503.wav
000455  06-LARA-250607_1503.wav     V     C        15:03:55:09 15:04:00:11 01:09:40:17 01:09:45:19
*FROM CLIP NAME:  06-LARA-250607_1503.wav
000456  08-HERO-250607_1503.wav     V     C        15:03:55:09 15:04:00:11 01:09:40:17 01:09:45:19
*FROM CLIP NAME:  08-HERO-250607_1503.wav
000457  34-PGM_L-250607_1503.wav    V     C        15:03:55:10 15:04:19:12 01:09:45:19 01:10:09:21
*FROM CLIP NAME:  34-PGM_L-250607_1503.wav
000458  40-MIX-LARA_R-250607_1503.  V     C        15:03:55:10 15:04:19:12 01:09:45:19 01:10:09:21
*FROM CLIP NAME:  40-MIX-LARA_R-250607_1503.wav
000459  39-MIX-LARA_L-250607_1503.  V     C        15:03:55:10 15:04:19:12 01:09:45:19 01:10:09:21
*FROM CLIP NAME:  39-MIX-LARA_L-250607_1503.wav
000460  08-HERO-250607_1503.wav     V     C        15:03:55:10 15:04:19:12 01:09:45:19 01:10:09:21
*FROM CLIP NAME:  08-HERO-250607_1503.wav
000461  07-ROZA-250607_1503.wav     V     C        15:03:55:10 15:04:19:12 01:09:45:19 01:10:09:21
*FROM CLIP NAME:  07-ROZA-250607_1503.wav
000462  35-PGM_R-250607_1503.wav    V     C        15:03:55:10 15:04:19:12 01:09:45:19 01:10:09:21
*FROM CLIP NAME:  35-PGM_R-250607_1503.wav
000463  06-LARA-250607_1503.wav     V     C        15:03:55:10 15:04:19:12 01:09:45:19 01:10:09:21
*FROM CLIP NAME:  06-LARA-250607_1503.wav
000464  34-PGM_L-250607_1503.wav    V     C        15:03:55:09 15:04:05:21 01:10:09:21 01:10:20:08
*FROM CLIP NAME:  34-PGM_L-250607_1503.wav
000465  40-MIX-LARA_R-250607_1503.  V     C        15:03:55:09 15:04:05:21 01:10:09:21 01:10:20:08
*FROM CLIP NAME:  40-MIX-LARA_R-250607_1503.wav
000466  39-MIX-LARA_L-250607_1503.  V     C        15:03:55:09 15:04:05:21 01:10:09:21 01:10:20:08
*FROM CLIP NAME:  39-MIX-LARA_L-250607_1503.wav
000467  07-ROZA-250607_1503.wav     V     C        15:03:55:09 15:04:05:21 01:10:09:21 01:10:20:08
*FROM CLIP NAME:  07-ROZA-250607_1503.wav
000468  35-PGM_R-250607_1503.wav    V     C        15:03:55:09 15:04:05:21 01:10:09:21 01:10:20:08
*FROM CLIP NAME:  35-PGM_R-250607_1503.wav
000469  08-HERO-250607_1503.wav     V     C        15:03:55:09 15:04:05:21 01:10:09:21 01:10:20:08
*FROM CLIP NAME:  08-HERO-250607_1503.wav
000470  06-LARA-250607_1503.wav     V     C        15:03:55:09 15:04:05:21 01:10:09:21 01:10:20:08
*FROM CLIP NAME:  06-LARA-250607_1503.wav
000471  36-PGM2_L-250607_1503.wav   V     C        15:03:55:09 15:04:07:01 01:10:20:08 01:10:32:00
*FROM CLIP NAME:  36-PGM2_L-250607_1503.wav
000472  Ozon_O_Rasprodaga_2_TVC_10  V     C        00:00:00:00 00:00:10:00 01:10:32:00 01:10:42:00
*FROM CLIP NAME:  Ozon_O_Rasprodaga_2_TVC_10s_SponsorProg_250606_HD.mxf_L
000473  Ozon_O_Rasprodaga_2_TVC_10  V     C        00:00:00:00 00:00:10:00 01:10:32:00 01:10:42:00
*FROM CLIP NAME:  Ozon_O_Rasprodaga_2_TVC_10s_SponsorProg_250606_HD.mxf_R
000474  Pereb_in_3s_DP_2023.mov_L   V     C        00:00:00:00 00:00:03:00 01:10:42:00 01:10:45:00
*FROM CLIP NAME:  Pereb_in_3s_DP_2023.mov_L
000475  Pereb_in_3s_DP_2023.mov_R   V     C        00:00:00:00 00:00:03:00 01:10:42:00 01:10:45:00
*FROM CLIP NAME:  Pereb_in_3s_DP_2023.mov_R
000476  Pereb_out_3s_DP_2023.mov_L  V     C        00:00:00:00 00:00:03:00 01:10:45:00 01:10:48:00
*FROM CLIP NAME:  Pereb_out_3s_DP_2023.mov_L
000477  Pereb_out_3s_DP_2023.mov_R  V     C        00:00:00:00 00:00:03:00 01:10:45:00 01:10:48:00
*FROM CLIP NAME:  Pereb_out_3s_DP_2023.mov_R
000478  40-MIX-LARA_R-250607_1503.  V     C        15:03:55:09 15:04:00:03 01:10:48:00 01:10:52:19
*FROM CLIP NAME:  40-MIX-LARA_R-250607_1503.wav
000479  08-HERO-250607_1503.wav     V     C        15:03:55:09 15:04:00:03 01:10:48:00 01:10:52:19
*FROM CLIP NAME:  08-HERO-250607_1503.wav
000480  07-ROZA-250607_1503.wav     V     C        15:03:55:09 15:04:00:03 01:10:48:00 01:10:52:19
*FROM CLIP NAME:  07-ROZA-250607_1503.wav
000481  06-LARA-250607_1503.wav     V     C        15:03:55:09 15:04:00:03 01:10:48:00 01:10:52:19
*FROM CLIP NAME:  06-LARA-250607_1503.wav
000482  35-PGM_R-250607_1503.wav    V     C        15:03:55:09 15:04:00:03 01:10:48:00 01:10:52:19
*FROM CLIP NAME:  35-PGM_R-250607_1503.wav
000483  34-PGM_L-250607_1503.wav    V     C        15:03:55:09 15:04:00:03 01:10:48:00 01:10:52:19
*FROM CLIP NAME:  34-PGM_L-250607_1503.wav
000484  39-MIX-LARA_L-250607_1503.  V     C        15:03:55:09 15:04:00:03 01:10:48:00 01:10:52:19
*FROM CLIP NAME:  39-MIX-LARA_L-250607_1503.wav
000485  40-MIX-LARA_R-250607_1503.  V     C        15:03:55:09 15:04:00:17 01:10:52:19 01:10:58:02
*FROM CLIP NAME:  40-MIX-LARA_R-250607_1503.wav
000486  08-HERO-250607_1503.wav     V     C        15:03:55:09 15:04:00:17 01:10:52:19 01:10:58:02
*FROM CLIP NAME:  08-HERO-250607_1503.wav
000487  07-ROZA-250607_1503.wav     V     C        15:03:55:09 15:04:00:17 01:10:52:19 01:10:58:02
*FROM CLIP NAME:  07-ROZA-250607_1503.wav
000488  06-LARA-250607_1503.wav     V     C        15:03:55:09 15:04:00:17 01:10:52:19 01:10:58:02
*FROM CLIP NAME:  06-LARA-250607_1503.wav
000489  35-PGM_R-250607_1503.wav    V     C        15:03:55:09 15:04:00:17 01:10:52:19 01:10:58:02
*FROM CLIP NAME:  35-PGM_R-250607_1503.wav
000490  34-PGM_L-250607_1503.wav    V     C        15:03:55:09 15:04:00:17 01:10:52:19 01:10:58:02
*FROM CLIP NAME:  34-PGM_L-250607_1503.wav
000491  39-MIX-LARA_L-250607_1503.  V     C        15:03:55:09 15:04:00:17 01:10:52:19 01:10:58:02
*FROM CLIP NAME:  39-MIX-LARA_L-250607_1503.wav
000492  39-MIX-LARA_L-250607_1503.  V     C        15:03:55:09 15:04:02:05 01:10:58:02 01:11:04:23
*FROM CLIP NAME:  39-MIX-LARA_L-250607_1503.wav
000493  40-MIX-LARA_R-250607_1503.  V     C        15:03:55:09 15:04:02:05 01:10:58:02 01:11:04:23
*FROM CLIP NAME:  40-MIX-LARA_R-250607_1503.wav
000494  34-PGM_L-250607_1503.wav    V     C        15:03:55:09 15:04:02:05 01:10:58:02 01:11:04:23
*FROM CLIP NAME:  34-PGM_L-250607_1503.wav
000495  08-HERO-250607_1503.wav     V     C        15:03:55:09 15:04:02:05 01:10:58:02 01:11:04:23
*FROM CLIP NAME:  08-HERO-250607_1503.wav
000496  07-ROZA-250607_1503.wav     V     C        15:03:55:09 15:04:02:05 01:10:58:02 01:11:04:23
*FROM CLIP NAME:  07-ROZA-250607_1503.wav
000497  06-LARA-250607_1503.wav     V     C        15:03:55:09 15:04:02:05 01:10:58:02 01:11:04:23
*FROM CLIP NAME:  06-LARA-250607_1503.wav
000498  35-PGM_R-250607_1503.wav    V     C        15:03:55:09 15:04:02:05 01:10:58:02 01:11:04:23
*FROM CLIP NAME:  35-PGM_R-250607_1503.wav
000499  35-PGM_R-250607_1503.wav    V     C        15:03:55:09 15:04:09:13 01:11:04:23 01:11:19:02
*FROM CLIP NAME:  35-PGM_R-250607_1503.wav
000500  34-PGM_L-250607_1503.wav    V     C        15:03:55:09 15:04:09:13 01:11:04:23 01:11:19:02
*FROM CLIP NAME:  34-PGM_L-250607_1503.wav
000501  40-MIX-LARA_R-250607_1503.  V     C        15:03:55:09 15:04:09:13 01:11:04:23 01:11:19:02
*FROM CLIP NAME:  40-MIX-LARA_R-250607_1503.wav
000502  39-MIX-LARA_L-250607_1503.  V     C        15:03:55:09 15:04:09:13 01:11:04:23 01:11:19:02
*FROM CLIP NAME:  39-MIX-LARA_L-250607_1503.wav
000503  08-HERO-250607_1503.wav     V     C        15:03:55:09 15:04:09:13 01:11:04:23 01:11:19:02
*FROM CLIP NAME:  08-HERO-250607_1503.wav
000504  07-ROZA-250607_1503.wav     V     C        15:03:55:09 15:04:09:13 01:11:04:23 01:11:19:02
*FROM CLIP NAME:  07-ROZA-250607_1503.wav
000505  06-LARA-250607_1503.wav     V     C        15:03:55:09 15:04:09:13 01:11:04:23 01:11:19:02
*FROM CLIP NAME:  06-LARA-250607_1503.wav
000506  35-PGM_R-250607_1503.wav    V     C        15:03:55:10 15:04:10:01 01:11:19:02 01:11:33:18
*FROM CLIP NAME:  35-PGM_R-250607_1503.wav
000507  34-PGM_L-250607_1503.wav    V     C        15:03:55:10 15:04:10:01 01:11:19:02 01:11:33:18
*FROM CLIP NAME:  34-PGM_L-250607_1503.wav
000508  06-LARA-250607_1503.wav     V     C        15:03:55:10 15:04:10:01 01:11:19:02 01:11:33:18
*FROM CLIP NAME:  06-LARA-250607_1503.wav
000509  07-ROZA-250607_1503.wav     V     C        15:03:55:10 15:04:10:01 01:11:19:02 01:11:33:18
*FROM CLIP NAME:  07-ROZA-250607_1503.wav
000510  08-HERO-250607_1503.wav     V     C        15:03:55:10 15:04:10:01 01:11:19:02 01:11:33:18
*FROM CLIP NAME:  08-HERO-250607_1503.wav
000511  39-MIX-LARA_L-250607_1503.  V     C        15:03:55:10 15:04:10:01 01:11:19:02 01:11:33:18
*FROM CLIP NAME:  39-MIX-LARA_L-250607_1503.wav
000512  40-MIX-LARA_R-250607_1503.  V     C        15:03:55:10 15:04:10:01 01:11:19:02 01:11:33:18
*FROM CLIP NAME:  40-MIX-LARA_R-250607_1503.wav
000513  36-PGM2_L-250607_1503.wav   V     C        15:03:55:09 15:04:04:00 01:11:33:18 01:11:42:09
*FROM CLIP NAME:  36-PGM2_L-250607_1503.wav
000514  34-PGM_L-250607_1503.wav    V     C        15:03:55:09 15:04:30:19 01:11:42:09 01:12:17:19
*FROM CLIP NAME:  34-PGM_L-250607_1503.wav
000515  08-HERO-250607_1503.wav     V     C        15:03:55:09 15:04:30:19 01:11:42:09 01:12:17:19
*FROM CLIP NAME:  08-HERO-250607_1503.wav
000516  07-ROZA-250607_1503.wav     V     C        15:03:55:09 15:04:30:19 01:11:42:09 01:12:17:19
*FROM CLIP NAME:  07-ROZA-250607_1503.wav
000517  39-MIX-LARA_L-250607_1503.  V     C        15:03:55:09 15:04:30:19 01:11:42:09 01:12:17:19
*FROM CLIP NAME:  39-MIX-LARA_L-250607_1503.wav
000518  40-MIX-LARA_R-250607_1503.  V     C        15:03:55:09 15:04:30:19 01:11:42:09 01:12:17:19
*FROM CLIP NAME:  40-MIX-LARA_R-250607_1503.wav
000519  35-PGM_R-250607_1503.wav    V     C        15:03:55:09 15:04:30:19 01:11:42:09 01:12:17:19
*FROM CLIP NAME:  35-PGM_R-250607_1503.wav
000520  06-LARA-250607_1503.wav     V     C        15:03:55:09 15:04:30:19 01:11:42:09 01:12:17:19
*FROM CLIP NAME:  06-LARA-250607_1503.wav
000521  35-PGM_R-250607_1503.wav    V     C        15:03:55:09 15:04:01:13 01:12:17:19 01:12:23:23
*FROM CLIP NAME:  35-PGM_R-250607_1503.wav
000522  06-LARA-250607_1503.wav     V     C        15:03:55:09 15:04:01:13 01:12:17:19 01:12:23:23
*FROM CLIP NAME:  06-LARA-250607_1503.wav
000523  08-HERO-250607_1503.wav     V     C        15:03:55:09 15:04:01:13 01:12:17:19 01:12:23:23
*FROM CLIP NAME:  08-HERO-250607_1503.wav
000524  39-MIX-LARA_L-250607_1503.  V     C        15:03:55:09 15:04:01:13 01:12:17:19 01:12:23:23
*FROM CLIP NAME:  39-MIX-LARA_L-250607_1503.wav
000525  34-PGM_L-250607_1503.wav    V     C        15:03:55:09 15:04:01:13 01:12:17:19 01:12:23:23
*FROM CLIP NAME:  34-PGM_L-250607_1503.wav
000526  40-MIX-LARA_R-250607_1503.  V     C        15:03:55:09 15:04:01:13 01:12:17:19 01:12:23:23
*FROM CLIP NAME:  40-MIX-LARA_R-250607_1503.wav
000527  07-ROZA-250607_1503.wav     V     C        15:03:55:09 15:04:01:13 01:12:17:19 01:12:23:23
*FROM CLIP NAME:  07-ROZA-250607_1503.wav
000528  06-LARA-250607_1503.wav     V     C        15:03:55:09 15:03:57:21 01:12:23:23 01:12:26:10
*FROM CLIP NAME:  06-LARA-250607_1503.wav
000529  06-LARA-250607_1503.wav     V     C        15:03:55:09 15:04:00:09 01:12:26:10 01:12:31:10
*FROM CLIP NAME:  06-LARA-250607_1503.wav
000530  08-HERO-250607_1503.wav     V     C        15:03:55:09 15:04:00:09 01:12:26:10 01:12:31:10
*FROM CLIP NAME:  08-HERO-250607_1503.wav
000531  35-PGM_R-250607_1503.wav    V     C        15:03:55:09 15:04:00:09 01:12:26:10 01:12:31:10
*FROM CLIP NAME:  35-PGM_R-250607_1503.wav
000532  39-MIX-LARA_L-250607_1503.  V     C        15:03:55:09 15:04:00:09 01:12:26:10 01:12:31:10
*FROM CLIP NAME:  39-MIX-LARA_L-250607_1503.wav
000533  40-MIX-LARA_R-250607_1503.  V     C        15:03:55:09 15:04:00:09 01:12:26:10 01:12:31:10
*FROM CLIP NAME:  40-MIX-LARA_R-250607_1503.wav
000534  07-ROZA-250607_1503.wav     V     C        15:03:55:09 15:04:00:09 01:12:26:10 01:12:31:10
*FROM CLIP NAME:  07-ROZA-250607_1503.wav
000535  34-PGM_L-250607_1503.wav    V     C        15:03:55:09 15:04:00:09 01:12:26:10 01:12:31:10
*FROM CLIP NAME:  34-PGM_L-250607_1503.wav
000536  34-PGM_L-250607_1503.wav    V     C        15:03:55:09 15:03:58:15 01:12:31:10 01:12:34:16
*FROM CLIP NAME:  34-PGM_L-250607_1503.wav
000537  06-LARA-250607_1503.wav     V     C        15:03:55:09 15:03:58:15 01:12:31:10 01:12:34:16
*FROM CLIP NAME:  06-LARA-250607_1503.wav
000538  35-PGM_R-250607_1503.wav    V     C        15:03:55:09 15:03:58:15 01:12:31:10 01:12:34:16
*FROM CLIP NAME:  35-PGM_R-250607_1503.wav
000539  40-MIX-LARA_R-250607_1503.  V     C        15:03:55:09 15:03:58:15 01:12:31:10 01:12:34:16
*FROM CLIP NAME:  40-MIX-LARA_R-250607_1503.wav
000540  39-MIX-LARA_L-250607_1503.  V     C        15:03:55:09 15:03:58:15 01:12:31:10 01:12:34:16
*FROM CLIP NAME:  39-MIX-LARA_L-250607_1503.wav
000541  07-ROZA-250607_1503.wav     V     C        15:03:55:09 15:03:58:15 01:12:31:10 01:12:34:16
*FROM CLIP NAME:  07-ROZA-250607_1503.wav
000542  08-HERO-250607_1503.wav     V     C        15:03:55:09 15:03:58:15 01:12:31:10 01:12:34:16
*FROM CLIP NAME:  08-HERO-250607_1503.wav
000543  36-PGM2_L-250607_1503.wav   V     C        15:03:55:09 15:04:01:07 01:12:34:16 01:12:40:14
*FROM CLIP NAME:  36-PGM2_L-250607_1503.wav
000544  06-LARA-250607_1503.wav     V     C        15:03:55:09 15:04:02:16 01:12:40:14 01:12:47:21
*FROM CLIP NAME:  06-LARA-250607_1503.wav
000545  35-PGM_R-250607_1503.wav    V     C        15:03:55:09 15:04:02:16 01:12:40:14 01:12:47:21
*FROM CLIP NAME:  35-PGM_R-250607_1503.wav
000546  34-PGM_L-250607_1503.wav    V     C        15:03:55:09 15:04:02:16 01:12:40:14 01:12:47:21
*FROM CLIP NAME:  34-PGM_L-250607_1503.wav
000547  40-MIX-LARA_R-250607_1503.  V     C        15:03:55:09 15:04:02:16 01:12:40:14 01:12:47:21
*FROM CLIP NAME:  40-MIX-LARA_R-250607_1503.wav
000548  07-ROZA-250607_1503.wav     V     C        15:03:55:09 15:04:02:16 01:12:40:14 01:12:47:21
*FROM CLIP NAME:  07-ROZA-250607_1503.wav
000549  39-MIX-LARA_L-250607_1503.  V     C        15:03:55:09 15:04:02:16 01:12:40:14 01:12:47:21
*FROM CLIP NAME:  39-MIX-LARA_L-250607_1503.wav
000550  08-HERO-250607_1503.wav     V     C        15:03:55:09 15:04:02:16 01:12:40:14 01:12:47:21
*FROM CLIP NAME:  08-HERO-250607_1503.wav
000551  34-PGM_L-250607_1503.wav    V     C        15:03:55:09 15:04:12:07 01:12:47:21 01:13:04:19
*FROM CLIP NAME:  34-PGM_L-250607_1503.wav
000552  40-MIX-LARA_R-250607_1503.  V     C        15:03:55:09 15:04:12:07 01:12:47:21 01:13:04:19
*FROM CLIP NAME:  40-MIX-LARA_R-250607_1503.wav
000553  39-MIX-LARA_L-250607_1503.  V     C        15:03:55:09 15:04:12:07 01:12:47:21 01:13:04:19
*FROM CLIP NAME:  39-MIX-LARA_L-250607_1503.wav
000554  07-ROZA-250607_1503.wav     V     C        15:03:55:09 15:04:12:07 01:12:47:21 01:13:04:19
*FROM CLIP NAME:  07-ROZA-250607_1503.wav
000555  08-HERO-250607_1503.wav     V     C        15:03:55:09 15:04:12:07 01:12:47:21 01:13:04:19
*FROM CLIP NAME:  08-HERO-250607_1503.wav
000556  35-PGM_R-250607_1503.wav    V     C        15:03:55:09 15:04:12:07 01:12:47:21 01:13:04:19
*FROM CLIP NAME:  35-PGM_R-250607_1503.wav
000557  06-LARA-250607_1503.wav     V     C        15:03:55:09 15:04:12:07 01:12:47:21 01:13:04:19
*FROM CLIP NAME:  06-LARA-250607_1503.wav
000558  34-PGM_L-250607_1503.wav    V     C        15:03:55:09 15:04:10:12 01:13:04:19 01:13:19:22
*FROM CLIP NAME:  34-PGM_L-250607_1503.wav
000559  06-LARA-250607_1503.wav     V     C        15:03:55:09 15:04:10:12 01:13:04:19 01:13:19:22
*FROM CLIP NAME:  06-LARA-250607_1503.wav
000560  40-MIX-LARA_R-250607_1503.  V     C        15:03:55:09 15:04:10:12 01:13:04:19 01:13:19:22
*FROM CLIP NAME:  40-MIX-LARA_R-250607_1503.wav
000561  39-MIX-LARA_L-250607_1503.  V     C        15:03:55:09 15:04:10:12 01:13:04:19 01:13:19:22
*FROM CLIP NAME:  39-MIX-LARA_L-250607_1503.wav
000562  07-ROZA-250607_1503.wav     V     C        15:03:55:09 15:04:10:12 01:13:04:19 01:13:19:22
*FROM CLIP NAME:  07-ROZA-250607_1503.wav
000563  35-PGM_R-250607_1503.wav    V     C        15:03:55:09 15:04:10:12 01:13:04:19 01:13:19:22
*FROM CLIP NAME:  35-PGM_R-250607_1503.wav
000564  08-HERO-250607_1503.wav     V     C        15:03:55:09 15:04:10:12 01:13:04:19 01:13:19:22
*FROM CLIP NAME:  08-HERO-250607_1503.wav
000565  08-HERO-250607_1503.wav     V     C        15:03:55:09 15:03:56:15 01:13:19:22 01:13:21:03
*FROM CLIP NAME:  08-HERO-250607_1503.wav
000566  34-PGM_L-250607_1503.wav    V     C        15:03:55:09 15:03:56:15 01:13:19:22 01:13:21:03
*FROM CLIP NAME:  34-PGM_L-250607_1503.wav
000567  35-PGM_R-250607_1503.wav    V     C        15:03:55:09 15:03:56:15 01:13:19:22 01:13:21:03
*FROM CLIP NAME:  35-PGM_R-250607_1503.wav
000568  07-ROZA-250607_1503.wav     V     C        15:03:55:09 15:03:56:15 01:13:19:22 01:13:21:03
*FROM CLIP NAME:  07-ROZA-250607_1503.wav
000569  39-MIX-LARA_L-250607_1503.  V     C        15:03:55:09 15:03:56:15 01:13:19:22 01:13:21:03
*FROM CLIP NAME:  39-MIX-LARA_L-250607_1503.wav
000570  40-MIX-LARA_R-250607_1503.  V     C        15:03:55:09 15:03:56:15 01:13:19:22 01:13:21:03
*FROM CLIP NAME:  40-MIX-LARA_R-250607_1503.wav
000571  06-LARA-250607_1503.wav     V     C        15:03:55:09 15:03:56:15 01:13:19:22 01:13:21:03
*FROM CLIP NAME:  06-LARA-250607_1503.wav
000572  36-PGM2_L-250607_1503.wav   V     C        15:03:55:09 15:04:03:16 01:13:21:03 01:13:29:10
*FROM CLIP NAME:  36-PGM2_L-250607_1503.wav
000573  40-MIX-LARA_R-250607_1503.  V     C        15:03:55:09 15:03:56:20 01:13:29:10 01:13:30:21
*FROM CLIP NAME:  40-MIX-LARA_R-250607_1503.wav
000574  06-LARA-250607_1503.wav     V     C        15:03:55:09 15:03:56:20 01:13:29:10 01:13:30:21
*FROM CLIP NAME:  06-LARA-250607_1503.wav
000575  39-MIX-LARA_L-250607_1503.  V     C        15:03:55:09 15:03:56:20 01:13:29:10 01:13:30:21
*FROM CLIP NAME:  39-MIX-LARA_L-250607_1503.wav
000576  08-HERO-250607_1503.wav     V     C        15:03:55:09 15:03:56:20 01:13:29:10 01:13:30:21
*FROM CLIP NAME:  08-HERO-250607_1503.wav
000577  35-PGM_R-250607_1503.wav    V     C        15:03:55:09 15:03:56:20 01:13:29:10 01:13:30:21
*FROM CLIP NAME:  35-PGM_R-250607_1503.wav
000578  07-ROZA-250607_1503.wav     V     C        15:03:55:09 15:03:56:20 01:13:29:10 01:13:30:21
*FROM CLIP NAME:  07-ROZA-250607_1503.wav
000579  34-PGM_L-250607_1503.wav    V     C        15:03:55:09 15:03:56:20 01:13:29:10 01:13:30:21
*FROM CLIP NAME:  34-PGM_L-250607_1503.wav
000580  40-MIX-LARA_R-250607_1503.  V     C        15:03:55:09 15:04:00:19 01:13:30:21 01:13:36:06
*FROM CLIP NAME:  40-MIX-LARA_R-250607_1503.wav
000581  35-PGM_R-250607_1503.wav    V     C        15:03:55:09 15:04:00:19 01:13:30:21 01:13:36:06
*FROM CLIP NAME:  35-PGM_R-250607_1503.wav
000582  06-LARA-250607_1503.wav     V     C        15:03:55:09 15:04:00:19 01:13:30:21 01:13:36:06
*FROM CLIP NAME:  06-LARA-250607_1503.wav
000583  39-MIX-LARA_L-250607_1503.  V     C        15:03:55:09 15:04:00:19 01:13:30:21 01:13:36:06
*FROM CLIP NAME:  39-MIX-LARA_L-250607_1503.wav
000584  34-PGM_L-250607_1503.wav    V     C        15:03:55:09 15:04:00:19 01:13:30:21 01:13:36:06
*FROM CLIP NAME:  34-PGM_L-250607_1503.wav
000585  08-HERO-250607_1503.wav     V     C        15:03:55:09 15:04:00:19 01:13:30:21 01:13:36:06
*FROM CLIP NAME:  08-HERO-250607_1503.wav
000586  07-ROZA-250607_1503.wav     V     C        15:03:55:09 15:04:00:19 01:13:30:21 01:13:36:06
*FROM CLIP NAME:  07-ROZA-250607_1503.wav
000587  40-MIX-LARA_R-250607_1503.  V     C        15:03:55:09 15:04:48:19 01:13:36:06 01:14:29:16
*FROM CLIP NAME:  40-MIX-LARA_R-250607_1503.wav
000588  06-LARA-250607_1503.wav     V     C        15:03:55:09 15:04:48:19 01:13:36:06 01:14:29:16
*FROM CLIP NAME:  06-LARA-250607_1503.wav
000589  39-MIX-LARA_L-250607_1503.  V     C        15:03:55:09 15:04:48:19 01:13:36:06 01:14:29:16
*FROM CLIP NAME:  39-MIX-LARA_L-250607_1503.wav
000590  34-PGM_L-250607_1503.wav    V     C        15:03:55:09 15:04:48:19 01:13:36:06 01:14:29:16
*FROM CLIP NAME:  34-PGM_L-250607_1503.wav
000591  07-ROZA-250607_1503.wav     V     C        15:03:55:09 15:04:48:19 01:13:36:06 01:14:29:16
*FROM CLIP NAME:  07-ROZA-250607_1503.wav
000592  08-HERO-250607_1503.wav     V     C        15:03:55:09 15:04:48:19 01:13:36:06 01:14:29:16
*FROM CLIP NAME:  08-HERO-250607_1503.wav
000593  35-PGM_R-250607_1503.wav    V     C        15:03:55:09 15:04:48:19 01:13:36:06 01:14:29:16
*FROM CLIP NAME:  35-PGM_R-250607_1503.wav
000594  DP_23026_20250618_Bezhanov  V     C        00:00:00:00 00:00:07:08 01:13:55:13 01:14:02:21
*FROM CLIP NAME:  DP_23026_20250618_Bezhanov-esv2-90p-bg-10p.wav
000595  11-1-250607_1503.wav        V     C        15:03:55:09 15:04:02:17 01:13:55:13 01:14:02:21
*FROM CLIP NAME:  11-1-250607_1503.wav
000596  06-LARA-250607_1503.wav     V     C        15:03:55:10 15:03:56:13 01:14:29:16 01:14:30:19
*FROM CLIP NAME:  06-LARA-250607_1503.wav
000597  34-PGM_L-250607_1503.wav    V     C        15:03:55:10 15:03:56:13 01:14:29:16 01:14:30:19
*FROM CLIP NAME:  34-PGM_L-250607_1503.wav
000598  39-MIX-LARA_L-250607_1503.  V     C        15:03:55:10 15:03:56:13 01:14:29:16 01:14:30:19
*FROM CLIP NAME:  39-MIX-LARA_L-250607_1503.wav
000599  08-HERO-250607_1503.wav     V     C        15:03:55:10 15:03:56:13 01:14:29:16 01:14:30:19
*FROM CLIP NAME:  08-HERO-250607_1503.wav
000600  40-MIX-LARA_R-250607_1503.  V     C        15:03:55:10 15:03:56:13 01:14:29:16 01:14:30:19
*FROM CLIP NAME:  40-MIX-LARA_R-250607_1503.wav
000601  07-ROZA-250607_1503.wav     V     C        15:03:55:10 15:03:56:13 01:14:29:16 01:14:30:19
*FROM CLIP NAME:  07-ROZA-250607_1503.wav
000602  35-PGM_R-250607_1503.wav    V     C        15:03:55:10 15:03:56:13 01:14:29:16 01:14:30:19
*FROM CLIP NAME:  35-PGM_R-250607_1503.wav
000603  36-PGM2_L-250607_1503.wav   V     C        15:03:55:09 15:04:06:08 01:14:30:19 01:14:41:18
*FROM CLIP NAME:  36-PGM2_L-250607_1503.wav
000604  06-LARA-250607_1503.wav     V     C        15:03:55:09 15:04:02:15 01:14:41:18 01:14:48:24
*FROM CLIP NAME:  06-LARA-250607_1503.wav
000605  35-PGM_R-250607_1503.wav    V     C        15:03:55:09 15:04:02:15 01:14:41:18 01:14:48:24
*FROM CLIP NAME:  35-PGM_R-250607_1503.wav
000606  07-ROZA-250607_1503.wav     V     C        15:03:55:09 15:04:02:15 01:14:41:18 01:14:48:24
*FROM CLIP NAME:  07-ROZA-250607_1503.wav
000607  34-PGM_L-250607_1503.wav    V     C        15:03:55:09 15:04:02:15 01:14:41:18 01:14:48:24
*FROM CLIP NAME:  34-PGM_L-250607_1503.wav
000608  39-MIX-LARA_L-250607_1503.  V     C        15:03:55:09 15:04:02:15 01:14:41:18 01:14:48:24
*FROM CLIP NAME:  39-MIX-LARA_L-250607_1503.wav
000609  08-HERO-250607_1503.wav     V     C        15:03:55:09 15:04:02:15 01:14:41:18 01:14:48:24
*FROM CLIP NAME:  08-HERO-250607_1503.wav
000610  40-MIX-LARA_R-250607_1503.  V     C        15:03:55:09 15:04:02:15 01:14:41:18 01:14:48:24
*FROM CLIP NAME:  40-MIX-LARA_R-250607_1503.wav
000611  06-LARA-250607_1503.wav     V     C        15:03:55:09 15:03:56:20 01:14:48:24 01:14:50:10
*FROM CLIP NAME:  06-LARA-250607_1503.wav
000612  08-HERO-250607_1503.wav     V     C        15:03:55:09 15:03:59:08 01:14:50:10 01:14:54:09
*FROM CLIP NAME:  08-HERO-250607_1503.wav
000613  35-PGM_R-250607_1503.wav    V     C        15:03:55:09 15:03:59:08 01:14:50:10 01:14:54:09
*FROM CLIP NAME:  35-PGM_R-250607_1503.wav
000614  06-LARA-250607_1503.wav     V     C        15:03:55:09 15:03:59:08 01:14:50:10 01:14:54:09
*FROM CLIP NAME:  06-LARA-250607_1503.wav
000615  39-MIX-LARA_L-250607_1503.  V     C        15:03:55:09 15:03:59:08 01:14:50:10 01:14:54:09
*FROM CLIP NAME:  39-MIX-LARA_L-250607_1503.wav
000616  34-PGM_L-250607_1503.wav    V     C        15:03:55:09 15:03:59:08 01:14:50:10 01:14:54:09
*FROM CLIP NAME:  34-PGM_L-250607_1503.wav
000617  07-ROZA-250607_1503.wav     V     C        15:03:55:09 15:03:59:08 01:14:50:10 01:14:54:09
*FROM CLIP NAME:  07-ROZA-250607_1503.wav
000618  40-MIX-LARA_R-250607_1503.  V     C        15:03:55:09 15:03:59:08 01:14:50:10 01:14:54:09
*FROM CLIP NAME:  40-MIX-LARA_R-250607_1503.wav
000619  34-PGM_L-250607_1503.wav    V     C        15:03:55:09 15:04:05:06 01:14:54:09 01:15:04:06
*FROM CLIP NAME:  34-PGM_L-250607_1503.wav
000620  40-MIX-LARA_R-250607_1503.  V     C        15:03:55:09 15:04:05:06 01:14:54:09 01:15:04:06
*FROM CLIP NAME:  40-MIX-LARA_R-250607_1503.wav
000621  07-ROZA-250607_1503.wav     V     C        15:03:55:09 15:04:05:06 01:14:54:09 01:15:04:06
*FROM CLIP NAME:  07-ROZA-250607_1503.wav
000622  35-PGM_R-250607_1503.wav    V     C        15:03:55:09 15:04:05:06 01:14:54:09 01:15:04:06
*FROM CLIP NAME:  35-PGM_R-250607_1503.wav
000623  39-MIX-LARA_L-250607_1503.  V     C        15:03:55:09 15:04:05:06 01:14:54:09 01:15:04:06
*FROM CLIP NAME:  39-MIX-LARA_L-250607_1503.wav
000624  08-HERO-250607_1503.wav     V     C        15:03:55:09 15:04:05:06 01:14:54:09 01:15:04:06
*FROM CLIP NAME:  08-HERO-250607_1503.wav
000625  06-LARA-250607_1503.wav     V     C        15:03:55:09 15:04:05:06 01:14:54:09 01:15:04:06
*FROM CLIP NAME:  06-LARA-250607_1503.wav
000626  11-1-250607_1503.wav        V     C        15:03:55:09 15:03:59:01 01:15:04:06 01:15:07:23
*FROM CLIP NAME:  11-1-250607_1503.wav
000627  07-ROZA-250607_1503.wav     V     C        15:03:55:09 15:03:59:13 01:15:04:06 01:15:08:10
*FROM CLIP NAME:  07-ROZA-250607_1503.wav
000628  06-LARA-250607_1503.wav     V     C        15:03:55:09 15:04:04:19 01:15:04:06 01:15:13:16
*FROM CLIP NAME:  06-LARA-250607_1503.wav
000629  07-ROZA-250607_1503.wav     V     C        15:03:55:09 15:04:05:23 01:15:13:16 01:15:24:05
*FROM CLIP NAME:  07-ROZA-250607_1503.wav
000630  40-MIX-LARA_R-250607_1503.  V     C        15:03:55:09 15:04:05:23 01:15:13:16 01:15:24:05
*FROM CLIP NAME:  40-MIX-LARA_R-250607_1503.wav
000631  39-MIX-LARA_L-250607_1503.  V     C        15:03:55:09 15:04:05:23 01:15:13:16 01:15:24:05
*FROM CLIP NAME:  39-MIX-LARA_L-250607_1503.wav
000632  08-HERO-250607_1503.wav     V     C        15:03:55:09 15:04:05:23 01:15:13:16 01:15:24:05
*FROM CLIP NAME:  08-HERO-250607_1503.wav
000633  35-PGM_R-250607_1503.wav    V     C        15:03:55:09 15:04:05:23 01:15:13:16 01:15:24:05
*FROM CLIP NAME:  35-PGM_R-250607_1503.wav
000634  34-PGM_L-250607_1503.wav    V     C        15:03:55:09 15:04:05:23 01:15:13:16 01:15:24:05
*FROM CLIP NAME:  34-PGM_L-250607_1503.wav
000635  06-LARA-250607_1503.wav     V     C        15:03:55:09 15:04:05:23 01:15:13:16 01:15:24:05
*FROM CLIP NAME:  06-LARA-250607_1503.wav
000636  40-MIX-LARA_R-250607_1503.  V     C        15:03:55:09 15:04:10:16 01:15:24:05 01:15:39:12
*FROM CLIP NAME:  40-MIX-LARA_R-250607_1503.wav
000637  08-HERO-250607_1503.wav     V     C        15:03:55:09 15:04:10:16 01:15:24:05 01:15:39:12
*FROM CLIP NAME:  08-HERO-250607_1503.wav
000638  39-MIX-LARA_L-250607_1503.  V     C        15:03:55:09 15:04:10:16 01:15:24:05 01:15:39:12
*FROM CLIP NAME:  39-MIX-LARA_L-250607_1503.wav
000639  07-ROZA-250607_1503.wav     V     C        15:03:55:09 15:04:10:16 01:15:24:05 01:15:39:12
*FROM CLIP NAME:  07-ROZA-250607_1503.wav
000640  35-PGM_R-250607_1503.wav    V     C        15:03:55:09 15:04:10:16 01:15:24:05 01:15:39:12
*FROM CLIP NAME:  35-PGM_R-250607_1503.wav
000641  34-PGM_L-250607_1503.wav    V     C        15:03:55:09 15:04:10:16 01:15:24:05 01:15:39:12
*FROM CLIP NAME:  34-PGM_L-250607_1503.wav
000642  06-LARA-250607_1503.wav     V     C        15:03:55:09 15:04:10:16 01:15:24:05 01:15:39:12
*FROM CLIP NAME:  06-LARA-250607_1503.wav
000643  36-PGM2_L-250607_1503.wav   V     C        15:03:55:09 15:04:11:08 01:15:39:12 01:15:55:11
*FROM CLIP NAME:  36-PGM2_L-250607_1503.wav
000644  07-ROZA-250607_1503.wav     V     C        15:03:55:09 15:03:58:06 01:15:55:11 01:15:58:08
*FROM CLIP NAME:  07-ROZA-250607_1503.wav
000645  06-LARA-250607_1503.wav     V     C        15:03:55:09 15:03:58:06 01:15:55:11 01:15:58:08
*FROM CLIP NAME:  06-LARA-250607_1503.wav
000646  40-MIX-LARA_R-250607_1503.  V     C        15:03:55:09 15:03:58:06 01:15:55:11 01:15:58:08
*FROM CLIP NAME:  40-MIX-LARA_R-250607_1503.wav
000647  08-HERO-250607_1503.wav     V     C        15:03:55:09 15:03:58:06 01:15:55:11 01:15:58:08
*FROM CLIP NAME:  08-HERO-250607_1503.wav
000648  35-PGM_R-250607_1503.wav    V     C        15:03:55:09 15:03:58:06 01:15:55:11 01:15:58:08
*FROM CLIP NAME:  35-PGM_R-250607_1503.wav
000649  39-MIX-LARA_L-250607_1503.  V     C        15:03:55:09 15:03:58:06 01:15:55:11 01:15:58:08
*FROM CLIP NAME:  39-MIX-LARA_L-250607_1503.wav
000650  34-PGM_L-250607_1503.wav    V     C        15:03:55:09 15:03:58:06 01:15:55:11 01:15:58:08
*FROM CLIP NAME:  34-PGM_L-250607_1503.wav
000651  06-LARA-250607_1503.wav     V     C        15:03:55:09 15:04:13:21 01:15:58:08 01:16:16:20
*FROM CLIP NAME:  06-LARA-250607_1503.wav
000652  40-MIX-LARA_R-250607_1503.  V     C        15:03:55:09 15:04:13:21 01:15:58:08 01:16:16:20
*FROM CLIP NAME:  40-MIX-LARA_R-250607_1503.wav
000653  08-HERO-250607_1503.wav     V     C        15:03:55:09 15:04:13:21 01:15:58:08 01:16:16:20
*FROM CLIP NAME:  08-HERO-250607_1503.wav
000654  35-PGM_R-250607_1503.wav    V     C        15:03:55:09 15:04:13:21 01:15:58:08 01:16:16:20
*FROM CLIP NAME:  35-PGM_R-250607_1503.wav
000655  07-ROZA-250607_1503.wav     V     C        15:03:55:09 15:04:13:21 01:15:58:08 01:16:16:20
*FROM CLIP NAME:  07-ROZA-250607_1503.wav
000656  39-MIX-LARA_L-250607_1503.  V     C        15:03:55:09 15:04:13:21 01:15:58:08 01:16:16:20
*FROM CLIP NAME:  39-MIX-LARA_L-250607_1503.wav
000657  34-PGM_L-250607_1503.wav    V     C        15:03:55:09 15:04:13:21 01:15:58:08 01:16:16:20
*FROM CLIP NAME:  34-PGM_L-250607_1503.wav
000658  40-MIX-LARA_R-250607_1503.  V     C        15:03:55:09 15:04:08:04 01:16:16:20 01:16:29:15
*FROM CLIP NAME:  40-MIX-LARA_R-250607_1503.wav
000659  08-HERO-250607_1503.wav     V     C        15:03:55:09 15:04:08:04 01:16:16:20 01:16:29:15
*FROM CLIP NAME:  08-HERO-250607_1503.wav
000660  39-MIX-LARA_L-250607_1503.  V     C        15:03:55:09 15:04:08:04 01:16:16:20 01:16:29:15
*FROM CLIP NAME:  39-MIX-LARA_L-250607_1503.wav
000661  35-PGM_R-250607_1503.wav    V     C        15:03:55:09 15:04:08:04 01:16:16:20 01:16:29:15
*FROM CLIP NAME:  35-PGM_R-250607_1503.wav
000662  06-LARA-250607_1503.wav     V     C        15:03:55:09 15:04:08:04 01:16:16:20 01:16:29:15
*FROM CLIP NAME:  06-LARA-250607_1503.wav
000663  34-PGM_L-250607_1503.wav    V     C        15:03:55:09 15:04:08:04 01:16:16:20 01:16:29:15
*FROM CLIP NAME:  34-PGM_L-250607_1503.wav
000664  07-ROZA-250607_1503.wav     V     C        15:03:55:09 15:04:08:04 01:16:16:20 01:16:29:15
*FROM CLIP NAME:  07-ROZA-250607_1503.wav
000665  39-MIX-LARA_L-250607_1503.  V     C        15:03:55:09 15:03:56:01 01:16:29:15 01:16:30:07
*FROM CLIP NAME:  39-MIX-LARA_L-250607_1503.wav
000666  40-MIX-LARA_R-250607_1503.  V     C        15:03:55:09 15:03:56:01 01:16:29:15 01:16:30:07
*FROM CLIP NAME:  40-MIX-LARA_R-250607_1503.wav
000667  35-PGM_R-250607_1503.wav    V     C        15:03:55:09 15:03:56:01 01:16:29:15 01:16:30:07
*FROM CLIP NAME:  35-PGM_R-250607_1503.wav
000668  06-LARA-250607_1503.wav     V     C        15:03:55:09 15:03:56:01 01:16:29:15 01:16:30:07
*FROM CLIP NAME:  06-LARA-250607_1503.wav
000669  07-ROZA-250607_1503.wav     V     C        15:03:55:09 15:03:56:01 01:16:29:15 01:16:30:07
*FROM CLIP NAME:  07-ROZA-250607_1503.wav
000670  34-PGM_L-250607_1503.wav    V     C        15:03:55:09 15:03:56:01 01:16:29:15 01:16:30:07
*FROM CLIP NAME:  34-PGM_L-250607_1503.wav
000671  08-HERO-250607_1503.wav     V     C        15:03:55:09 15:03:56:01 01:16:29:15 01:16:30:07
*FROM CLIP NAME:  08-HERO-250607_1503.wav
000672  34-PGM_L-250607_1503.wav    V     C        15:03:55:09 15:04:07:20 01:16:30:07 01:16:42:18
*FROM CLIP NAME:  34-PGM_L-250607_1503.wav
000673  40-MIX-LARA_R-250607_1503.  V     C        15:03:55:09 15:04:07:20 01:16:30:07 01:16:42:18
*FROM CLIP NAME:  40-MIX-LARA_R-250607_1503.wav
000674  07-ROZA-250607_1503.wav     V     C        15:03:55:09 15:04:07:20 01:16:30:07 01:16:42:18
*FROM CLIP NAME:  07-ROZA-250607_1503.wav
000675  39-MIX-LARA_L-250607_1503.  V     C        15:03:55:09 15:04:07:20 01:16:30:07 01:16:42:18
*FROM CLIP NAME:  39-MIX-LARA_L-250607_1503.wav
000676  06-LARA-250607_1503.wav     V     C        15:03:55:09 15:04:07:20 01:16:30:07 01:16:42:18
*FROM CLIP NAME:  06-LARA-250607_1503.wav
000677  08-HERO-250607_1503.wav     V     C        15:03:55:09 15:04:07:20 01:16:30:07 01:16:42:18
*FROM CLIP NAME:  08-HERO-250607_1503.wav
000678  35-PGM_R-250607_1503.wav    V     C        15:03:55:09 15:04:07:20 01:16:30:07 01:16:42:18
*FROM CLIP NAME:  35-PGM_R-250607_1503.wav
000679  36-PGM2_L-250607_1503.wav   V     C        15:03:55:09 15:04:03:22 01:16:42:18 01:16:51:06
*FROM CLIP NAME:  36-PGM2_L-250607_1503.wav
000680  07-ROZA-250607_1503.wav     V     C        15:03:55:09 15:03:57:24 01:16:51:06 01:16:53:21
*FROM CLIP NAME:  07-ROZA-250607_1503.wav
000681  40-MIX-LARA_R-250607_1503.  V     C        15:03:55:09 15:03:57:24 01:16:51:06 01:16:53:21
*FROM CLIP NAME:  40-MIX-LARA_R-250607_1503.wav
000682  06-LARA-250607_1503.wav     V     C        15:03:55:09 15:03:57:24 01:16:51:06 01:16:53:21
*FROM CLIP NAME:  06-LARA-250607_1503.wav
000683  34-PGM_L-250607_1503.wav    V     C        15:03:55:09 15:03:57:24 01:16:51:06 01:16:53:21
*FROM CLIP NAME:  34-PGM_L-250607_1503.wav
000684  08-HERO-250607_1503.wav     V     C        15:03:55:09 15:03:57:24 01:16:51:06 01:16:53:21
*FROM CLIP NAME:  08-HERO-250607_1503.wav
000685  35-PGM_R-250607_1503.wav    V     C        15:03:55:09 15:03:57:24 01:16:51:06 01:16:53:21
*FROM CLIP NAME:  35-PGM_R-250607_1503.wav
000686  39-MIX-LARA_L-250607_1503.  V     C        15:03:55:09 15:03:57:24 01:16:51:06 01:16:53:21
*FROM CLIP NAME:  39-MIX-LARA_L-250607_1503.wav
000687  07-ROZA-250607_1503.wav     V     C        15:03:55:09 15:04:07:06 01:16:53:21 01:17:05:18
*FROM CLIP NAME:  07-ROZA-250607_1503.wav
000688  40-MIX-LARA_R-250607_1503.  V     C        15:03:55:09 15:04:07:06 01:16:53:21 01:17:05:18
*FROM CLIP NAME:  40-MIX-LARA_R-250607_1503.wav
000689  08-HERO-250607_1503.wav     V     C        15:03:55:09 15:04:07:06 01:16:53:21 01:17:05:18
*FROM CLIP NAME:  08-HERO-250607_1503.wav
000690  35-PGM_R-250607_1503.wav    V     C        15:03:55:09 15:04:07:06 01:16:53:21 01:17:05:18
*FROM CLIP NAME:  35-PGM_R-250607_1503.wav
000691  06-LARA-250607_1503.wav     V     C        15:03:55:09 15:04:07:06 01:16:53:21 01:17:05:18
*FROM CLIP NAME:  06-LARA-250607_1503.wav
000692  34-PGM_L-250607_1503.wav    V     C        15:03:55:09 15:04:07:06 01:16:53:21 01:17:05:18
*FROM CLIP NAME:  34-PGM_L-250607_1503.wav
000693  39-MIX-LARA_L-250607_1503.  V     C        15:03:55:09 15:04:07:06 01:16:53:21 01:17:05:18
*FROM CLIP NAME:  39-MIX-LARA_L-250607_1503.wav
000694  34-PGM_L-250607_1503.wav    V     C        15:03:55:09 15:03:59:06 01:17:05:18 01:17:09:15
*FROM CLIP NAME:  34-PGM_L-250607_1503.wav
000695  35-PGM_R-250607_1503.wav    V     C        15:03:55:09 15:03:59:06 01:17:05:18 01:17:09:15
*FROM CLIP NAME:  35-PGM_R-250607_1503.wav
000696  06-LARA-250607_1503.wav     V     C        15:03:55:09 15:03:59:06 01:17:05:18 01:17:09:15
*FROM CLIP NAME:  06-LARA-250607_1503.wav
000697  07-ROZA-250607_1503.wav     V     C        15:03:55:09 15:03:59:06 01:17:05:18 01:17:09:15
*FROM CLIP NAME:  07-ROZA-250607_1503.wav
000698  08-HERO-250607_1503.wav     V     C        15:03:55:09 15:03:59:06 01:17:05:18 01:17:09:15
*FROM CLIP NAME:  08-HERO-250607_1503.wav
000699  40-MIX-LARA_R-250607_1503.  V     C        15:03:55:09 15:03:59:06 01:17:05:18 01:17:09:15
*FROM CLIP NAME:  40-MIX-LARA_R-250607_1503.wav
000700  39-MIX-LARA_L-250607_1503.  V     C        15:03:55:09 15:03:59:06 01:17:05:18 01:17:09:15
*FROM CLIP NAME:  39-MIX-LARA_L-250607_1503.wav
000701  40-MIX-LARA_R-250607_1503.  V     C        15:03:55:09 15:04:09:19 01:17:09:15 01:17:24:00
*FROM CLIP NAME:  40-MIX-LARA_R-250607_1503.wav
000702  35-PGM_R-250607_1503.wav    V     C        15:03:55:09 15:04:09:19 01:17:09:15 01:17:24:00
*FROM CLIP NAME:  35-PGM_R-250607_1503.wav
000703  34-PGM_L-250607_1503.wav    V     C        15:03:55:09 15:04:09:19 01:17:09:15 01:17:24:00
*FROM CLIP NAME:  34-PGM_L-250607_1503.wav
000704  39-MIX-LARA_L-250607_1503.  V     C        15:03:55:09 15:04:09:19 01:17:09:15 01:17:24:00
*FROM CLIP NAME:  39-MIX-LARA_L-250607_1503.wav
000705  06-LARA-250607_1503.wav     V     C        15:03:55:09 15:04:09:19 01:17:09:15 01:17:24:00
*FROM CLIP NAME:  06-LARA-250607_1503.wav
000706  08-HERO-250607_1503.wav     V     C        15:03:55:09 15:04:09:19 01:17:09:15 01:17:24:00
*FROM CLIP NAME:  08-HERO-250607_1503.wav
000707  07-ROZA-250607_1503.wav     V     C        15:03:55:09 15:04:09:19 01:17:09:15 01:17:24:00
*FROM CLIP NAME:  07-ROZA-250607_1503.wav
000708  40-MIX-LARA_R-250607_1503.  V     C        15:03:55:09 15:04:00:23 01:17:24:00 01:17:29:14
*FROM CLIP NAME:  40-MIX-LARA_R-250607_1503.wav
000709  39-MIX-LARA_L-250607_1503.  V     C        15:03:55:09 15:04:00:23 01:17:24:00 01:17:29:14
*FROM CLIP NAME:  39-MIX-LARA_L-250607_1503.wav
000710  35-PGM_R-250607_1503.wav    V     C        15:03:55:09 15:04:00:23 01:17:24:00 01:17:29:14
*FROM CLIP NAME:  35-PGM_R-250607_1503.wav
000711  06-LARA-250607_1503.wav     V     C        15:03:55:09 15:04:00:23 01:17:24:00 01:17:29:14
*FROM CLIP NAME:  06-LARA-250607_1503.wav
000712  34-PGM_L-250607_1503.wav    V     C        15:03:55:09 15:04:00:23 01:17:24:00 01:17:29:14
*FROM CLIP NAME:  34-PGM_L-250607_1503.wav
000713  08-HERO-250607_1503.wav     V     C        15:03:55:09 15:04:00:23 01:17:24:00 01:17:29:14
*FROM CLIP NAME:  08-HERO-250607_1503.wav
000714  07-ROZA-250607_1503.wav     V     C        15:03:55:09 15:04:00:23 01:17:24:00 01:17:29:14
*FROM CLIP NAME:  07-ROZA-250607_1503.wav
000715  08-HERO-250607_1503.wav     V     C        15:03:55:09 15:03:56:17 01:17:29:14 01:17:30:22
*FROM CLIP NAME:  08-HERO-250607_1503.wav
000716  35-PGM_R-250607_1503.wav    V     C        15:03:55:09 15:03:56:17 01:17:29:14 01:17:30:22
*FROM CLIP NAME:  35-PGM_R-250607_1503.wav
000717  39-MIX-LARA_L-250607_1503.  V     C        15:03:55:09 15:03:56:17 01:17:29:14 01:17:30:22
*FROM CLIP NAME:  39-MIX-LARA_L-250607_1503.wav
000718  40-MIX-LARA_R-250607_1503.  V     C        15:03:55:09 15:03:56:17 01:17:29:14 01:17:30:22
*FROM CLIP NAME:  40-MIX-LARA_R-250607_1503.wav
000719  06-LARA-250607_1503.wav     V     C        15:03:55:09 15:03:56:17 01:17:29:14 01:17:30:22
*FROM CLIP NAME:  06-LARA-250607_1503.wav
000720  34-PGM_L-250607_1503.wav    V     C        15:03:55:09 15:03:56:17 01:17:29:14 01:17:30:22
*FROM CLIP NAME:  34-PGM_L-250607_1503.wav
000721  07-ROZA-250607_1503.wav     V     C        15:03:55:09 15:03:56:17 01:17:29:14 01:17:30:22
*FROM CLIP NAME:  07-ROZA-250607_1503.wav
000722  34-PGM_L-250607_1503.wav    V     C        15:03:55:09 15:04:01:10 01:17:30:22 01:17:36:23
*FROM CLIP NAME:  34-PGM_L-250607_1503.wav
000723  08-HERO-250607_1503.wav     V     C        15:03:55:09 15:04:01:10 01:17:30:22 01:17:36:23
*FROM CLIP NAME:  08-HERO-250607_1503.wav
000724  35-PGM_R-250607_1503.wav    V     C        15:03:55:09 15:04:01:10 01:17:30:22 01:17:36:23
*FROM CLIP NAME:  35-PGM_R-250607_1503.wav
000725  39-MIX-LARA_L-250607_1503.  V     C        15:03:55:09 15:04:01:10 01:17:30:22 01:17:36:23
*FROM CLIP NAME:  39-MIX-LARA_L-250607_1503.wav
000726  40-MIX-LARA_R-250607_1503.  V     C        15:03:55:09 15:04:01:10 01:17:30:22 01:17:36:23
*FROM CLIP NAME:  40-MIX-LARA_R-250607_1503.wav
000727  06-LARA-250607_1503.wav     V     C        15:03:55:09 15:04:01:10 01:17:30:22 01:17:36:23
*FROM CLIP NAME:  06-LARA-250607_1503.wav
000728  07-ROZA-250607_1503.wav     V     C        15:03:55:09 15:04:01:10 01:17:30:22 01:17:36:23
*FROM CLIP NAME:  07-ROZA-250607_1503.wav
000729  36-PGM2_L-250607_1503.wav   V     C        15:03:55:09 15:04:05:01 01:17:36:23 01:17:46:15
*FROM CLIP NAME:  36-PGM2_L-250607_1503.wav
000730  35-PGM_R-250607_1503.wav    V     C        15:03:55:09 15:04:03:12 01:17:46:15 01:17:54:18
*FROM CLIP NAME:  35-PGM_R-250607_1503.wav
000731  39-MIX-LARA_L-250607_1503.  V     C        15:03:55:09 15:04:03:12 01:17:46:15 01:17:54:18
*FROM CLIP NAME:  39-MIX-LARA_L-250607_1503.wav
000732  34-PGM_L-250607_1503.wav    V     C        15:03:55:09 15:04:03:12 01:17:46:15 01:17:54:18
*FROM CLIP NAME:  34-PGM_L-250607_1503.wav
000733  08-HERO-250607_1503.wav     V     C        15:03:55:09 15:04:03:12 01:17:46:15 01:17:54:18
*FROM CLIP NAME:  08-HERO-250607_1503.wav
000734  07-ROZA-250607_1503.wav     V     C        15:03:55:09 15:04:03:12 01:17:46:15 01:17:54:18
*FROM CLIP NAME:  07-ROZA-250607_1503.wav
000735  40-MIX-LARA_R-250607_1503.  V     C        15:03:55:09 15:04:03:12 01:17:46:15 01:17:54:18
*FROM CLIP NAME:  40-MIX-LARA_R-250607_1503.wav
000736  06-LARA-250607_1503.wav     V     C        15:03:55:09 15:04:03:12 01:17:46:15 01:17:54:18
*FROM CLIP NAME:  06-LARA-250607_1503.wav
000737  08-HERO-250607_1503.wav     V     C        15:03:55:09 15:04:08:14 01:17:54:18 01:18:07:23
*FROM CLIP NAME:  08-HERO-250607_1503.wav
000738  34-PGM_L-250607_1503.wav    V     C        15:03:55:09 15:04:08:14 01:17:54:18 01:18:07:23
*FROM CLIP NAME:  34-PGM_L-250607_1503.wav
000739  39-MIX-LARA_L-250607_1503.  V     C        15:03:55:09 15:04:08:14 01:17:54:18 01:18:07:23
*FROM CLIP NAME:  39-MIX-LARA_L-250607_1503.wav
000740  40-MIX-LARA_R-250607_1503.  V     C        15:03:55:09 15:04:08:14 01:17:54:18 01:18:07:23
*FROM CLIP NAME:  40-MIX-LARA_R-250607_1503.wav
000741  06-LARA-250607_1503.wav     V     C        15:03:55:09 15:04:08:14 01:17:54:18 01:18:07:23
*FROM CLIP NAME:  06-LARA-250607_1503.wav
000742  07-ROZA-250607_1503.wav     V     C        15:03:55:09 15:04:08:14 01:17:54:18 01:18:07:23
*FROM CLIP NAME:  07-ROZA-250607_1503.wav
000743  35-PGM_R-250607_1503.wav    V     C        15:03:55:09 15:04:08:14 01:17:54:18 01:18:07:23
*FROM CLIP NAME:  35-PGM_R-250607_1503.wav
000744  07-ROZA-250607_1503.wav     V     C        15:03:55:09 15:04:20:23 01:18:07:23 01:18:33:12
*FROM CLIP NAME:  07-ROZA-250607_1503.wav
000745  34-PGM_L-250607_1503.wav    V     C        15:03:55:09 15:04:20:23 01:18:07:23 01:18:33:12
*FROM CLIP NAME:  34-PGM_L-250607_1503.wav
000746  08-HERO-250607_1503.wav     V     C        15:03:55:09 15:04:20:23 01:18:07:23 01:18:33:12
*FROM CLIP NAME:  08-HERO-250607_1503.wav
000747  39-MIX-LARA_L-250607_1503.  V     C        15:03:55:09 15:04:20:23 01:18:07:23 01:18:33:12
*FROM CLIP NAME:  39-MIX-LARA_L-250607_1503.wav
000748  40-MIX-LARA_R-250607_1503.  V     C        15:03:55:09 15:04:20:23 01:18:07:23 01:18:33:12
*FROM CLIP NAME:  40-MIX-LARA_R-250607_1503.wav
000749  35-PGM_R-250607_1503.wav    V     C        15:03:55:09 15:04:20:23 01:18:07:23 01:18:33:12
*FROM CLIP NAME:  35-PGM_R-250607_1503.wav
000750  06-LARA-250607_1503.wav     V     C        15:03:55:09 15:04:20:23 01:18:07:23 01:18:33:12
*FROM CLIP NAME:  06-LARA-250607_1503.wav
000751  36-PGM2_L-250607_1503.wav   V     C        15:03:55:09 15:04:01:06 01:18:33:12 01:18:39:09
*FROM CLIP NAME:  36-PGM2_L-250607_1503.wav
000752  34-PGM_L-250607_1503.wav    V     C        15:03:55:09 15:04:45:06 01:18:39:09 01:19:29:06
*FROM CLIP NAME:  34-PGM_L-250607_1503.wav
000753  39-MIX-LARA_L-250607_1503.  V     C        15:03:55:09 15:04:45:06 01:18:39:09 01:19:29:06
*FROM CLIP NAME:  39-MIX-LARA_L-250607_1503.wav
000754  08-HERO-250607_1503.wav     V     C        15:03:55:09 15:04:45:06 01:18:39:09 01:19:29:06
*FROM CLIP NAME:  08-HERO-250607_1503.wav
000755  35-PGM_R-250607_1503.wav    V     C        15:03:55:09 15:04:45:06 01:18:39:09 01:19:29:06
*FROM CLIP NAME:  35-PGM_R-250607_1503.wav
000756  06-LARA-250607_1503.wav     V     C        15:03:55:09 15:04:45:06 01:18:39:09 01:19:29:06
*FROM CLIP NAME:  06-LARA-250607_1503.wav
000757  40-MIX-LARA_R-250607_1503.  V     C        15:03:55:09 15:04:45:06 01:18:39:09 01:19:29:06
*FROM CLIP NAME:  40-MIX-LARA_R-250607_1503.wav
000758  07-ROZA-250607_1503.wav     V     C        15:03:55:09 15:04:45:06 01:18:39:09 01:19:29:06
*FROM CLIP NAME:  07-ROZA-250607_1503.wav
000759  36-PGM2_L-250607_1503.wav   V     C        15:03:55:09 15:03:59:18 01:19:29:06 01:19:33:15
*FROM CLIP NAME:  36-PGM2_L-250607_1503.wav
000760  08-HERO-250607_1503.wav     V     C        15:03:55:09 15:04:06:04 01:19:33:15 01:19:44:10
*FROM CLIP NAME:  08-HERO-250607_1503.wav
000761  06-LARA-250607_1503.wav     V     C        15:03:55:09 15:04:06:04 01:19:33:15 01:19:44:10
*FROM CLIP NAME:  06-LARA-250607_1503.wav
000762  07-ROZA-250607_1503.wav     V     C        15:03:55:09 15:04:06:04 01:19:33:15 01:19:44:10
*FROM CLIP NAME:  07-ROZA-250607_1503.wav
000763  39-MIX-LARA_L-250607_1503.  V     C        15:03:55:09 15:04:06:04 01:19:33:15 01:19:44:10
*FROM CLIP NAME:  39-MIX-LARA_L-250607_1503.wav
000764  35-PGM_R-250607_1503.wav    V     C        15:03:55:09 15:04:06:04 01:19:33:15 01:19:44:10
*FROM CLIP NAME:  35-PGM_R-250607_1503.wav
000765  40-MIX-LARA_R-250607_1503.  V     C        15:03:55:09 15:04:06:04 01:19:33:15 01:19:44:10
*FROM CLIP NAME:  40-MIX-LARA_R-250607_1503.wav
000766  34-PGM_L-250607_1503.wav    V     C        15:03:55:09 15:04:06:04 01:19:33:15 01:19:44:10
*FROM CLIP NAME:  34-PGM_L-250607_1503.wav
000767  36-PGM2_L-250607_1503.wav   V     C        15:03:55:09 15:04:12:15 01:19:44:10 01:20:01:16
*FROM CLIP NAME:  36-PGM2_L-250607_1503.wav
000768  Ozon_O_Rasprodaga_2_TVC_10  V     C        00:00:00:00 00:00:10:00 01:20:01:16 01:20:11:16
*FROM CLIP NAME:  Ozon_O_Rasprodaga_2_TVC_10s_SponsorProg_250606_HD.mxf_R
000769  Ozon_O_Rasprodaga_2_TVC_10  V     C        00:00:00:00 00:00:10:00 01:20:01:16 01:20:11:16
*FROM CLIP NAME:  Ozon_O_Rasprodaga_2_TVC_10s_SponsorProg_250606_HD.mxf_L
000770  Pereb_in_3s_DP_2023.mov_L   V     C        00:00:00:00 00:00:03:00 01:20:11:16 01:20:14:16
*FROM CLIP NAME:  Pereb_in_3s_DP_2023.mov_L
000771  Pereb_in_3s_DP_2023.mov_R   V     C        00:00:00:00 00:00:03:00 01:20:11:16 01:20:14:16
*FROM CLIP NAME:  Pereb_in_3s_DP_2023.mov_R
000772  Pereb_out_3s_DP_2023.mov_R  V     C        00:00:00:00 00:00:03:00 01:20:14:16 01:20:17:16
*FROM CLIP NAME:  Pereb_out_3s_DP_2023.mov_R
000773  Pereb_out_3s_DP_2023.mov_L  V     C        00:00:00:00 00:00:03:00 01:20:14:16 01:20:17:16
*FROM CLIP NAME:  Pereb_out_3s_DP_2023.mov_L
000774  06-LARA-250607_1503.wav     V     C        15:03:55:09 15:03:56:18 01:20:17:16 01:20:19:00
*FROM CLIP NAME:  06-LARA-250607_1503.wav
000775  39-MIX-LARA_L-250607_1503.  V     C        15:03:55:09 15:03:56:18 01:20:17:16 01:20:19:00
*FROM CLIP NAME:  39-MIX-LARA_L-250607_1503.wav
000776  07-ROZA-250607_1503.wav     V     C        15:03:55:09 15:03:56:18 01:20:17:16 01:20:19:00
*FROM CLIP NAME:  07-ROZA-250607_1503.wav
000777  40-MIX-LARA_R-250607_1503.  V     C        15:03:55:09 15:03:56:18 01:20:17:16 01:20:19:00
*FROM CLIP NAME:  40-MIX-LARA_R-250607_1503.wav
000778  35-PGM_R-250607_1503.wav    V     C        15:03:55:09 15:03:56:18 01:20:17:16 01:20:19:00
*FROM CLIP NAME:  35-PGM_R-250607_1503.wav
000779  08-HERO-250607_1503.wav     V     C        15:03:55:09 15:03:56:18 01:20:17:16 01:20:19:00
*FROM CLIP NAME:  08-HERO-250607_1503.wav
000780  34-PGM_L-250607_1503.wav    V     C        15:03:55:09 15:03:56:18 01:20:17:16 01:20:19:00
*FROM CLIP NAME:  34-PGM_L-250607_1503.wav
000781  __ZNAKOMSTVO___Heartbeat.w  V     C        00:00:00:00 00:00:22:13 01:20:18:14 01:20:41:02
*FROM CLIP NAME:  __ZNAKOMSTVO___Heartbeat.wav_R
000782  __ZNAKOMSTVO___Heartbeat.w  V     C        00:00:00:00 00:00:22:13 01:20:18:14 01:20:41:02
*FROM CLIP NAME:  __ZNAKOMSTVO___Heartbeat.wav_L
000783  08-HERO-250607_1503.wav     V     C        15:03:55:09 15:04:05:19 01:20:19:00 01:20:29:10
*FROM CLIP NAME:  08-HERO-250607_1503.wav
000784  35-PGM_R-250607_1503.wav    V     C        15:03:55:09 15:04:05:19 01:20:19:00 01:20:29:10
*FROM CLIP NAME:  35-PGM_R-250607_1503.wav
000785  34-PGM_L-250607_1503.wav    V     C        15:03:55:09 15:04:05:19 01:20:19:00 01:20:29:10
*FROM CLIP NAME:  34-PGM_L-250607_1503.wav
000786  39-MIX-LARA_L-250607_1503.  V     C        15:03:55:09 15:04:05:19 01:20:19:00 01:20:29:10
*FROM CLIP NAME:  39-MIX-LARA_L-250607_1503.wav
000787  06-LARA-250607_1503.wav     V     C        15:03:55:09 15:04:05:19 01:20:19:00 01:20:29:10
*FROM CLIP NAME:  06-LARA-250607_1503.wav
000788  40-MIX-LARA_R-250607_1503.  V     C        15:03:55:09 15:04:05:19 01:20:19:00 01:20:29:10
*FROM CLIP NAME:  40-MIX-LARA_R-250607_1503.wav
000789  07-ROZA-250607_1503.wav     V     C        15:03:55:09 15:04:05:19 01:20:19:00 01:20:29:10
*FROM CLIP NAME:  07-ROZA-250607_1503.wav
000790  __ZNAKOMSTVO__Suspence.wav  V     C        00:00:00:00 00:00:13:11 01:20:19:00 01:20:32:11
*FROM CLIP NAME:  __ZNAKOMSTVO__Suspence.wav_R
000791  __ZNAKOMSTVO__Suspence.wav  V     C        00:00:00:00 00:00:13:11 01:20:19:00 01:20:32:11
*FROM CLIP NAME:  __ZNAKOMSTVO__Suspence.wav_L
000792  35-PGM_R-250607_1503.wav    V     C        15:03:55:09 15:04:19:23 01:20:29:10 01:20:53:24
*FROM CLIP NAME:  35-PGM_R-250607_1503.wav
000793  07-ROZA-250607_1503.wav     V     C        15:03:55:09 15:04:19:23 01:20:29:10 01:20:53:24
*FROM CLIP NAME:  07-ROZA-250607_1503.wav
000794  40-MIX-LARA_R-250607_1503.  V     C        15:03:55:09 15:04:19:23 01:20:29:10 01:20:53:24
*FROM CLIP NAME:  40-MIX-LARA_R-250607_1503.wav
000795  08-HERO-250607_1503.wav     V     C        15:03:55:09 15:04:19:23 01:20:29:10 01:20:53:24
*FROM CLIP NAME:  08-HERO-250607_1503.wav
000796  39-MIX-LARA_L-250607_1503.  V     C        15:03:55:09 15:04:19:23 01:20:29:10 01:20:53:24
*FROM CLIP NAME:  39-MIX-LARA_L-250607_1503.wav
000797  34-PGM_L-250607_1503.wav    V     C        15:03:55:09 15:04:19:23 01:20:29:10 01:20:53:24
*FROM CLIP NAME:  34-PGM_L-250607_1503.wav
000798  06-LARA-250607_1503.wav     V     C        15:03:55:09 15:04:19:23 01:20:29:10 01:20:53:24
*FROM CLIP NAME:  06-LARA-250607_1503.wav
000799  Apollo_BAK_32_5__Non-Stop_  V     C        00:00:00:18 00:00:27:14 01:20:53:06 01:21:20:02
*FROM CLIP NAME:  Apollo_BAK_32_5__Non-Stop__Devon-May-Kai-Irving-Matt-Lawrence.mp3_L
000800  Apollo_BAK_32_5__Non-Stop_  V     C        00:00:00:18 00:00:27:14 01:20:53:06 01:21:20:02
*FROM CLIP NAME:  Apollo_BAK_32_5__Non-Stop__Devon-May-Kai-Irving-Matt-Lawrence.mp3_R
000801  40-MIX-LARA_R-250607_1503.  V     C        15:03:55:09 15:04:10:02 01:20:53:24 01:21:08:17
*FROM CLIP NAME:  40-MIX-LARA_R-250607_1503.wav
000802  07-ROZA-250607_1503.wav     V     C        15:03:55:09 15:04:10:02 01:20:53:24 01:21:08:17
*FROM CLIP NAME:  07-ROZA-250607_1503.wav
000803  06-LARA-250607_1503.wav     V     C        15:03:55:09 15:04:10:02 01:20:53:24 01:21:08:17
*FROM CLIP NAME:  06-LARA-250607_1503.wav
000804  34-PGM_L-250607_1503.wav    V     C        15:03:55:09 15:04:10:02 01:20:53:24 01:21:08:17
*FROM CLIP NAME:  34-PGM_L-250607_1503.wav
000805  39-MIX-LARA_L-250607_1503.  V     C        15:03:55:09 15:04:10:02 01:20:53:24 01:21:08:17
*FROM CLIP NAME:  39-MIX-LARA_L-250607_1503.wav
000806  35-PGM_R-250607_1503.wav    V     C        15:03:55:09 15:04:10:02 01:20:53:24 01:21:08:17
*FROM CLIP NAME:  35-PGM_R-250607_1503.wav
000807  08-HERO-250607_1503.wav     V     C        15:03:55:09 15:04:10:02 01:20:53:24 01:21:08:17
*FROM CLIP NAME:  08-HERO-250607_1503.wav
000808  134935__ztrees1__whoosh.wa  V     C        00:07:31:01 00:07:32:08 01:21:04:23 01:21:06:05
*FROM CLIP NAME:  134935__ztrees1__whoosh.wav_L
000809  134935__ztrees1__whoosh.wa  V     C        00:07:31:01 00:07:32:08 01:21:04:23 01:21:06:05
*FROM CLIP NAME:  134935__ztrees1__whoosh.wav_R
000810  35-PGM_R-250607_1503.wav    V     C        15:03:55:09 15:04:07:04 01:21:08:17 01:21:20:12
*FROM CLIP NAME:  35-PGM_R-250607_1503.wav
000811  34-PGM_L-250607_1503.wav    V     C        15:03:55:09 15:04:07:04 01:21:08:17 01:21:20:12
*FROM CLIP NAME:  34-PGM_L-250607_1503.wav
000812  39-MIX-LARA_L-250607_1503.  V     C        15:03:55:09 15:04:07:04 01:21:08:17 01:21:20:12
*FROM CLIP NAME:  39-MIX-LARA_L-250607_1503.wav
000813  40-MIX-LARA_R-250607_1503.  V     C        15:03:55:09 15:04:07:04 01:21:08:17 01:21:20:12
*FROM CLIP NAME:  40-MIX-LARA_R-250607_1503.wav
000814  08-HERO-250607_1503.wav     V     C        15:03:55:09 15:04:07:04 01:21:08:17 01:21:20:12
*FROM CLIP NAME:  08-HERO-250607_1503.wav
000815  07-ROZA-250607_1503.wav     V     C        15:03:55:09 15:04:07:04 01:21:08:17 01:21:20:12
*FROM CLIP NAME:  07-ROZA-250607_1503.wav
000816  06-LARA-250607_1503.wav     V     C        15:03:55:09 15:04:07:04 01:21:08:17 01:21:20:12
*FROM CLIP NAME:  06-LARA-250607_1503.wav
000817  36-PGM2_L-250607_1503.wav   V     C        15:03:55:09 15:04:00:05 01:21:20:12 01:21:25:08
*FROM CLIP NAME:  36-PGM2_L-250607_1503.wav
000818  06-LARA-250607_1503.wav     V     C        15:03:55:09 15:03:57:24 01:21:25:08 01:21:27:23
*FROM CLIP NAME:  06-LARA-250607_1503.wav
000819  40-MIX-LARA_R-250607_1503.  V     C        15:03:55:09 15:04:09:15 01:21:27:23 01:21:42:04
*FROM CLIP NAME:  40-MIX-LARA_R-250607_1503.wav
000820  34-PGM_L-250607_1503.wav    V     C        15:03:55:09 15:04:09:15 01:21:27:23 01:21:42:04
*FROM CLIP NAME:  34-PGM_L-250607_1503.wav
000821  06-LARA-250607_1503.wav     V     C        15:03:55:09 15:04:09:15 01:21:27:23 01:21:42:04
*FROM CLIP NAME:  06-LARA-250607_1503.wav
000822  39-MIX-LARA_L-250607_1503.  V     C        15:03:55:09 15:04:09:15 01:21:27:23 01:21:42:04
*FROM CLIP NAME:  39-MIX-LARA_L-250607_1503.wav
000823  07-ROZA-250607_1503.wav     V     C        15:03:55:09 15:04:09:15 01:21:27:23 01:21:42:04
*FROM CLIP NAME:  07-ROZA-250607_1503.wav
000824  35-PGM_R-250607_1503.wav    V     C        15:03:55:09 15:04:09:15 01:21:27:23 01:21:42:04
*FROM CLIP NAME:  35-PGM_R-250607_1503.wav
000825  08-HERO-250607_1503.wav     V     C        15:03:55:09 15:04:09:15 01:21:27:23 01:21:42:04
*FROM CLIP NAME:  08-HERO-250607_1503.wav
000826  36-PGM2_L-250607_1503.wav   V     C        15:03:55:09 15:04:03:11 01:21:42:04 01:21:50:06
*FROM CLIP NAME:  36-PGM2_L-250607_1503.wav
000827  06-LARA-250607_1503.wav     V     C        15:03:55:09 15:03:57:24 01:21:50:06 01:21:52:21
*FROM CLIP NAME:  06-LARA-250607_1503.wav
000828  35-PGM_R-250607_1503.wav    V     C        15:03:55:09 15:03:57:24 01:21:50:06 01:21:52:21
*FROM CLIP NAME:  35-PGM_R-250607_1503.wav
000829  39-MIX-LARA_L-250607_1503.  V     C        15:03:55:09 15:03:57:24 01:21:50:06 01:21:52:21
*FROM CLIP NAME:  39-MIX-LARA_L-250607_1503.wav
000830  40-MIX-LARA_R-250607_1503.  V     C        15:03:55:09 15:03:57:24 01:21:50:06 01:21:52:21
*FROM CLIP NAME:  40-MIX-LARA_R-250607_1503.wav
000831  08-HERO-250607_1503.wav     V     C        15:03:55:09 15:03:57:24 01:21:50:06 01:21:52:21
*FROM CLIP NAME:  08-HERO-250607_1503.wav
000832  34-PGM_L-250607_1503.wav    V     C        15:03:55:09 15:03:57:24 01:21:50:06 01:21:52:21
*FROM CLIP NAME:  34-PGM_L-250607_1503.wav
000833  07-ROZA-250607_1503.wav     V     C        15:03:55:09 15:03:57:24 01:21:50:06 01:21:52:21
*FROM CLIP NAME:  07-ROZA-250607_1503.wav
000834  40-MIX-LARA_R-250607_1503.  V     C        15:03:55:09 15:03:58:24 01:21:52:21 01:21:56:11
*FROM CLIP NAME:  40-MIX-LARA_R-250607_1503.wav
000835  08-HERO-250607_1503.wav     V     C        15:03:55:09 15:03:58:24 01:21:52:21 01:21:56:11
*FROM CLIP NAME:  08-HERO-250607_1503.wav
000836  35-PGM_R-250607_1503.wav    V     C        15:03:55:09 15:03:58:24 01:21:52:21 01:21:56:11
*FROM CLIP NAME:  35-PGM_R-250607_1503.wav
000837  07-ROZA-250607_1503.wav     V     C        15:03:55:09 15:03:58:24 01:21:52:21 01:21:56:11
*FROM CLIP NAME:  07-ROZA-250607_1503.wav
000838  34-PGM_L-250607_1503.wav    V     C        15:03:55:09 15:03:58:24 01:21:52:21 01:21:56:11
*FROM CLIP NAME:  34-PGM_L-250607_1503.wav
000839  06-LARA-250607_1503.wav     V     C        15:03:55:09 15:03:58:24 01:21:52:21 01:21:56:11
*FROM CLIP NAME:  06-LARA-250607_1503.wav
000840  39-MIX-LARA_L-250607_1503.  V     C        15:03:55:09 15:03:58:24 01:21:52:21 01:21:56:11
*FROM CLIP NAME:  39-MIX-LARA_L-250607_1503.wav
000841  35-PGM_R-250607_1503.wav    V     C        15:03:55:09 15:04:02:07 01:21:56:11 01:22:03:09
*FROM CLIP NAME:  35-PGM_R-250607_1503.wav
000842  08-HERO-250607_1503.wav     V     C        15:03:55:09 15:04:02:07 01:21:56:11 01:22:03:09
*FROM CLIP NAME:  08-HERO-250607_1503.wav
000843  34-PGM_L-250607_1503.wav    V     C        15:03:55:09 15:04:02:07 01:21:56:11 01:22:03:09
*FROM CLIP NAME:  34-PGM_L-250607_1503.wav
000844  40-MIX-LARA_R-250607_1503.  V     C        15:03:55:09 15:04:02:07 01:21:56:11 01:22:03:09
*FROM CLIP NAME:  40-MIX-LARA_R-250607_1503.wav
000845  07-ROZA-250607_1503.wav     V     C        15:03:55:09 15:04:02:07 01:21:56:11 01:22:03:09
*FROM CLIP NAME:  07-ROZA-250607_1503.wav
000846  39-MIX-LARA_L-250607_1503.  V     C        15:03:55:09 15:04:02:07 01:21:56:11 01:22:03:09
*FROM CLIP NAME:  39-MIX-LARA_L-250607_1503.wav
000847  06-LARA-250607_1503.wav     V     C        15:03:55:09 15:04:02:07 01:21:56:11 01:22:03:09
*FROM CLIP NAME:  06-LARA-250607_1503.wav
000848  34-PGM_L-250607_1503.wav    V     C        15:03:55:09 15:04:17:04 01:22:03:09 01:22:25:04
*FROM CLIP NAME:  34-PGM_L-250607_1503.wav
000849  35-PGM_R-250607_1503.wav    V     C        15:03:55:09 15:04:17:04 01:22:03:09 01:22:25:04
*FROM CLIP NAME:  35-PGM_R-250607_1503.wav
000850  39-MIX-LARA_L-250607_1503.  V     C        15:03:55:09 15:04:17:04 01:22:03:09 01:22:25:04
*FROM CLIP NAME:  39-MIX-LARA_L-250607_1503.wav
000851  07-ROZA-250607_1503.wav     V     C        15:03:55:09 15:04:17:04 01:22:03:09 01:22:25:04
*FROM CLIP NAME:  07-ROZA-250607_1503.wav
000852  08-HERO-250607_1503.wav     V     C        15:03:55:09 15:04:17:04 01:22:03:09 01:22:25:04
*FROM CLIP NAME:  08-HERO-250607_1503.wav
000853  40-MIX-LARA_R-250607_1503.  V     C        15:03:55:09 15:04:17:04 01:22:03:09 01:22:25:04
*FROM CLIP NAME:  40-MIX-LARA_R-250607_1503.wav
000854  06-LARA-250607_1503.wav     V     C        15:03:55:09 15:04:17:04 01:22:03:09 01:22:25:04
*FROM CLIP NAME:  06-LARA-250607_1503.wav
000855  06-LARA-250607_1503.wav     V     C        15:03:55:09 15:04:04:11 01:22:25:04 01:22:34:06
*FROM CLIP NAME:  06-LARA-250607_1503.wav
000856  07-ROZA-250607_1503.wav     V     C        15:03:55:09 15:04:04:11 01:22:25:04 01:22:34:06
*FROM CLIP NAME:  07-ROZA-250607_1503.wav
000857  35-PGM_R-250607_1503.wav    V     C        15:03:55:09 15:04:04:11 01:22:25:04 01:22:34:06
*FROM CLIP NAME:  35-PGM_R-250607_1503.wav
000858  40-MIX-LARA_R-250607_1503.  V     C        15:03:55:09 15:04:04:11 01:22:25:04 01:22:34:06
*FROM CLIP NAME:  40-MIX-LARA_R-250607_1503.wav
000859  34-PGM_L-250607_1503.wav    V     C        15:03:55:09 15:04:04:11 01:22:25:04 01:22:34:06
*FROM CLIP NAME:  34-PGM_L-250607_1503.wav
000860  39-MIX-LARA_L-250607_1503.  V     C        15:03:55:09 15:04:04:11 01:22:25:04 01:22:34:06
*FROM CLIP NAME:  39-MIX-LARA_L-250607_1503.wav
000861  08-HERO-250607_1503.wav     V     C        15:03:55:09 15:04:04:11 01:22:25:04 01:22:34:06
*FROM CLIP NAME:  08-HERO-250607_1503.wav
000862  06-LARA-250607_1503.wav     V     C        15:03:55:09 15:03:58:07 01:22:34:06 01:22:37:04
*FROM CLIP NAME:  06-LARA-250607_1503.wav
000863  08-HERO-250607_1503.wav     V     C        15:03:55:09 15:03:58:07 01:22:34:06 01:22:37:04
*FROM CLIP NAME:  08-HERO-250607_1503.wav
000864  39-MIX-LARA_L-250607_1503.  V     C        15:03:55:09 15:03:58:07 01:22:34:06 01:22:37:04
*FROM CLIP NAME:  39-MIX-LARA_L-250607_1503.wav
000865  40-MIX-LARA_R-250607_1503.  V     C        15:03:55:09 15:03:58:07 01:22:34:06 01:22:37:04
*FROM CLIP NAME:  40-MIX-LARA_R-250607_1503.wav
000866  35-PGM_R-250607_1503.wav    V     C        15:03:55:09 15:03:58:07 01:22:34:06 01:22:37:04
*FROM CLIP NAME:  35-PGM_R-250607_1503.wav
000867  34-PGM_L-250607_1503.wav    V     C        15:03:55:09 15:03:58:07 01:22:34:06 01:22:37:04
*FROM CLIP NAME:  34-PGM_L-250607_1503.wav
000868  07-ROZA-250607_1503.wav     V     C        15:03:55:09 15:03:58:07 01:22:34:06 01:22:37:04
*FROM CLIP NAME:  07-ROZA-250607_1503.wav
000869  40-MIX-LARA_R-250607_1503.  V     C        15:03:55:09 15:04:06:19 01:22:37:04 01:22:48:14
*FROM CLIP NAME:  40-MIX-LARA_R-250607_1503.wav
000870  06-LARA-250607_1503.wav     V     C        15:03:55:09 15:04:06:19 01:22:37:04 01:22:48:14
*FROM CLIP NAME:  06-LARA-250607_1503.wav
000871  34-PGM_L-250607_1503.wav    V     C        15:03:55:09 15:04:06:19 01:22:37:04 01:22:48:14
*FROM CLIP NAME:  34-PGM_L-250607_1503.wav
000872  35-PGM_R-250607_1503.wav    V     C        15:03:55:09 15:04:06:19 01:22:37:04 01:22:48:14
*FROM CLIP NAME:  35-PGM_R-250607_1503.wav
000873  08-HERO-250607_1503.wav     V     C        15:03:55:09 15:04:06:19 01:22:37:04 01:22:48:14
*FROM CLIP NAME:  08-HERO-250607_1503.wav
000874  07-ROZA-250607_1503.wav     V     C        15:03:55:09 15:04:06:19 01:22:37:04 01:22:48:14
*FROM CLIP NAME:  07-ROZA-250607_1503.wav
000875  39-MIX-LARA_L-250607_1503.  V     C        15:03:55:09 15:04:06:19 01:22:37:04 01:22:48:14
*FROM CLIP NAME:  39-MIX-LARA_L-250607_1503.wav
000876  36-PGM2_L-250607_1503.wav   V     C        15:03:55:09 15:04:01:00 01:22:48:14 01:22:54:05
*FROM CLIP NAME:  36-PGM2_L-250607_1503.wav
000877  39-MIX-LARA_L-250607_1503.  V     C        15:03:55:09 15:04:02:05 01:22:54:05 01:23:01:01
*FROM CLIP NAME:  39-MIX-LARA_L-250607_1503.wav
000878  08-HERO-250607_1503.wav     V     C        15:03:55:09 15:04:02:05 01:22:54:05 01:23:01:01
*FROM CLIP NAME:  08-HERO-250607_1503.wav
000879  06-LARA-250607_1503.wav     V     C        15:03:55:09 15:04:02:05 01:22:54:05 01:23:01:01
*FROM CLIP NAME:  06-LARA-250607_1503.wav
000880  40-MIX-LARA_R-250607_1503.  V     C        15:03:55:09 15:04:02:05 01:22:54:05 01:23:01:01
*FROM CLIP NAME:  40-MIX-LARA_R-250607_1503.wav
000881  35-PGM_R-250607_1503.wav    V     C        15:03:55:09 15:04:02:05 01:22:54:05 01:23:01:01
*FROM CLIP NAME:  35-PGM_R-250607_1503.wav
000882  34-PGM_L-250607_1503.wav    V     C        15:03:55:09 15:04:02:05 01:22:54:05 01:23:01:01
*FROM CLIP NAME:  34-PGM_L-250607_1503.wav
000883  07-ROZA-250607_1503.wav     V     C        15:03:55:09 15:04:02:05 01:22:54:05 01:23:01:01
*FROM CLIP NAME:  07-ROZA-250607_1503.wav
000884  40-MIX-LARA_R-250607_1503.  V     C        15:03:55:09 15:04:04:01 01:23:01:01 01:23:09:18
*FROM CLIP NAME:  40-MIX-LARA_R-250607_1503.wav
000885  07-ROZA-250607_1503.wav     V     C        15:03:55:09 15:04:04:01 01:23:01:01 01:23:09:18
*FROM CLIP NAME:  07-ROZA-250607_1503.wav
000886  08-HERO-250607_1503.wav     V     C        15:03:55:09 15:04:04:01 01:23:01:01 01:23:09:18
*FROM CLIP NAME:  08-HERO-250607_1503.wav
000887  39-MIX-LARA_L-250607_1503.  V     C        15:03:55:09 15:04:04:01 01:23:01:01 01:23:09:18
*FROM CLIP NAME:  39-MIX-LARA_L-250607_1503.wav
000888  34-PGM_L-250607_1503.wav    V     C        15:03:55:09 15:04:04:01 01:23:01:01 01:23:09:18
*FROM CLIP NAME:  34-PGM_L-250607_1503.wav
000889  06-LARA-250607_1503.wav     V     C        15:03:55:09 15:04:04:01 01:23:01:01 01:23:09:18
*FROM CLIP NAME:  06-LARA-250607_1503.wav
000890  35-PGM_R-250607_1503.wav    V     C        15:03:55:09 15:04:04:01 01:23:01:01 01:23:09:18
*FROM CLIP NAME:  35-PGM_R-250607_1503.wav
000891  40-MIX-LARA_R-250607_1503.  V     C        15:03:55:09 15:04:10:04 01:23:09:18 01:23:24:13
*FROM CLIP NAME:  40-MIX-LARA_R-250607_1503.wav
000892  07-ROZA-250607_1503.wav     V     C        15:03:55:09 15:04:10:04 01:23:09:18 01:23:24:13
*FROM CLIP NAME:  07-ROZA-250607_1503.wav
000893  35-PGM_R-250607_1503.wav    V     C        15:03:55:09 15:04:10:04 01:23:09:18 01:23:24:13
*FROM CLIP NAME:  35-PGM_R-250607_1503.wav
000894  39-MIX-LARA_L-250607_1503.  V     C        15:03:55:09 15:04:10:04 01:23:09:18 01:23:24:13
*FROM CLIP NAME:  39-MIX-LARA_L-250607_1503.wav
000895  06-LARA-250607_1503.wav     V     C        15:03:55:09 15:04:10:04 01:23:09:18 01:23:24:13
*FROM CLIP NAME:  06-LARA-250607_1503.wav
000896  08-HERO-250607_1503.wav     V     C        15:03:55:09 15:04:10:04 01:23:09:18 01:23:24:13
*FROM CLIP NAME:  08-HERO-250607_1503.wav
000897  34-PGM_L-250607_1503.wav    V     C        15:03:55:09 15:04:10:04 01:23:09:18 01:23:24:13
*FROM CLIP NAME:  34-PGM_L-250607_1503.wav
000898  40-MIX-LARA_R-250607_1503.  V     C        15:03:55:09 15:04:28:18 01:23:24:13 01:23:57:22
*FROM CLIP NAME:  40-MIX-LARA_R-250607_1503.wav
000899  07-ROZA-250607_1503.wav     V     C        15:03:55:09 15:04:28:18 01:23:24:13 01:23:57:22
*FROM CLIP NAME:  07-ROZA-250607_1503.wav
000900  35-PGM_R-250607_1503.wav    V     C        15:03:55:09 15:04:28:18 01:23:24:13 01:23:57:22
*FROM CLIP NAME:  35-PGM_R-250607_1503.wav
000901  39-MIX-LARA_L-250607_1503.  V     C        15:03:55:09 15:04:28:18 01:23:24:13 01:23:57:22
*FROM CLIP NAME:  39-MIX-LARA_L-250607_1503.wav
000902  06-LARA-250607_1503.wav     V     C        15:03:55:09 15:04:28:18 01:23:24:13 01:23:57:22
*FROM CLIP NAME:  06-LARA-250607_1503.wav
000903  08-HERO-250607_1503.wav     V     C        15:03:55:09 15:04:28:18 01:23:24:13 01:23:57:22
*FROM CLIP NAME:  08-HERO-250607_1503.wav
000904  34-PGM_L-250607_1503.wav    V     C        15:03:55:09 15:04:28:18 01:23:24:13 01:23:57:22
*FROM CLIP NAME:  34-PGM_L-250607_1503.wav
000905  36-PGM2_L-250607_1503.wav   V     C        15:03:55:09 15:04:04:08 01:23:57:22 01:24:06:21
*FROM CLIP NAME:  36-PGM2_L-250607_1503.wav
000906  35-PGM_R-250607_1503.wav    V     C        15:03:55:09 15:04:01:07 01:24:06:21 01:24:12:19
*FROM CLIP NAME:  35-PGM_R-250607_1503.wav
000907  40-MIX-LARA_R-250607_1503.  V     C        15:03:55:09 15:04:01:07 01:24:06:21 01:24:12:19
*FROM CLIP NAME:  40-MIX-LARA_R-250607_1503.wav
000908  07-ROZA-250607_1503.wav     V     C        15:03:55:09 15:04:01:07 01:24:06:21 01:24:12:19
*FROM CLIP NAME:  07-ROZA-250607_1503.wav
000909  06-LARA-250607_1503.wav     V     C        15:03:55:09 15:04:01:07 01:24:06:21 01:24:12:19
*FROM CLIP NAME:  06-LARA-250607_1503.wav
000910  08-HERO-250607_1503.wav     V     C        15:03:55:09 15:04:01:07 01:24:06:21 01:24:12:19
*FROM CLIP NAME:  08-HERO-250607_1503.wav
000911  39-MIX-LARA_L-250607_1503.  V     C        15:03:55:09 15:04:01:07 01:24:06:21 01:24:12:19
*FROM CLIP NAME:  39-MIX-LARA_L-250607_1503.wav
000912  34-PGM_L-250607_1503.wav    V     C        15:03:55:09 15:04:01:07 01:24:06:21 01:24:12:19
*FROM CLIP NAME:  34-PGM_L-250607_1503.wav
000913  35-PGM_R-250607_1503.wav    V     C        15:03:55:09 15:04:03:09 01:24:12:19 01:24:20:19
*FROM CLIP NAME:  35-PGM_R-250607_1503.wav
000914  40-MIX-LARA_R-250607_1503.  V     C        15:03:55:09 15:04:03:09 01:24:12:19 01:24:20:19
*FROM CLIP NAME:  40-MIX-LARA_R-250607_1503.wav
000915  07-ROZA-250607_1503.wav     V     C        15:03:55:09 15:04:03:09 01:24:12:19 01:24:20:19
*FROM CLIP NAME:  07-ROZA-250607_1503.wav
000916  39-MIX-LARA_L-250607_1503.  V     C        15:03:55:09 15:04:03:09 01:24:12:19 01:24:20:19
*FROM CLIP NAME:  39-MIX-LARA_L-250607_1503.wav
000917  06-LARA-250607_1503.wav     V     C        15:03:55:09 15:04:03:09 01:24:12:19 01:24:20:19
*FROM CLIP NAME:  06-LARA-250607_1503.wav
000918  08-HERO-250607_1503.wav     V     C        15:03:55:09 15:04:03:09 01:24:12:19 01:24:20:19
*FROM CLIP NAME:  08-HERO-250607_1503.wav
000919  34-PGM_L-250607_1503.wav    V     C        15:03:55:09 15:04:03:09 01:24:12:19 01:24:20:19
*FROM CLIP NAME:  34-PGM_L-250607_1503.wav
000920  34-PGM_L-250607_1503.wav    V     C        15:03:55:09 15:04:05:07 01:24:20:19 01:24:30:17
*FROM CLIP NAME:  34-PGM_L-250607_1503.wav
000921  40-MIX-LARA_R-250607_1503.  V     C        15:03:55:09 15:04:05:07 01:24:20:19 01:24:30:17
*FROM CLIP NAME:  40-MIX-LARA_R-250607_1503.wav
000922  06-LARA-250607_1503.wav     V     C        15:03:55:09 15:04:05:07 01:24:20:19 01:24:30:17
*FROM CLIP NAME:  06-LARA-250607_1503.wav
000923  35-PGM_R-250607_1503.wav    V     C        15:03:55:09 15:04:05:07 01:24:20:19 01:24:30:17
*FROM CLIP NAME:  35-PGM_R-250607_1503.wav
000924  08-HERO-250607_1503.wav     V     C        15:03:55:09 15:04:05:07 01:24:20:19 01:24:30:17
*FROM CLIP NAME:  08-HERO-250607_1503.wav
000925  07-ROZA-250607_1503.wav     V     C        15:03:55:09 15:04:05:07 01:24:20:19 01:24:30:17
*FROM CLIP NAME:  07-ROZA-250607_1503.wav
000926  39-MIX-LARA_L-250607_1503.  V     C        15:03:55:09 15:04:05:07 01:24:20:19 01:24:30:17
*FROM CLIP NAME:  39-MIX-LARA_L-250607_1503.wav
000927  07-ROZA-250607_1503.wav     V     C        15:03:55:09 15:04:02:20 01:24:30:17 01:24:38:03
*FROM CLIP NAME:  07-ROZA-250607_1503.wav
000928  40-MIX-LARA_R-250607_1503.  V     C        15:03:55:09 15:04:02:20 01:24:30:17 01:24:38:03
*FROM CLIP NAME:  40-MIX-LARA_R-250607_1503.wav
000929  08-HERO-250607_1503.wav     V     C        15:03:55:09 15:04:02:20 01:24:30:17 01:24:38:03
*FROM CLIP NAME:  08-HERO-250607_1503.wav
000930  34-PGM_L-250607_1503.wav    V     C        15:03:55:09 15:04:02:20 01:24:30:17 01:24:38:03
*FROM CLIP NAME:  34-PGM_L-250607_1503.wav
000931  06-LARA-250607_1503.wav     V     C        15:03:55:09 15:04:02:20 01:24:30:17 01:24:38:03
*FROM CLIP NAME:  06-LARA-250607_1503.wav
000932  39-MIX-LARA_L-250607_1503.  V     C        15:03:55:09 15:04:02:20 01:24:30:17 01:24:38:03
*FROM CLIP NAME:  39-MIX-LARA_L-250607_1503.wav
000933  35-PGM_R-250607_1503.wav    V     C        15:03:55:09 15:04:02:20 01:24:30:17 01:24:38:03
*FROM CLIP NAME:  35-PGM_R-250607_1503.wav
000934  35-PGM_R-250607_1503.wav    V     C        15:03:55:09 15:04:16:11 01:24:38:03 01:24:59:05
*FROM CLIP NAME:  35-PGM_R-250607_1503.wav
000935  07-ROZA-250607_1503.wav     V     C        15:03:55:09 15:04:16:11 01:24:38:03 01:24:59:05
*FROM CLIP NAME:  07-ROZA-250607_1503.wav
000936  40-MIX-LARA_R-250607_1503.  V     C        15:03:55:09 15:04:16:11 01:24:38:03 01:24:59:05
*FROM CLIP NAME:  40-MIX-LARA_R-250607_1503.wav
000937  06-LARA-250607_1503.wav     V     C        15:03:55:09 15:04:16:11 01:24:38:03 01:24:59:05
*FROM CLIP NAME:  06-LARA-250607_1503.wav
000938  08-HERO-250607_1503.wav     V     C        15:03:55:09 15:04:16:11 01:24:38:03 01:24:59:05
*FROM CLIP NAME:  08-HERO-250607_1503.wav
000939  34-PGM_L-250607_1503.wav    V     C        15:03:55:09 15:04:16:11 01:24:38:03 01:24:59:05
*FROM CLIP NAME:  34-PGM_L-250607_1503.wav
000940  39-MIX-LARA_L-250607_1503.  V     C        15:03:55:09 15:04:16:11 01:24:38:03 01:24:59:05
*FROM CLIP NAME:  39-MIX-LARA_L-250607_1503.wav
000941  06-LARA-250607_1503.wav     V     C        15:03:55:09 15:03:59:19 01:24:59:05 01:25:03:15
*FROM CLIP NAME:  06-LARA-250607_1503.wav
000942  39-MIX-LARA_L-250607_1503.  V     C        15:03:55:09 15:03:59:19 01:24:59:05 01:25:03:15
*FROM CLIP NAME:  39-MIX-LARA_L-250607_1503.wav
000943  35-PGM_R-250607_1503.wav    V     C        15:03:55:09 15:03:59:19 01:24:59:05 01:25:03:15
*FROM CLIP NAME:  35-PGM_R-250607_1503.wav
000944  07-ROZA-250607_1503.wav     V     C        15:03:55:09 15:03:59:19 01:24:59:05 01:25:03:15
*FROM CLIP NAME:  07-ROZA-250607_1503.wav
000945  40-MIX-LARA_R-250607_1503.  V     C        15:03:55:09 15:03:59:19 01:24:59:05 01:25:03:15
*FROM CLIP NAME:  40-MIX-LARA_R-250607_1503.wav
000946  08-HERO-250607_1503.wav     V     C        15:03:55:09 15:03:59:19 01:24:59:05 01:25:03:15
*FROM CLIP NAME:  08-HERO-250607_1503.wav
000947  34-PGM_L-250607_1503.wav    V     C        15:03:55:09 15:03:59:19 01:24:59:05 01:25:03:15
*FROM CLIP NAME:  34-PGM_L-250607_1503.wav
000948  36-PGM2_L-250607_1503.wav   V     C        15:03:55:09 15:04:04:05 01:25:03:15 01:25:12:11
*FROM CLIP NAME:  36-PGM2_L-250607_1503.wav
000949  35-PGM_R-250607_1503.wav    V     C        15:03:55:09 15:04:04:06 01:25:12:11 01:25:21:08
*FROM CLIP NAME:  35-PGM_R-250607_1503.wav
000950  40-MIX-LARA_R-250607_1503.  V     C        15:03:55:09 15:04:04:06 01:25:12:11 01:25:21:08
*FROM CLIP NAME:  40-MIX-LARA_R-250607_1503.wav
000951  39-MIX-LARA_L-250607_1503.  V     C        15:03:55:09 15:04:04:06 01:25:12:11 01:25:21:08
*FROM CLIP NAME:  39-MIX-LARA_L-250607_1503.wav
000952  34-PGM_L-250607_1503.wav    V     C        15:03:55:09 15:04:04:06 01:25:12:11 01:25:21:08
*FROM CLIP NAME:  34-PGM_L-250607_1503.wav
000953  06-LARA-250607_1503.wav     V     C        15:03:55:09 15:04:04:06 01:25:12:11 01:25:21:08
*FROM CLIP NAME:  06-LARA-250607_1503.wav
000954  07-ROZA-250607_1503.wav     V     C        15:03:55:09 15:04:04:06 01:25:12:11 01:25:21:08
*FROM CLIP NAME:  07-ROZA-250607_1503.wav
000955  08-HERO-250607_1503.wav     V     C        15:03:55:09 15:04:04:06 01:25:12:11 01:25:21:08
*FROM CLIP NAME:  08-HERO-250607_1503.wav
000956  39-MIX-LARA_L-250607_1503.  V     C        15:03:55:09 15:04:20:17 01:25:21:08 01:25:46:16
*FROM CLIP NAME:  39-MIX-LARA_L-250607_1503.wav
000957  07-ROZA-250607_1503.wav     V     C        15:03:55:09 15:04:20:17 01:25:21:08 01:25:46:16
*FROM CLIP NAME:  07-ROZA-250607_1503.wav
000958  35-PGM_R-250607_1503.wav    V     C        15:03:55:09 15:04:20:17 01:25:21:08 01:25:46:16
*FROM CLIP NAME:  35-PGM_R-250607_1503.wav
000959  40-MIX-LARA_R-250607_1503.  V     C        15:03:55:09 15:04:20:17 01:25:21:08 01:25:46:16
*FROM CLIP NAME:  40-MIX-LARA_R-250607_1503.wav
000960  08-HERO-250607_1503.wav     V     C        15:03:55:09 15:04:20:17 01:25:21:08 01:25:46:16
*FROM CLIP NAME:  08-HERO-250607_1503.wav
000961  34-PGM_L-250607_1503.wav    V     C        15:03:55:09 15:04:20:17 01:25:21:08 01:25:46:16
*FROM CLIP NAME:  34-PGM_L-250607_1503.wav
000962  06-LARA-250607_1503.wav     V     C        15:03:55:09 15:04:20:17 01:25:21:08 01:25:46:16
*FROM CLIP NAME:  06-LARA-250607_1503.wav
000963  07-ROZA-250607_1503.wav     V     C        15:03:55:09 15:03:57:08 01:25:46:16 01:25:48:15
*FROM CLIP NAME:  07-ROZA-250607_1503.wav
000964  35-PGM_R-250607_1503.wav    V     C        15:03:55:09 15:03:57:08 01:25:46:16 01:25:48:15
*FROM CLIP NAME:  35-PGM_R-250607_1503.wav
000965  40-MIX-LARA_R-250607_1503.  V     C        15:03:55:09 15:03:57:08 01:25:46:16 01:25:48:15
*FROM CLIP NAME:  40-MIX-LARA_R-250607_1503.wav
000966  08-HERO-250607_1503.wav     V     C        15:03:55:09 15:03:57:08 01:25:46:16 01:25:48:15
*FROM CLIP NAME:  08-HERO-250607_1503.wav
000967  34-PGM_L-250607_1503.wav    V     C        15:03:55:09 15:03:57:08 01:25:46:16 01:25:48:15
*FROM CLIP NAME:  34-PGM_L-250607_1503.wav
000968  39-MIX-LARA_L-250607_1503.  V     C        15:03:55:09 15:03:57:08 01:25:46:16 01:25:48:15
*FROM CLIP NAME:  39-MIX-LARA_L-250607_1503.wav
000969  06-LARA-250607_1503.wav     V     C        15:03:55:09 15:03:57:08 01:25:46:16 01:25:48:15
*FROM CLIP NAME:  06-LARA-250607_1503.wav
000970  36-PGM2_L-250607_1503.wav   V     C        15:03:55:09 15:03:59:23 01:25:48:15 01:25:53:04
*FROM CLIP NAME:  36-PGM2_L-250607_1503.wav
000971  40-MIX-LARA_R-250607_1503.  V     C        15:03:55:09 15:03:56:20 01:25:53:04 01:25:54:15
*FROM CLIP NAME:  40-MIX-LARA_R-250607_1503.wav
000972  08-HERO-250607_1503.wav     V     C        15:03:55:09 15:03:56:20 01:25:53:04 01:25:54:15
*FROM CLIP NAME:  08-HERO-250607_1503.wav
000973  39-MIX-LARA_L-250607_1503.  V     C        15:03:55:09 15:03:56:20 01:25:53:04 01:25:54:15
*FROM CLIP NAME:  39-MIX-LARA_L-250607_1503.wav
000974  34-PGM_L-250607_1503.wav    V     C        15:03:55:09 15:03:56:20 01:25:53:04 01:25:54:15
*FROM CLIP NAME:  34-PGM_L-250607_1503.wav
000975  07-ROZA-250607_1503.wav     V     C        15:03:55:09 15:03:56:20 01:25:53:04 01:25:54:15
*FROM CLIP NAME:  07-ROZA-250607_1503.wav
000976  06-LARA-250607_1503.wav     V     C        15:03:55:09 15:03:56:20 01:25:53:04 01:25:54:15
*FROM CLIP NAME:  06-LARA-250607_1503.wav
000977  35-PGM_R-250607_1503.wav    V     C        15:03:55:09 15:03:56:20 01:25:53:04 01:25:54:15
*FROM CLIP NAME:  35-PGM_R-250607_1503.wav
000978  40-MIX-LARA_R-250607_1503.  V     C        15:03:55:09 15:03:59:21 01:25:54:15 01:25:59:02
*FROM CLIP NAME:  40-MIX-LARA_R-250607_1503.wav
000979  35-PGM_R-250607_1503.wav    V     C        15:03:55:09 15:03:59:21 01:25:54:15 01:25:59:02
*FROM CLIP NAME:  35-PGM_R-250607_1503.wav
000980  08-HERO-250607_1503.wav     V     C        15:03:55:09 15:03:59:21 01:25:54:15 01:25:59:02
*FROM CLIP NAME:  08-HERO-250607_1503.wav
000981  39-MIX-LARA_L-250607_1503.  V     C        15:03:55:09 15:03:59:21 01:25:54:15 01:25:59:02
*FROM CLIP NAME:  39-MIX-LARA_L-250607_1503.wav
000982  06-LARA-250607_1503.wav     V     C        15:03:55:09 15:03:59:21 01:25:54:15 01:25:59:02
*FROM CLIP NAME:  06-LARA-250607_1503.wav
000983  07-ROZA-250607_1503.wav     V     C        15:03:55:09 15:03:59:21 01:25:54:15 01:25:59:02
*FROM CLIP NAME:  07-ROZA-250607_1503.wav
000984  34-PGM_L-250607_1503.wav    V     C        15:03:55:09 15:03:59:21 01:25:54:15 01:25:59:02
*FROM CLIP NAME:  34-PGM_L-250607_1503.wav
000985  36-PGM2_L-250607_1503.wav   V     C        15:03:55:09 15:04:06:18 01:25:59:02 01:26:10:11
*FROM CLIP NAME:  36-PGM2_L-250607_1503.wav
000986  06-LARA-250607_1503.wav     V     C        15:03:55:09 15:03:56:21 01:26:10:11 01:26:11:23
*FROM CLIP NAME:  06-LARA-250607_1503.wav
000987  34-PGM_L-250607_1503.wav    V     C        15:03:55:09 15:03:56:21 01:26:10:11 01:26:11:23
*FROM CLIP NAME:  34-PGM_L-250607_1503.wav
000988  08-HERO-250607_1503.wav     V     C        15:03:55:09 15:03:56:21 01:26:10:11 01:26:11:23
*FROM CLIP NAME:  08-HERO-250607_1503.wav
000989  39-MIX-LARA_L-250607_1503.  V     C        15:03:55:09 15:03:56:21 01:26:10:11 01:26:11:23
*FROM CLIP NAME:  39-MIX-LARA_L-250607_1503.wav
000990  07-ROZA-250607_1503.wav     V     C        15:03:55:09 15:03:56:21 01:26:10:11 01:26:11:23
*FROM CLIP NAME:  07-ROZA-250607_1503.wav
000991  35-PGM_R-250607_1503.wav    V     C        15:03:55:09 15:03:56:21 01:26:10:11 01:26:11:23
*FROM CLIP NAME:  35-PGM_R-250607_1503.wav
000992  40-MIX-LARA_R-250607_1503.  V     C        15:03:55:09 15:03:56:21 01:26:10:11 01:26:11:23
*FROM CLIP NAME:  40-MIX-LARA_R-250607_1503.wav
000993  AM_LWPM_93_42__Summer-Feel  V     C        00:00:00:00 00:00:13:03 01:26:11:10 01:26:24:13
*FROM CLIP NAME:  AM_LWPM_93_42__Summer-Feeling__Chris-B-Raggatt.mp3_R
000994  AM_LWPM_93_42__Summer-Feel  V     C        00:00:00:00 00:00:13:03 01:26:11:10 01:26:24:13
*FROM CLIP NAME:  AM_LWPM_93_42__Summer-Feeling__Chris-B-Raggatt.mp3_L
000995  mixkit-sea-waves-with-bird  V     C        00:00:00:00 00:00:38:01 01:26:11:10 01:26:49:11
*FROM CLIP NAME:  mixkit-sea-waves-with-birds-loop-1185.wav_L
000996  mixkit-sea-waves-with-bird  V     C        00:00:00:00 00:00:38:01 01:26:11:10 01:26:49:11
*FROM CLIP NAME:  mixkit-sea-waves-with-birds-loop-1185.wav_R
000997  08-HERO-250607_1503.wav     V     C        15:03:55:09 15:04:06:01 01:26:11:23 01:26:22:15
*FROM CLIP NAME:  08-HERO-250607_1503.wav
000998  35-PGM_R-250607_1503.wav    V     C        15:03:55:09 15:04:06:01 01:26:11:23 01:26:22:15
*FROM CLIP NAME:  35-PGM_R-250607_1503.wav
000999  07-ROZA-250607_1503.wav     V     C        15:03:55:09 15:04:06:01 01:26:11:23 01:26:22:15
*FROM CLIP NAME:  07-ROZA-250607_1503.wav
001000  06-LARA-250607_1503.wav     V     C        15:03:55:09 15:04:06:01 01:26:11:23 01:26:22:15
*FROM CLIP NAME:  06-LARA-250607_1503.wav
001001  40-MIX-LARA_R-250607_1503.  V     C        15:03:55:09 15:04:06:01 01:26:11:23 01:26:22:15
*FROM CLIP NAME:  40-MIX-LARA_R-250607_1503.wav
001002  39-MIX-LARA_L-250607_1503.  V     C        15:03:55:09 15:04:06:01 01:26:11:23 01:26:22:15
*FROM CLIP NAME:  39-MIX-LARA_L-250607_1503.wav
001003  34-PGM_L-250607_1503.wav    V     C        15:03:55:09 15:04:06:01 01:26:11:23 01:26:22:15
*FROM CLIP NAME:  34-PGM_L-250607_1503.wav
001004  35-PGM_R-250607_1503.wav    V     C        15:03:55:09 15:04:03:23 01:26:22:15 01:26:31:04
*FROM CLIP NAME:  35-PGM_R-250607_1503.wav
001005  07-ROZA-250607_1503.wav     V     C        15:03:55:09 15:04:03:23 01:26:22:15 01:26:31:04
*FROM CLIP NAME:  07-ROZA-250607_1503.wav
001006  39-MIX-LARA_L-250607_1503.  V     C        15:03:55:09 15:04:03:23 01:26:22:15 01:26:31:04
*FROM CLIP NAME:  39-MIX-LARA_L-250607_1503.wav
001007  06-LARA-250607_1503.wav     V     C        15:03:55:09 15:04:03:23 01:26:22:15 01:26:31:04
*FROM CLIP NAME:  06-LARA-250607_1503.wav
001008  40-MIX-LARA_R-250607_1503.  V     C        15:03:55:09 15:04:03:23 01:26:22:15 01:26:31:04
*FROM CLIP NAME:  40-MIX-LARA_R-250607_1503.wav
001009  34-PGM_L-250607_1503.wav    V     C        15:03:55:09 15:04:03:23 01:26:22:15 01:26:31:04
*FROM CLIP NAME:  34-PGM_L-250607_1503.wav
001010  08-HERO-250607_1503.wav     V     C        15:03:55:09 15:04:03:23 01:26:22:15 01:26:31:04
*FROM CLIP NAME:  08-HERO-250607_1503.wav
001011  AM_LWPM_93_42__Summer-Feel  V     C        00:15:42:22 00:15:46:16 01:26:24:13 01:26:28:07
*FROM CLIP NAME:  AM_LWPM_93_42__Summer-Feeling__Chris-B-Raggatt.mp3_R
001012  AM_LWPM_93_42__Summer-Feel  V     C        00:15:42:22 00:15:46:16 01:26:24:13 01:26:28:07
*FROM CLIP NAME:  AM_LWPM_93_42__Summer-Feeling__Chris-B-Raggatt.mp3_L
001013  AM_LWPM_93_42__Summer-Feel  V     C        00:18:37:12 00:18:41:20 01:26:28:08 01:26:32:16
*FROM CLIP NAME:  AM_LWPM_93_42__Summer-Feeling__Chris-B-Raggatt.mp3_R
001014  AM_LWPM_93_42__Summer-Feel  V     C        00:18:37:12 00:18:41:20 01:26:28:08 01:26:32:16
*FROM CLIP NAME:  AM_LWPM_93_42__Summer-Feeling__Chris-B-Raggatt.mp3_L
001015  39-MIX-LARA_L-250607_1503.  V     C        15:03:55:09 15:04:04:18 01:26:31:04 01:26:40:13
*FROM CLIP NAME:  39-MIX-LARA_L-250607_1503.wav
001016  34-PGM_L-250607_1503.wav    V     C        15:03:55:09 15:04:04:18 01:26:31:04 01:26:40:13
*FROM CLIP NAME:  34-PGM_L-250607_1503.wav
001017  06-LARA-250607_1503.wav     V     C        15:03:55:09 15:04:04:18 01:26:31:04 01:26:40:13
*FROM CLIP NAME:  06-LARA-250607_1503.wav
001018  40-MIX-LARA_R-250607_1503.  V     C        15:03:55:09 15:04:04:18 01:26:31:04 01:26:40:13
*FROM CLIP NAME:  40-MIX-LARA_R-250607_1503.wav
001019  07-ROZA-250607_1503.wav     V     C        15:03:55:09 15:04:04:18 01:26:31:04 01:26:40:13
*FROM CLIP NAME:  07-ROZA-250607_1503.wav
001020  35-PGM_R-250607_1503.wav    V     C        15:03:55:09 15:04:04:18 01:26:31:04 01:26:40:13
*FROM CLIP NAME:  35-PGM_R-250607_1503.wav
001021  08-HERO-250607_1503.wav     V     C        15:03:55:09 15:04:04:18 01:26:31:04 01:26:40:13
*FROM CLIP NAME:  08-HERO-250607_1503.wav
001022  AM_LWPM_93_42__Summer-Feel  V     C        00:17:33:17 00:18:32:23 01:26:32:16 01:27:31:22
*FROM CLIP NAME:  AM_LWPM_93_42__Summer-Feeling__Chris-B-Raggatt.mp3_R
001023  AM_LWPM_93_42__Summer-Feel  V     C        00:17:33:17 00:18:32:23 01:26:32:16 01:27:31:22
*FROM CLIP NAME:  AM_LWPM_93_42__Summer-Feeling__Chris-B-Raggatt.mp3_L
001024  06-LARA-250607_1503.wav     V     C        15:03:55:09 15:03:56:17 01:26:40:13 01:26:41:21
*FROM CLIP NAME:  06-LARA-250607_1503.wav
001025  40-MIX-LARA_R-250607_1503.  V     C        15:03:55:09 15:03:56:17 01:26:40:13 01:26:41:21
*FROM CLIP NAME:  40-MIX-LARA_R-250607_1503.wav
001026  34-PGM_L-250607_1503.wav    V     C        15:03:55:09 15:03:56:17 01:26:40:13 01:26:41:21
*FROM CLIP NAME:  34-PGM_L-250607_1503.wav
001027  39-MIX-LARA_L-250607_1503.  V     C        15:03:55:09 15:03:56:17 01:26:40:13 01:26:41:21
*FROM CLIP NAME:  39-MIX-LARA_L-250607_1503.wav
001028  08-HERO-250607_1503.wav     V     C        15:03:55:09 15:03:56:17 01:26:40:13 01:26:41:21
*FROM CLIP NAME:  08-HERO-250607_1503.wav
001029  35-PGM_R-250607_1503.wav    V     C        15:03:55:09 15:03:56:17 01:26:40:13 01:26:41:21
*FROM CLIP NAME:  35-PGM_R-250607_1503.wav
001030  07-ROZA-250607_1503.wav     V     C        15:03:55:09 15:03:56:17 01:26:40:13 01:26:41:21
*FROM CLIP NAME:  07-ROZA-250607_1503.wav
001031  34-PGM_L-250607_1503.wav    V     C        15:03:55:09 15:04:01:16 01:26:41:21 01:26:48:03
*FROM CLIP NAME:  34-PGM_L-250607_1503.wav
001032  07-ROZA-250607_1503.wav     V     C        15:03:55:09 15:04:01:16 01:26:41:21 01:26:48:03
*FROM CLIP NAME:  07-ROZA-250607_1503.wav
001033  08-HERO-250607_1503.wav     V     C        15:03:55:09 15:04:01:16 01:26:41:21 01:26:48:03
*FROM CLIP NAME:  08-HERO-250607_1503.wav
001034  35-PGM_R-250607_1503.wav    V     C        15:03:55:09 15:04:01:16 01:26:41:21 01:26:48:03
*FROM CLIP NAME:  35-PGM_R-250607_1503.wav
001035  40-MIX-LARA_R-250607_1503.  V     C        15:03:55:09 15:04:01:16 01:26:41:21 01:26:48:03
*FROM CLIP NAME:  40-MIX-LARA_R-250607_1503.wav
001036  06-LARA-250607_1503.wav     V     C        15:03:55:09 15:04:01:16 01:26:41:21 01:26:48:03
*FROM CLIP NAME:  06-LARA-250607_1503.wav
001037  39-MIX-LARA_L-250607_1503.  V     C        15:03:55:09 15:04:01:16 01:26:41:21 01:26:48:03
*FROM CLIP NAME:  39-MIX-LARA_L-250607_1503.wav
001038  34-PGM_L-250607_1503.wav    V     C        15:03:55:09 15:04:01:05 01:26:48:03 01:26:53:24
*FROM CLIP NAME:  34-PGM_L-250607_1503.wav
001039  35-PGM_R-250607_1503.wav    V     C        15:03:55:09 15:04:01:05 01:26:48:03 01:26:53:24
*FROM CLIP NAME:  35-PGM_R-250607_1503.wav
001040  07-ROZA-250607_1503.wav     V     C        15:03:55:09 15:04:01:05 01:26:48:03 01:26:53:24
*FROM CLIP NAME:  07-ROZA-250607_1503.wav
001041  40-MIX-LARA_R-250607_1503.  V     C        15:03:55:09 15:04:01:05 01:26:48:03 01:26:53:24
*FROM CLIP NAME:  40-MIX-LARA_R-250607_1503.wav
001042  39-MIX-LARA_L-250607_1503.  V     C        15:03:55:09 15:04:01:05 01:26:48:03 01:26:53:24
*FROM CLIP NAME:  39-MIX-LARA_L-250607_1503.wav
001043  06-LARA-250607_1503.wav     V     C        15:03:55:09 15:04:01:05 01:26:48:03 01:26:53:24
*FROM CLIP NAME:  06-LARA-250607_1503.wav
001044  08-HERO-250607_1503.wav     V     C        15:03:55:09 15:04:01:05 01:26:48:03 01:26:53:24
*FROM CLIP NAME:  08-HERO-250607_1503.wav
001045  mixkit-sea-waves-with-bird  V     C        00:00:00:00 00:00:38:01 01:26:49:11 01:27:27:12
*FROM CLIP NAME:  mixkit-sea-waves-with-birds-loop-1185.wav_L
001046  mixkit-sea-waves-with-bird  V     C        00:00:00:00 00:00:38:01 01:26:49:11 01:27:27:12
*FROM CLIP NAME:  mixkit-sea-waves-with-birds-loop-1185.wav_R
001047  35-PGM_R-250607_1503.wav    V     C        15:03:55:09 15:04:07:11 01:26:53:24 01:27:06:01
*FROM CLIP NAME:  35-PGM_R-250607_1503.wav
001048  07-ROZA-250607_1503.wav     V     C        15:03:55:09 15:04:07:11 01:26:53:24 01:27:06:01
*FROM CLIP NAME:  07-ROZA-250607_1503.wav
001049  34-PGM_L-250607_1503.wav    V     C        15:03:55:09 15:04:07:11 01:26:53:24 01:27:06:01
*FROM CLIP NAME:  34-PGM_L-250607_1503.wav
001050  40-MIX-LARA_R-250607_1503.  V     C        15:03:55:09 15:04:07:11 01:26:53:24 01:27:06:01
*FROM CLIP NAME:  40-MIX-LARA_R-250607_1503.wav
001051  08-HERO-250607_1503.wav     V     C        15:03:55:09 15:04:07:11 01:26:53:24 01:27:06:01
*FROM CLIP NAME:  08-HERO-250607_1503.wav
001052  06-LARA-250607_1503.wav     V     C        15:03:55:09 15:04:07:11 01:26:53:24 01:27:06:01
*FROM CLIP NAME:  06-LARA-250607_1503.wav
001053  39-MIX-LARA_L-250607_1503.  V     C        15:03:55:09 15:04:07:11 01:26:53:24 01:27:06:01
*FROM CLIP NAME:  39-MIX-LARA_L-250607_1503.wav
001054  35-PGM_R-250607_1503.wav    V     C        15:03:55:09 15:04:02:06 01:27:06:01 01:27:12:23
*FROM CLIP NAME:  35-PGM_R-250607_1503.wav
001055  07-ROZA-250607_1503.wav     V     C        15:03:55:09 15:04:02:06 01:27:06:01 01:27:12:23
*FROM CLIP NAME:  07-ROZA-250607_1503.wav
001056  06-LARA-250607_1503.wav     V     C        15:03:55:09 15:04:02:06 01:27:06:01 01:27:12:23
*FROM CLIP NAME:  06-LARA-250607_1503.wav
001057  08-HERO-250607_1503.wav     V     C        15:03:55:09 15:04:02:06 01:27:06:01 01:27:12:23
*FROM CLIP NAME:  08-HERO-250607_1503.wav
001058  34-PGM_L-250607_1503.wav    V     C        15:03:55:09 15:04:02:06 01:27:06:01 01:27:12:23
*FROM CLIP NAME:  34-PGM_L-250607_1503.wav
001059  39-MIX-LARA_L-250607_1503.  V     C        15:03:55:09 15:04:02:06 01:27:06:01 01:27:12:23
*FROM CLIP NAME:  39-MIX-LARA_L-250607_1503.wav
001060  40-MIX-LARA_R-250607_1503.  V     C        15:03:55:09 15:04:02:06 01:27:06:01 01:27:12:23
*FROM CLIP NAME:  40-MIX-LARA_R-250607_1503.wav
001061  39-MIX-LARA_L-250607_1503.  V     C        15:03:55:09 15:03:57:21 01:27:12:23 01:27:15:10
*FROM CLIP NAME:  39-MIX-LARA_L-250607_1503.wav
001062  34-PGM_L-250607_1503.wav    V     C        15:03:55:09 15:03:57:21 01:27:12:23 01:27:15:10
*FROM CLIP NAME:  34-PGM_L-250607_1503.wav
001063  35-PGM_R-250607_1503.wav    V     C        15:03:55:09 15:03:57:21 01:27:12:23 01:27:15:10
*FROM CLIP NAME:  35-PGM_R-250607_1503.wav
001064  06-LARA-250607_1503.wav     V     C        15:03:55:09 15:03:57:21 01:27:12:23 01:27:15:10
*FROM CLIP NAME:  06-LARA-250607_1503.wav
001065  40-MIX-LARA_R-250607_1503.  V     C        15:03:55:09 15:03:57:21 01:27:12:23 01:27:15:10
*FROM CLIP NAME:  40-MIX-LARA_R-250607_1503.wav
001066  08-HERO-250607_1503.wav     V     C        15:03:55:09 15:03:57:21 01:27:12:23 01:27:15:10
*FROM CLIP NAME:  08-HERO-250607_1503.wav
001067  07-ROZA-250607_1503.wav     V     C        15:03:55:09 15:03:57:21 01:27:12:23 01:27:15:10
*FROM CLIP NAME:  07-ROZA-250607_1503.wav
001068  40-MIX-LARA_R-250607_1503.  V     C        15:03:55:09 15:04:04:16 01:27:15:10 01:27:24:17
*FROM CLIP NAME:  40-MIX-LARA_R-250607_1503.wav
001069  08-HERO-250607_1503.wav     V     C        15:03:55:09 15:04:04:16 01:27:15:10 01:27:24:17
*FROM CLIP NAME:  08-HERO-250607_1503.wav
001070  35-PGM_R-250607_1503.wav    V     C        15:03:55:09 15:04:04:16 01:27:15:10 01:27:24:17
*FROM CLIP NAME:  35-PGM_R-250607_1503.wav
001071  39-MIX-LARA_L-250607_1503.  V     C        15:03:55:09 15:04:04:16 01:27:15:10 01:27:24:17
*FROM CLIP NAME:  39-MIX-LARA_L-250607_1503.wav
001072  34-PGM_L-250607_1503.wav    V     C        15:03:55:09 15:04:04:16 01:27:15:10 01:27:24:17
*FROM CLIP NAME:  34-PGM_L-250607_1503.wav
001073  07-ROZA-250607_1503.wav     V     C        15:03:55:09 15:04:04:16 01:27:15:10 01:27:24:17
*FROM CLIP NAME:  07-ROZA-250607_1503.wav
001074  06-LARA-250607_1503.wav     V     C        15:03:55:09 15:04:04:16 01:27:15:10 01:27:24:17
*FROM CLIP NAME:  06-LARA-250607_1503.wav
001075  06-LARA-250607_1503.wav     V     C        15:03:55:09 15:04:04:07 01:27:24:17 01:27:33:15
*FROM CLIP NAME:  06-LARA-250607_1503.wav
001076  06-LARA-250607_1503.wav     V     C        15:03:55:09 15:04:02:03 01:27:33:15 01:27:40:09
*FROM CLIP NAME:  06-LARA-250607_1503.wav
001077  36-PGM2_L-250607_1503.wav   V     C        15:03:55:09 15:04:01:12 01:27:40:09 01:27:46:12
*FROM CLIP NAME:  36-PGM2_L-250607_1503.wav
001078  06-LARA-250607_1503.wav     V     C        15:03:55:09 15:04:05:00 01:27:46:12 01:27:56:03
*FROM CLIP NAME:  06-LARA-250607_1503.wav
001079  08-HERO-250607_1503.wav     V     C        15:03:55:09 15:04:05:00 01:27:46:12 01:27:56:03
*FROM CLIP NAME:  08-HERO-250607_1503.wav
001080  40-MIX-LARA_R-250607_1503.  V     C        15:03:55:09 15:04:05:00 01:27:46:12 01:27:56:03
*FROM CLIP NAME:  40-MIX-LARA_R-250607_1503.wav
001081  07-ROZA-250607_1503.wav     V     C        15:03:55:09 15:04:05:00 01:27:46:12 01:27:56:03
*FROM CLIP NAME:  07-ROZA-250607_1503.wav
001082  35-PGM_R-250607_1503.wav    V     C        15:03:55:09 15:04:05:00 01:27:46:12 01:27:56:03
*FROM CLIP NAME:  35-PGM_R-250607_1503.wav
001083  34-PGM_L-250607_1503.wav    V     C        15:03:55:09 15:04:05:00 01:27:46:12 01:27:56:03
*FROM CLIP NAME:  34-PGM_L-250607_1503.wav
001084  39-MIX-LARA_L-250607_1503.  V     C        15:03:55:09 15:04:05:00 01:27:46:12 01:27:56:03
*FROM CLIP NAME:  39-MIX-LARA_L-250607_1503.wav
001085  36-PGM2_L-250607_1503.wav   V     C        15:03:55:09 15:04:15:18 01:27:56:03 01:28:16:12
*FROM CLIP NAME:  36-PGM2_L-250607_1503.wav
001086  06-LARA-250607_1503.wav     V     C        15:03:55:09 15:04:09:01 01:28:16:12 01:28:30:04
*FROM CLIP NAME:  06-LARA-250607_1503.wav
001087  39-MIX-LARA_L-250607_1503.  V     C        15:03:55:09 15:04:09:01 01:28:16:12 01:28:30:04
*FROM CLIP NAME:  39-MIX-LARA_L-250607_1503.wav
001088  08-HERO-250607_1503.wav     V     C        15:03:55:09 15:04:09:01 01:28:16:12 01:28:30:04
*FROM CLIP NAME:  08-HERO-250607_1503.wav
001089  07-ROZA-250607_1503.wav     V     C        15:03:55:09 15:04:09:01 01:28:16:12 01:28:30:04
*FROM CLIP NAME:  07-ROZA-250607_1503.wav
001090  35-PGM_R-250607_1503.wav    V     C        15:03:55:09 15:04:09:01 01:28:16:12 01:28:30:04
*FROM CLIP NAME:  35-PGM_R-250607_1503.wav
001091  34-PGM_L-250607_1503.wav    V     C        15:03:55:09 15:04:09:01 01:28:16:12 01:28:30:04
*FROM CLIP NAME:  34-PGM_L-250607_1503.wav
001092  40-MIX-LARA_R-250607_1503.  V     C        15:03:55:09 15:04:09:01 01:28:16:12 01:28:30:04
*FROM CLIP NAME:  40-MIX-LARA_R-250607_1503.wav
001093  __ZNAKOMSTVO___Heartbeat.w  V     C        00:00:00:00 00:00:23:11 01:28:19:05 01:28:42:16
*FROM CLIP NAME:  __ZNAKOMSTVO___Heartbeat.wav_L
001094  __ZNAKOMSTVO___Heartbeat.w  V     C        00:00:00:00 00:00:23:11 01:28:19:05 01:28:42:16
*FROM CLIP NAME:  __ZNAKOMSTVO___Heartbeat.wav_R
001095  __ZNAKOMSTVO__Suspence.wav  V     C        00:00:00:00 00:00:13:11 01:28:19:16 01:28:33:02
*FROM CLIP NAME:  __ZNAKOMSTVO__Suspence.wav_L
001096  __ZNAKOMSTVO__Suspence.wav  V     C        00:00:00:00 00:00:13:11 01:28:19:16 01:28:33:02
*FROM CLIP NAME:  __ZNAKOMSTVO__Suspence.wav_R
001097  07-ROZA-250607_1503.wav     V     C        15:03:55:09 15:04:22:03 01:28:30:19 01:28:57:13
*FROM CLIP NAME:  07-ROZA-250607_1503.wav
001098  35-PGM_R-250607_1503.wav    V     C        15:03:55:09 15:04:22:03 01:28:30:19 01:28:57:13
*FROM CLIP NAME:  35-PGM_R-250607_1503.wav
001099  34-PGM_L-250607_1503.wav    V     C        15:03:55:09 15:04:22:03 01:28:30:19 01:28:57:13
*FROM CLIP NAME:  34-PGM_L-250607_1503.wav
001100  40-MIX-LARA_R-250607_1503.  V     C        15:03:55:09 15:04:22:03 01:28:30:19 01:28:57:13
*FROM CLIP NAME:  40-MIX-LARA_R-250607_1503.wav
001101  39-MIX-LARA_L-250607_1503.  V     C        15:03:55:09 15:04:22:03 01:28:30:19 01:28:57:13
*FROM CLIP NAME:  39-MIX-LARA_L-250607_1503.wav
001102  08-HERO-250607_1503.wav     V     C        15:03:55:09 15:04:22:03 01:28:30:19 01:28:57:13
*FROM CLIP NAME:  08-HERO-250607_1503.wav
001103  06-LARA-250607_1503.wav     V     C        15:03:55:09 15:04:22:03 01:28:30:19 01:28:57:13
*FROM CLIP NAME:  06-LARA-250607_1503.wav
001104  Apollo_BAK_32_5__Non-Stop_  V     C        00:00:00:18 00:00:28:15 01:28:56:20 01:29:24:17
*FROM CLIP NAME:  Apollo_BAK_32_5__Non-Stop__Devon-May-Kai-Irving-Matt-Lawrence.mp3_R
001105  Apollo_BAK_32_5__Non-Stop_  V     C        00:00:00:18 00:00:28:15 01:28:56:20 01:29:24:17
*FROM CLIP NAME:  Apollo_BAK_32_5__Non-Stop__Devon-May-Kai-Irving-Matt-Lawrence.mp3_L
001106  07-ROZA-250607_1503.wav     V     C        15:03:55:09 15:04:02:11 01:28:57:13 01:29:04:15
*FROM CLIP NAME:  07-ROZA-250607_1503.wav
001107  40-MIX-LARA_R-250607_1503.  V     C        15:03:55:09 15:04:02:11 01:28:57:13 01:29:04:15
*FROM CLIP NAME:  40-MIX-LARA_R-250607_1503.wav
001108  34-PGM_L-250607_1503.wav    V     C        15:03:55:09 15:04:02:11 01:28:57:13 01:29:04:15
*FROM CLIP NAME:  34-PGM_L-250607_1503.wav
001109  06-LARA-250607_1503.wav     V     C        15:03:55:09 15:04:02:11 01:28:57:13 01:29:04:15
*FROM CLIP NAME:  06-LARA-250607_1503.wav
001110  35-PGM_R-250607_1503.wav    V     C        15:03:55:09 15:04:02:11 01:28:57:13 01:29:04:15
*FROM CLIP NAME:  35-PGM_R-250607_1503.wav
001111  39-MIX-LARA_L-250607_1503.  V     C        15:03:55:09 15:04:02:11 01:28:57:13 01:29:04:15
*FROM CLIP NAME:  39-MIX-LARA_L-250607_1503.wav
001112  08-HERO-250607_1503.wav     V     C        15:03:55:09 15:04:02:11 01:28:57:13 01:29:04:15
*FROM CLIP NAME:  08-HERO-250607_1503.wav
001113  07-ROZA-250607_1503.wav     V     C        15:03:55:09 15:04:16:00 01:29:04:15 01:29:25:06
*FROM CLIP NAME:  07-ROZA-250607_1503.wav
001114  40-MIX-LARA_R-250607_1503.  V     C        15:03:55:09 15:04:16:00 01:29:04:15 01:29:25:06
*FROM CLIP NAME:  40-MIX-LARA_R-250607_1503.wav
001115  35-PGM_R-250607_1503.wav    V     C        15:03:55:09 15:04:16:00 01:29:04:15 01:29:25:06
*FROM CLIP NAME:  35-PGM_R-250607_1503.wav
001116  06-LARA-250607_1503.wav     V     C        15:03:55:09 15:04:16:00 01:29:04:15 01:29:25:06
*FROM CLIP NAME:  06-LARA-250607_1503.wav
001117  39-MIX-LARA_L-250607_1503.  V     C        15:03:55:09 15:04:16:00 01:29:04:15 01:29:25:06
*FROM CLIP NAME:  39-MIX-LARA_L-250607_1503.wav
001118  08-HERO-250607_1503.wav     V     C        15:03:55:09 15:04:16:00 01:29:04:15 01:29:25:06
*FROM CLIP NAME:  08-HERO-250607_1503.wav
001119  34-PGM_L-250607_1503.wav    V     C        15:03:55:09 15:04:16:00 01:29:04:15 01:29:25:06
*FROM CLIP NAME:  34-PGM_L-250607_1503.wav
001120  134935__ztrees1__whoosh.wa  V     C        00:07:31:01 00:07:32:08 01:29:08:10 01:29:09:17
*FROM CLIP NAME:  134935__ztrees1__whoosh.wav_L
001121  134935__ztrees1__whoosh.wa  V     C        00:07:31:01 00:07:32:08 01:29:08:10 01:29:09:17
*FROM CLIP NAME:  134935__ztrees1__whoosh.wav_R
001122  39-MIX-LARA_L-250607_1503.  V     C        15:03:55:09 15:04:01:06 01:29:25:06 01:29:31:03
*FROM CLIP NAME:  39-MIX-LARA_L-250607_1503.wav
001123  06-LARA-250607_1503.wav     V     C        15:03:55:09 15:04:01:06 01:29:25:06 01:29:31:03
*FROM CLIP NAME:  06-LARA-250607_1503.wav
001124  34-PGM_L-250607_1503.wav    V     C        15:03:55:09 15:04:01:06 01:29:25:06 01:29:31:03
*FROM CLIP NAME:  34-PGM_L-250607_1503.wav
001125  08-HERO-250607_1503.wav     V     C        15:03:55:09 15:04:01:06 01:29:25:06 01:29:31:03
*FROM CLIP NAME:  08-HERO-250607_1503.wav
001126  07-ROZA-250607_1503.wav     V     C        15:03:55:09 15:04:01:06 01:29:25:06 01:29:31:03
*FROM CLIP NAME:  07-ROZA-250607_1503.wav
001127  35-PGM_R-250607_1503.wav    V     C        15:03:55:09 15:04:01:06 01:29:25:06 01:29:31:03
*FROM CLIP NAME:  35-PGM_R-250607_1503.wav
001128  40-MIX-LARA_R-250607_1503.  V     C        15:03:55:09 15:04:02:11 01:29:25:06 01:29:32:08
*FROM CLIP NAME:  40-MIX-LARA_R-250607_1503.wav
001129  06-LARA-250607_1503.wav     V     C        15:03:55:09 15:03:58:13 01:29:31:03 01:29:34:07
*FROM CLIP NAME:  06-LARA-250607_1503.wav
001130  06-LARA-250607_1503.wav     V     C        15:03:55:09 15:04:01:18 01:29:34:07 01:29:40:16
*FROM CLIP NAME:  06-LARA-250607_1503.wav
001131  34-PGM_L-250607_1503.wav    V     C        15:03:55:09 15:04:01:18 01:29:34:07 01:29:40:16
*FROM CLIP NAME:  34-PGM_L-250607_1503.wav
001132  08-HERO-250607_1503.wav     V     C        15:03:55:09 15:04:01:18 01:29:34:07 01:29:40:16
*FROM CLIP NAME:  08-HERO-250607_1503.wav
001133  39-MIX-LARA_L-250607_1503.  V     C        15:03:55:09 15:04:01:18 01:29:34:07 01:29:40:16
*FROM CLIP NAME:  39-MIX-LARA_L-250607_1503.wav
001134  40-MIX-LARA_R-250607_1503.  V     C        15:03:55:09 15:04:01:18 01:29:34:07 01:29:40:16
*FROM CLIP NAME:  40-MIX-LARA_R-250607_1503.wav
001135  07-ROZA-250607_1503.wav     V     C        15:03:55:09 15:04:01:18 01:29:34:07 01:29:40:16
*FROM CLIP NAME:  07-ROZA-250607_1503.wav
001136  35-PGM_R-250607_1503.wav    V     C        15:03:55:09 15:04:01:18 01:29:34:07 01:29:40:16
*FROM CLIP NAME:  35-PGM_R-250607_1503.wav
001137  36-PGM2_L-250607_1503.wav   V     C        15:03:55:09 15:04:01:14 01:29:40:16 01:29:46:21
*FROM CLIP NAME:  36-PGM2_L-250607_1503.wav
001138  Pereb_in_3s_DP_2023.mov_L   V     C        00:00:00:00 00:00:03:00 01:29:46:21 01:29:49:21
*FROM CLIP NAME:  Pereb_in_3s_DP_2023.mov_L
001139  Pereb_in_3s_DP_2023.mov_R   V     C        00:00:00:00 00:00:03:00 01:29:46:21 01:29:49:21
*FROM CLIP NAME:  Pereb_in_3s_DP_2023.mov_R
001140  Pereb_out_3s_DP_2023.mov_L  V     C        00:00:00:00 00:00:03:00 01:29:49:21 01:29:52:21
*FROM CLIP NAME:  Pereb_out_3s_DP_2023.mov_L
001141  Pereb_out_3s_DP_2023.mov_R  V     C        00:00:00:00 00:00:03:00 01:29:49:21 01:29:52:21
*FROM CLIP NAME:  Pereb_out_3s_DP_2023.mov_R
001142  08-HERO-250607_1503.wav     V     C        15:03:55:09 15:04:03:06 01:29:52:21 01:30:00:18
*FROM CLIP NAME:  08-HERO-250607_1503.wav
001143  35-PGM_R-250607_1503.wav    V     C        15:03:55:09 15:04:03:06 01:29:52:21 01:30:00:18
*FROM CLIP NAME:  35-PGM_R-250607_1503.wav
001144  39-MIX-LARA_L-250607_1503.  V     C        15:03:55:09 15:04:03:06 01:29:52:21 01:30:00:18
*FROM CLIP NAME:  39-MIX-LARA_L-250607_1503.wav
001145  34-PGM_L-250607_1503.wav    V     C        15:03:55:09 15:04:03:06 01:29:52:21 01:30:00:18
*FROM CLIP NAME:  34-PGM_L-250607_1503.wav
001146  07-ROZA-250607_1503.wav     V     C        15:03:55:09 15:04:03:06 01:29:52:21 01:30:00:18
*FROM CLIP NAME:  07-ROZA-250607_1503.wav
001147  40-MIX-LARA_R-250607_1503.  V     C        15:03:55:09 15:04:03:06 01:29:52:21 01:30:00:18
*FROM CLIP NAME:  40-MIX-LARA_R-250607_1503.wav
001148  06-LARA-250607_1503.wav     V     C        15:03:55:09 15:04:03:06 01:29:52:21 01:30:00:18
*FROM CLIP NAME:  06-LARA-250607_1503.wav
001149  34-PGM_L-250607_1503.wav    V     C        15:03:55:09 15:04:14:16 01:30:00:18 01:30:20:00
*FROM CLIP NAME:  34-PGM_L-250607_1503.wav
001150  40-MIX-LARA_R-250607_1503.  V     C        15:03:55:09 15:04:14:16 01:30:00:18 01:30:20:00
*FROM CLIP NAME:  40-MIX-LARA_R-250607_1503.wav
001151  35-PGM_R-250607_1503.wav    V     C        15:03:55:09 15:04:14:16 01:30:00:18 01:30:20:00
*FROM CLIP NAME:  35-PGM_R-250607_1503.wav
001152  39-MIX-LARA_L-250607_1503.  V     C        15:03:55:09 15:04:14:16 01:30:00:18 01:30:20:00
*FROM CLIP NAME:  39-MIX-LARA_L-250607_1503.wav
001153  07-ROZA-250607_1503.wav     V     C        15:03:55:09 15:04:14:16 01:30:00:18 01:30:20:00
*FROM CLIP NAME:  07-ROZA-250607_1503.wav
001154  06-LARA-250607_1503.wav     V     C        15:03:55:09 15:04:14:16 01:30:00:18 01:30:20:00
*FROM CLIP NAME:  06-LARA-250607_1503.wav
001155  08-HERO-250607_1503.wav     V     C        15:03:55:09 15:04:14:16 01:30:00:18 01:30:20:00
*FROM CLIP NAME:  08-HERO-250607_1503.wav
001156  40-MIX-LARA_R-250607_1503.  V     C        15:03:55:09 15:04:09:08 01:30:20:00 01:30:33:24
*FROM CLIP NAME:  40-MIX-LARA_R-250607_1503.wav
001157  39-MIX-LARA_L-250607_1503.  V     C        15:03:55:09 15:04:09:08 01:30:20:00 01:30:33:24
*FROM CLIP NAME:  39-MIX-LARA_L-250607_1503.wav
001158  34-PGM_L-250607_1503.wav    V     C        15:03:55:09 15:04:09:08 01:30:20:00 01:30:33:24
*FROM CLIP NAME:  34-PGM_L-250607_1503.wav
001159  35-PGM_R-250607_1503.wav    V     C        15:03:55:09 15:04:09:08 01:30:20:00 01:30:33:24
*FROM CLIP NAME:  35-PGM_R-250607_1503.wav
001160  07-ROZA-250607_1503.wav     V     C        15:03:55:09 15:04:09:08 01:30:20:00 01:30:33:24
*FROM CLIP NAME:  07-ROZA-250607_1503.wav
001161  08-HERO-250607_1503.wav     V     C        15:03:55:09 15:04:09:08 01:30:20:00 01:30:33:24
*FROM CLIP NAME:  08-HERO-250607_1503.wav
001162  06-LARA-250607_1503.wav     V     C        15:03:55:09 15:04:09:08 01:30:20:00 01:30:33:24
*FROM CLIP NAME:  06-LARA-250607_1503.wav
001163  40-MIX-LARA_R-250607_1503.  V     C        15:03:55:09 15:04:05:06 01:30:33:24 01:30:43:21
*FROM CLIP NAME:  40-MIX-LARA_R-250607_1503.wav
001164  35-PGM_R-250607_1503.wav    V     C        15:03:55:09 15:04:05:06 01:30:33:24 01:30:43:21
*FROM CLIP NAME:  35-PGM_R-250607_1503.wav
001165  39-MIX-LARA_L-250607_1503.  V     C        15:03:55:09 15:04:05:06 01:30:33:24 01:30:43:21
*FROM CLIP NAME:  39-MIX-LARA_L-250607_1503.wav
001166  08-HERO-250607_1503.wav     V     C        15:03:55:09 15:04:05:06 01:30:33:24 01:30:43:21
*FROM CLIP NAME:  08-HERO-250607_1503.wav
001167  07-ROZA-250607_1503.wav     V     C        15:03:55:09 15:04:05:06 01:30:33:24 01:30:43:21
*FROM CLIP NAME:  07-ROZA-250607_1503.wav
001168  34-PGM_L-250607_1503.wav    V     C        15:03:55:09 15:04:05:06 01:30:33:24 01:30:43:21
*FROM CLIP NAME:  34-PGM_L-250607_1503.wav
001169  06-LARA-250607_1503.wav     V     C        15:03:55:09 15:04:05:06 01:30:33:24 01:30:43:21
*FROM CLIP NAME:  06-LARA-250607_1503.wav
001170  36-PGM2_L-250607_1503.wav   V     C        15:03:55:09 15:04:03:22 01:30:43:21 01:30:52:09
*FROM CLIP NAME:  36-PGM2_L-250607_1503.wav
001171  07-ROZA-250607_1503.wav     V     C        15:03:55:09 15:03:58:19 01:30:52:09 01:30:55:19
*FROM CLIP NAME:  07-ROZA-250607_1503.wav
001172  39-MIX-LARA_L-250607_1503.  V     C        15:03:55:09 15:03:58:19 01:30:52:09 01:30:55:19
*FROM CLIP NAME:  39-MIX-LARA_L-250607_1503.wav
001173  40-MIX-LARA_R-250607_1503.  V     C        15:03:55:09 15:03:58:19 01:30:52:09 01:30:55:19
*FROM CLIP NAME:  40-MIX-LARA_R-250607_1503.wav
001174  06-LARA-250607_1503.wav     V     C        15:03:55:09 15:03:58:19 01:30:52:09 01:30:55:19
*FROM CLIP NAME:  06-LARA-250607_1503.wav
001175  08-HERO-250607_1503.wav     V     C        15:03:55:09 15:03:58:19 01:30:52:09 01:30:55:19
*FROM CLIP NAME:  08-HERO-250607_1503.wav
001176  34-PGM_L-250607_1503.wav    V     C        15:03:55:09 15:03:58:19 01:30:52:09 01:30:55:19
*FROM CLIP NAME:  34-PGM_L-250607_1503.wav
001177  35-PGM_R-250607_1503.wav    V     C        15:03:55:09 15:03:58:19 01:30:52:09 01:30:55:19
*FROM CLIP NAME:  35-PGM_R-250607_1503.wav
001178  34-PGM_L-250607_1503.wav    V     C        15:03:55:09 15:03:56:20 01:30:55:19 01:30:57:05
*FROM CLIP NAME:  34-PGM_L-250607_1503.wav
001179  40-MIX-LARA_R-250607_1503.  V     C        15:03:55:09 15:03:56:20 01:30:55:19 01:30:57:05
*FROM CLIP NAME:  40-MIX-LARA_R-250607_1503.wav
001180  39-MIX-LARA_L-250607_1503.  V     C        15:03:55:09 15:03:56:20 01:30:55:19 01:30:57:05
*FROM CLIP NAME:  39-MIX-LARA_L-250607_1503.wav
001181  07-ROZA-250607_1503.wav     V     C        15:03:55:09 15:03:56:20 01:30:55:19 01:30:57:05
*FROM CLIP NAME:  07-ROZA-250607_1503.wav
001182  08-HERO-250607_1503.wav     V     C        15:03:55:09 15:03:56:20 01:30:55:19 01:30:57:05
*FROM CLIP NAME:  08-HERO-250607_1503.wav
001183  06-LARA-250607_1503.wav     V     C        15:03:55:09 15:03:56:20 01:30:55:19 01:30:57:05
*FROM CLIP NAME:  06-LARA-250607_1503.wav
001184  35-PGM_R-250607_1503.wav    V     C        15:03:55:09 15:03:56:20 01:30:55:19 01:30:57:05
*FROM CLIP NAME:  35-PGM_R-250607_1503.wav
001185  39-MIX-LARA_L-250607_1503.  V     C        15:03:55:09 15:04:05:10 01:30:57:05 01:31:07:06
*FROM CLIP NAME:  39-MIX-LARA_L-250607_1503.wav
001186  40-MIX-LARA_R-250607_1503.  V     C        15:03:55:09 15:04:05:10 01:30:57:05 01:31:07:06
*FROM CLIP NAME:  40-MIX-LARA_R-250607_1503.wav
001187  06-LARA-250607_1503.wav     V     C        15:03:55:09 15:04:05:10 01:30:57:05 01:31:07:06
*FROM CLIP NAME:  06-LARA-250607_1503.wav
001188  07-ROZA-250607_1503.wav     V     C        15:03:55:09 15:04:05:10 01:30:57:05 01:31:07:06
*FROM CLIP NAME:  07-ROZA-250607_1503.wav
001189  08-HERO-250607_1503.wav     V     C        15:03:55:09 15:04:05:10 01:30:57:05 01:31:07:06
*FROM CLIP NAME:  08-HERO-250607_1503.wav
001190  35-PGM_R-250607_1503.wav    V     C        15:03:55:09 15:04:05:10 01:30:57:05 01:31:07:06
*FROM CLIP NAME:  35-PGM_R-250607_1503.wav
001191  34-PGM_L-250607_1503.wav    V     C        15:03:55:09 15:04:05:10 01:30:57:05 01:31:07:06
*FROM CLIP NAME:  34-PGM_L-250607_1503.wav
001192  06-LARA-250607_1503.wav     V     C        15:03:55:09 15:03:59:11 01:31:07:06 01:31:11:08
*FROM CLIP NAME:  06-LARA-250607_1503.wav
001193  39-MIX-LARA_L-250607_1503.  V     C        15:03:55:09 15:03:58:13 01:31:08:04 01:31:11:08
*FROM CLIP NAME:  39-MIX-LARA_L-250607_1503.wav
001194  07-ROZA-250607_1503.wav     V     C        15:03:55:09 15:03:58:13 01:31:08:04 01:31:11:08
*FROM CLIP NAME:  07-ROZA-250607_1503.wav
001195  40-MIX-LARA_R-250607_1503.  V     C        15:03:55:09 15:03:58:13 01:31:08:04 01:31:11:08
*FROM CLIP NAME:  40-MIX-LARA_R-250607_1503.wav
001196  08-HERO-250607_1503.wav     V     C        15:03:55:09 15:03:58:13 01:31:08:04 01:31:11:08
*FROM CLIP NAME:  08-HERO-250607_1503.wav
001197  34-PGM_L-250607_1503.wav    V     C        15:03:55:09 15:03:58:13 01:31:08:04 01:31:11:08
*FROM CLIP NAME:  34-PGM_L-250607_1503.wav
001198  35-PGM_R-250607_1503.wav    V     C        15:03:55:09 15:03:58:13 01:31:08:04 01:31:11:08
*FROM CLIP NAME:  35-PGM_R-250607_1503.wav
001199  06-LARA-250607_1503.wav     V     C        15:03:55:09 15:03:57:04 01:31:11:08 01:31:13:03
*FROM CLIP NAME:  06-LARA-250607_1503.wav
001200  06-LARA-250607_1503.wav     V     C        15:03:55:09 15:03:59:13 01:31:13:03 01:31:17:07
*FROM CLIP NAME:  06-LARA-250607_1503.wav
001201  39-MIX-LARA_L-250607_1503.  V     C        15:03:55:09 15:03:59:13 01:31:13:03 01:31:17:07
*FROM CLIP NAME:  39-MIX-LARA_L-250607_1503.wav
001202  34-PGM_L-250607_1503.wav    V     C        15:03:55:09 15:03:59:13 01:31:13:03 01:31:17:07
*FROM CLIP NAME:  34-PGM_L-250607_1503.wav
001203  08-HERO-250607_1503.wav     V     C        15:03:55:09 15:03:59:13 01:31:13:03 01:31:17:07
*FROM CLIP NAME:  08-HERO-250607_1503.wav
001204  35-PGM_R-250607_1503.wav    V     C        15:03:55:09 15:03:59:13 01:31:13:03 01:31:17:07
*FROM CLIP NAME:  35-PGM_R-250607_1503.wav
001205  07-ROZA-250607_1503.wav     V     C        15:03:55:09 15:03:59:13 01:31:13:03 01:31:17:07
*FROM CLIP NAME:  07-ROZA-250607_1503.wav
001206  40-MIX-LARA_R-250607_1503.  V     C        15:03:55:09 15:03:59:13 01:31:13:03 01:31:17:07
*FROM CLIP NAME:  40-MIX-LARA_R-250607_1503.wav
001207  39-MIX-LARA_L-250607_1503.  V     C        15:03:55:09 15:04:11:13 01:31:17:07 01:31:33:11
*FROM CLIP NAME:  39-MIX-LARA_L-250607_1503.wav
001208  06-LARA-250607_1503.wav     V     C        15:03:55:09 15:04:11:13 01:31:17:07 01:31:33:11
*FROM CLIP NAME:  06-LARA-250607_1503.wav
001209  07-ROZA-250607_1503.wav     V     C        15:03:55:09 15:04:11:13 01:31:17:07 01:31:33:11
*FROM CLIP NAME:  07-ROZA-250607_1503.wav
001210  08-HERO-250607_1503.wav     V     C        15:03:55:09 15:04:11:13 01:31:17:07 01:31:33:11
*FROM CLIP NAME:  08-HERO-250607_1503.wav
001211  40-MIX-LARA_R-250607_1503.  V     C        15:03:55:09 15:04:11:13 01:31:17:07 01:31:33:11
*FROM CLIP NAME:  40-MIX-LARA_R-250607_1503.wav
001212  35-PGM_R-250607_1503.wav    V     C        15:03:55:09 15:04:11:13 01:31:17:07 01:31:33:11
*FROM CLIP NAME:  35-PGM_R-250607_1503.wav
001213  34-PGM_L-250607_1503.wav    V     C        15:03:55:09 15:04:11:13 01:31:17:07 01:31:33:11
*FROM CLIP NAME:  34-PGM_L-250607_1503.wav
001214  34-PGM_L-250607_1503.wav    V     C        15:03:55:09 15:04:13:09 01:31:33:11 01:31:51:11
*FROM CLIP NAME:  34-PGM_L-250607_1503.wav
001215  08-HERO-250607_1503.wav     V     C        15:03:55:09 15:04:13:09 01:31:33:11 01:31:51:11
*FROM CLIP NAME:  08-HERO-250607_1503.wav
001216  40-MIX-LARA_R-250607_1503.  V     C        15:03:55:09 15:04:13:09 01:31:33:11 01:31:51:11
*FROM CLIP NAME:  40-MIX-LARA_R-250607_1503.wav
001217  39-MIX-LARA_L-250607_1503.  V     C        15:03:55:09 15:04:13:09 01:31:33:11 01:31:51:11
*FROM CLIP NAME:  39-MIX-LARA_L-250607_1503.wav
001218  35-PGM_R-250607_1503.wav    V     C        15:03:55:09 15:04:13:09 01:31:33:11 01:31:51:11
*FROM CLIP NAME:  35-PGM_R-250607_1503.wav
001219  07-ROZA-250607_1503.wav     V     C        15:03:55:09 15:04:13:09 01:31:33:11 01:31:51:11
*FROM CLIP NAME:  07-ROZA-250607_1503.wav
001220  06-LARA-250607_1503.wav     V     C        15:03:55:09 15:04:13:09 01:31:33:11 01:31:51:11
*FROM CLIP NAME:  06-LARA-250607_1503.wav
001221  36-PGM2_L-250607_1503.wav   V     C        15:03:55:09 15:04:13:09 01:31:51:11 01:32:09:11
*FROM CLIP NAME:  36-PGM2_L-250607_1503.wav
001222  06-LARA-250607_1503.wav     V     C        15:03:55:09 15:04:03:06 01:32:09:11 01:32:17:08
*FROM CLIP NAME:  06-LARA-250607_1503.wav
001223  07-ROZA-250607_1503.wav     V     C        15:03:55:09 15:04:03:06 01:32:09:11 01:32:17:08
*FROM CLIP NAME:  07-ROZA-250607_1503.wav
001224  39-MIX-LARA_L-250607_1503.  V     C        15:03:55:09 15:04:03:06 01:32:09:11 01:32:17:08
*FROM CLIP NAME:  39-MIX-LARA_L-250607_1503.wav
001225  40-MIX-LARA_R-250607_1503.  V     C        15:03:55:09 15:04:03:06 01:32:09:11 01:32:17:08
*FROM CLIP NAME:  40-MIX-LARA_R-250607_1503.wav
001226  34-PGM_L-250607_1503.wav    V     C        15:03:55:09 15:04:03:06 01:32:09:11 01:32:17:08
*FROM CLIP NAME:  34-PGM_L-250607_1503.wav
001227  35-PGM_R-250607_1503.wav    V     C        15:03:55:09 15:04:03:06 01:32:09:11 01:32:17:08
*FROM CLIP NAME:  35-PGM_R-250607_1503.wav
001228  08-HERO-250607_1503.wav     V     C        15:03:55:09 15:04:03:06 01:32:09:11 01:32:17:08
*FROM CLIP NAME:  08-HERO-250607_1503.wav
001229  08-HERO-250607_1503.wav     V     C        15:03:55:09 15:04:50:06 01:32:17:08 01:33:12:05
*FROM CLIP NAME:  08-HERO-250607_1503.wav
001230  07-ROZA-250607_1503.wav     V     C        15:03:55:09 15:04:50:06 01:32:17:08 01:33:12:05
*FROM CLIP NAME:  07-ROZA-250607_1503.wav
001231  39-MIX-LARA_L-250607_1503.  V     C        15:03:55:09 15:04:50:06 01:32:17:08 01:33:12:05
*FROM CLIP NAME:  39-MIX-LARA_L-250607_1503.wav
001232  35-PGM_R-250607_1503.wav    V     C        15:03:55:09 15:04:50:06 01:32:17:08 01:33:12:05
*FROM CLIP NAME:  35-PGM_R-250607_1503.wav
001233  40-MIX-LARA_R-250607_1503.  V     C        15:03:55:09 15:04:50:06 01:32:17:08 01:33:12:05
*FROM CLIP NAME:  40-MIX-LARA_R-250607_1503.wav
001234  34-PGM_L-250607_1503.wav    V     C        15:03:55:09 15:04:50:06 01:32:17:08 01:33:12:05
*FROM CLIP NAME:  34-PGM_L-250607_1503.wav
001235  06-LARA-250607_1503.wav     V     C        15:03:55:09 15:04:50:06 01:32:17:08 01:33:12:05
*FROM CLIP NAME:  06-LARA-250607_1503.wav
001236  36-PGM2_L-250607_1503.wav   V     C        15:03:55:09 15:04:03:14 01:33:12:05 01:33:20:10
*FROM CLIP NAME:  36-PGM2_L-250607_1503.wav
001237  08-HERO-250607_1503.wav     V     C        15:03:55:09 15:04:40:23 01:33:20:10 01:34:05:24
*FROM CLIP NAME:  08-HERO-250607_1503.wav
001238  40-MIX-LARA_R-250607_1503.  V     C        15:03:55:09 15:04:40:23 01:33:20:10 01:34:05:24
*FROM CLIP NAME:  40-MIX-LARA_R-250607_1503.wav
001239  39-MIX-LARA_L-250607_1503.  V     C        15:03:55:09 15:04:40:23 01:33:20:10 01:34:05:24
*FROM CLIP NAME:  39-MIX-LARA_L-250607_1503.wav
001240  06-LARA-250607_1503.wav     V     C        15:03:55:09 15:04:40:23 01:33:20:10 01:34:05:24
*FROM CLIP NAME:  06-LARA-250607_1503.wav
001241  34-PGM_L-250607_1503.wav    V     C        15:03:55:09 15:04:40:23 01:33:20:10 01:34:05:24
*FROM CLIP NAME:  34-PGM_L-250607_1503.wav
001242  07-ROZA-250607_1503.wav     V     C        15:03:55:09 15:04:40:23 01:33:20:10 01:34:05:24
*FROM CLIP NAME:  07-ROZA-250607_1503.wav
001243  35-PGM_R-250607_1503.wav    V     C        15:03:55:09 15:04:40:23 01:33:20:10 01:34:05:24
*FROM CLIP NAME:  35-PGM_R-250607_1503.wav
001244  08-HERO-250607_1503.wav     V     C        15:03:55:09 15:04:12:22 01:34:05:24 01:34:23:12
*FROM CLIP NAME:  08-HERO-250607_1503.wav
001245  40-MIX-LARA_R-250607_1503.  V     C        15:03:55:09 15:04:12:22 01:34:05:24 01:34:23:12
*FROM CLIP NAME:  40-MIX-LARA_R-250607_1503.wav
001246  34-PGM_L-250607_1503.wav    V     C        15:03:55:09 15:04:12:22 01:34:05:24 01:34:23:12
*FROM CLIP NAME:  34-PGM_L-250607_1503.wav
001247  39-MIX-LARA_L-250607_1503.  V     C        15:03:55:09 15:04:12:22 01:34:05:24 01:34:23:12
*FROM CLIP NAME:  39-MIX-LARA_L-250607_1503.wav
001248  06-LARA-250607_1503.wav     V     C        15:03:55:09 15:04:12:22 01:34:05:24 01:34:23:12
*FROM CLIP NAME:  06-LARA-250607_1503.wav
001249  07-ROZA-250607_1503.wav     V     C        15:03:55:09 15:04:12:22 01:34:05:24 01:34:23:12
*FROM CLIP NAME:  07-ROZA-250607_1503.wav
001250  35-PGM_R-250607_1503.wav    V     C        15:03:55:09 15:04:12:22 01:34:05:24 01:34:23:12
*FROM CLIP NAME:  35-PGM_R-250607_1503.wav
001251  36-PGM2_L-250607_1503.wav   V     C        15:03:55:09 15:04:09:05 01:34:23:12 01:34:37:08
*FROM CLIP NAME:  36-PGM2_L-250607_1503.wav
001252  08-HERO-250607_1503.wav     V     C        15:03:55:09 15:04:06:03 01:34:37:08 01:34:48:02
*FROM CLIP NAME:  08-HERO-250607_1503.wav
001253  40-MIX-LARA_R-250607_1503.  V     C        15:03:55:09 15:04:06:03 01:34:37:08 01:34:48:02
*FROM CLIP NAME:  40-MIX-LARA_R-250607_1503.wav
001254  34-PGM_L-250607_1503.wav    V     C        15:03:55:09 15:04:06:03 01:34:37:08 01:34:48:02
*FROM CLIP NAME:  34-PGM_L-250607_1503.wav
001255  35-PGM_R-250607_1503.wav    V     C        15:03:55:09 15:04:06:03 01:34:37:08 01:34:48:02
*FROM CLIP NAME:  35-PGM_R-250607_1503.wav
001256  07-ROZA-250607_1503.wav     V     C        15:03:55:09 15:04:06:03 01:34:37:08 01:34:48:02
*FROM CLIP NAME:  07-ROZA-250607_1503.wav
001257  39-MIX-LARA_L-250607_1503.  V     C        15:03:55:09 15:04:06:03 01:34:37:08 01:34:48:02
*FROM CLIP NAME:  39-MIX-LARA_L-250607_1503.wav
001258  06-LARA-250607_1503.wav     V     C        15:03:55:09 15:04:06:03 01:34:37:08 01:34:48:02
*FROM CLIP NAME:  06-LARA-250607_1503.wav
001259  08-HERO-250607_1503.wav     V     C        15:03:55:09 15:03:57:21 01:34:48:02 01:34:50:14
*FROM CLIP NAME:  08-HERO-250607_1503.wav
001260  40-MIX-LARA_R-250607_1503.  V     C        15:03:55:09 15:03:57:21 01:34:48:02 01:34:50:14
*FROM CLIP NAME:  40-MIX-LARA_R-250607_1503.wav
001261  34-PGM_L-250607_1503.wav    V     C        15:03:55:09 15:03:57:21 01:34:48:02 01:34:50:14
*FROM CLIP NAME:  34-PGM_L-250607_1503.wav
001262  35-PGM_R-250607_1503.wav    V     C        15:03:55:09 15:03:57:21 01:34:48:02 01:34:50:14
*FROM CLIP NAME:  35-PGM_R-250607_1503.wav
001263  06-LARA-250607_1503.wav     V     C        15:03:55:09 15:03:57:21 01:34:48:02 01:34:50:14
*FROM CLIP NAME:  06-LARA-250607_1503.wav
001264  07-ROZA-250607_1503.wav     V     C        15:03:55:09 15:03:57:21 01:34:48:02 01:34:50:14
*FROM CLIP NAME:  07-ROZA-250607_1503.wav
001265  39-MIX-LARA_L-250607_1503.  V     C        15:03:55:09 15:03:57:21 01:34:48:02 01:34:50:14
*FROM CLIP NAME:  39-MIX-LARA_L-250607_1503.wav
001266  06-LARA-250607_1503.wav     V     C        15:03:55:09 15:04:02:10 01:34:50:14 01:34:57:15
*FROM CLIP NAME:  06-LARA-250607_1503.wav
001267  39-MIX-LARA_L-250607_1503.  V     C        15:03:55:09 15:04:02:10 01:34:50:14 01:34:57:15
*FROM CLIP NAME:  39-MIX-LARA_L-250607_1503.wav
001268  34-PGM_L-250607_1503.wav    V     C        15:03:55:09 15:04:02:10 01:34:50:14 01:34:57:15
*FROM CLIP NAME:  34-PGM_L-250607_1503.wav
001269  07-ROZA-250607_1503.wav     V     C        15:03:55:09 15:04:02:10 01:34:50:14 01:34:57:15
*FROM CLIP NAME:  07-ROZA-250607_1503.wav
001270  08-HERO-250607_1503.wav     V     C        15:03:55:09 15:04:02:10 01:34:50:14 01:34:57:15
*FROM CLIP NAME:  08-HERO-250607_1503.wav
001271  35-PGM_R-250607_1503.wav    V     C        15:03:55:09 15:04:02:10 01:34:50:14 01:34:57:15
*FROM CLIP NAME:  35-PGM_R-250607_1503.wav
001272  40-MIX-LARA_R-250607_1503.  V     C        15:03:55:09 15:04:02:10 01:34:50:14 01:34:57:15
*FROM CLIP NAME:  40-MIX-LARA_R-250607_1503.wav
001273  06-LARA-250607_1503.wav     V     C        15:03:55:09 15:03:57:22 01:34:57:15 01:35:00:03
*FROM CLIP NAME:  06-LARA-250607_1503.wav
001274  39-MIX-LARA_L-250607_1503.  V     C        15:03:55:09 15:04:07:17 01:35:00:03 01:35:12:11
*FROM CLIP NAME:  39-MIX-LARA_L-250607_1503.wav
001275  08-HERO-250607_1503.wav     V     C        15:03:55:09 15:04:07:17 01:35:00:03 01:35:12:11
*FROM CLIP NAME:  08-HERO-250607_1503.wav
001276  40-MIX-LARA_R-250607_1503.  V     C        15:03:55:09 15:04:07:17 01:35:00:03 01:35:12:11
*FROM CLIP NAME:  40-MIX-LARA_R-250607_1503.wav
001277  34-PGM_L-250607_1503.wav    V     C        15:03:55:09 15:04:07:17 01:35:00:03 01:35:12:11
*FROM CLIP NAME:  34-PGM_L-250607_1503.wav
001278  35-PGM_R-250607_1503.wav    V     C        15:03:55:09 15:04:07:17 01:35:00:03 01:35:12:11
*FROM CLIP NAME:  35-PGM_R-250607_1503.wav
001279  06-LARA-250607_1503.wav     V     C        15:03:55:09 15:04:07:17 01:35:00:03 01:35:12:11
*FROM CLIP NAME:  06-LARA-250607_1503.wav
001280  07-ROZA-250607_1503.wav     V     C        15:03:55:09 15:04:07:17 01:35:00:03 01:35:12:11
*FROM CLIP NAME:  07-ROZA-250607_1503.wav
001281  17-3-250607_1503.wav        V     C        15:03:55:09 15:03:56:12 01:35:12:11 01:35:13:14
*FROM CLIP NAME:  17-3-250607_1503.wav
001282  39-MIX-LARA_L-250607_1503.  V     C        15:03:55:09 15:04:08:02 01:35:13:14 01:35:26:07
*FROM CLIP NAME:  39-MIX-LARA_L-250607_1503.wav
001283  07-ROZA-250607_1503.wav     V     C        15:03:55:09 15:04:08:02 01:35:13:14 01:35:26:07
*FROM CLIP NAME:  07-ROZA-250607_1503.wav
001284  08-HERO-250607_1503.wav     V     C        15:03:55:09 15:04:08:02 01:35:13:14 01:35:26:07
*FROM CLIP NAME:  08-HERO-250607_1503.wav
001285  40-MIX-LARA_R-250607_1503.  V     C        15:03:55:09 15:04:08:02 01:35:13:14 01:35:26:07
*FROM CLIP NAME:  40-MIX-LARA_R-250607_1503.wav
001286  06-LARA-250607_1503.wav     V     C        15:03:55:09 15:04:08:02 01:35:13:14 01:35:26:07
*FROM CLIP NAME:  06-LARA-250607_1503.wav
001287  35-PGM_R-250607_1503.wav    V     C        15:03:55:09 15:04:08:02 01:35:13:14 01:35:26:07
*FROM CLIP NAME:  35-PGM_R-250607_1503.wav
001288  34-PGM_L-250607_1503.wav    V     C        15:03:55:09 15:04:08:02 01:35:13:14 01:35:26:07
*FROM CLIP NAME:  34-PGM_L-250607_1503.wav
001289  39-MIX-LARA_L-250607_1503.  V     C        15:03:55:10 15:03:59:10 01:35:26:07 01:35:30:07
*FROM CLIP NAME:  39-MIX-LARA_L-250607_1503.wav
001290  35-PGM_R-250607_1503.wav    V     C        15:03:55:10 15:03:59:10 01:35:26:07 01:35:30:07
*FROM CLIP NAME:  35-PGM_R-250607_1503.wav
001291  34-PGM_L-250607_1503.wav    V     C        15:03:55:10 15:03:59:10 01:35:26:07 01:35:30:07
*FROM CLIP NAME:  34-PGM_L-250607_1503.wav
001292  06-LARA-250607_1503.wav     V     C        15:03:55:10 15:03:59:10 01:35:26:07 01:35:30:07
*FROM CLIP NAME:  06-LARA-250607_1503.wav
001293  40-MIX-LARA_R-250607_1503.  V     C        15:03:55:10 15:03:59:10 01:35:26:07 01:35:30:07
*FROM CLIP NAME:  40-MIX-LARA_R-250607_1503.wav
001294  07-ROZA-250607_1503.wav     V     C        15:03:55:10 15:03:59:10 01:35:26:07 01:35:30:07
*FROM CLIP NAME:  07-ROZA-250607_1503.wav
001295  08-HERO-250607_1503.wav     V     C        15:03:55:10 15:03:59:10 01:35:26:07 01:35:30:07
*FROM CLIP NAME:  08-HERO-250607_1503.wav
001296  39-MIX-LARA_L-250607_1503.  V     C        15:03:55:09 15:03:59:17 01:35:30:07 01:35:34:15
*FROM CLIP NAME:  39-MIX-LARA_L-250607_1503.wav
001297  35-PGM_R-250607_1503.wav    V     C        15:03:55:09 15:03:59:17 01:35:30:07 01:35:34:15
*FROM CLIP NAME:  35-PGM_R-250607_1503.wav
001298  08-HERO-250607_1503.wav     V     C        15:03:55:09 15:03:59:17 01:35:30:07 01:35:34:15
*FROM CLIP NAME:  08-HERO-250607_1503.wav
001299  40-MIX-LARA_R-250607_1503.  V     C        15:03:55:09 15:03:59:17 01:35:30:07 01:35:34:15
*FROM CLIP NAME:  40-MIX-LARA_R-250607_1503.wav
001300  07-ROZA-250607_1503.wav     V     C        15:03:55:09 15:03:59:17 01:35:30:07 01:35:34:15
*FROM CLIP NAME:  07-ROZA-250607_1503.wav
001301  06-LARA-250607_1503.wav     V     C        15:03:55:09 15:03:59:17 01:35:30:07 01:35:34:15
*FROM CLIP NAME:  06-LARA-250607_1503.wav
001302  34-PGM_L-250607_1503.wav    V     C        15:03:55:09 15:03:59:17 01:35:30:07 01:35:34:15
*FROM CLIP NAME:  34-PGM_L-250607_1503.wav
001303  36-PGM2_L-250607_1503.wav   V     C        15:03:55:09 15:04:11:03 01:35:34:15 01:35:50:09
*FROM CLIP NAME:  36-PGM2_L-250607_1503.wav
001304  06-LARA-250607_1503.wav     V     C        15:03:55:09 15:03:56:13 01:35:50:09 01:35:51:13
*FROM CLIP NAME:  06-LARA-250607_1503.wav
001305  06-LARA-250607_1503.wav     V     C        15:03:55:09 15:03:56:14 01:35:51:13 01:35:52:18
*FROM CLIP NAME:  06-LARA-250607_1503.wav
001306  39-MIX-LARA_L-250607_1503.  V     C        15:03:55:09 15:03:58:15 01:35:52:18 01:35:55:24
*FROM CLIP NAME:  39-MIX-LARA_L-250607_1503.wav
001307  08-HERO-250607_1503.wav     V     C        15:03:55:09 15:03:58:15 01:35:52:18 01:35:55:24
*FROM CLIP NAME:  08-HERO-250607_1503.wav
001308  34-PGM_L-250607_1503.wav    V     C        15:03:55:09 15:03:58:15 01:35:52:18 01:35:55:24
*FROM CLIP NAME:  34-PGM_L-250607_1503.wav
001309  07-ROZA-250607_1503.wav     V     C        15:03:55:09 15:03:58:15 01:35:52:18 01:35:55:24
*FROM CLIP NAME:  07-ROZA-250607_1503.wav
001310  35-PGM_R-250607_1503.wav    V     C        15:03:55:09 15:03:58:15 01:35:52:18 01:35:55:24
*FROM CLIP NAME:  35-PGM_R-250607_1503.wav
001311  40-MIX-LARA_R-250607_1503.  V     C        15:03:55:09 15:03:58:15 01:35:52:18 01:35:55:24
*FROM CLIP NAME:  40-MIX-LARA_R-250607_1503.wav
001312  06-LARA-250607_1503.wav     V     C        15:03:55:09 15:03:58:15 01:35:52:18 01:35:55:24
*FROM CLIP NAME:  06-LARA-250607_1503.wav
001313  06-LARA-250607_1503.wav     V     C        15:03:55:09 15:03:56:05 01:35:55:24 01:35:56:20
*FROM CLIP NAME:  06-LARA-250607_1503.wav
001314  39-MIX-LARA_L-250607_1503.  V     C        15:03:55:09 15:03:56:09 01:35:56:20 01:35:57:20
*FROM CLIP NAME:  39-MIX-LARA_L-250607_1503.wav
001315  06-LARA-250607_1503.wav     V     C        15:03:55:09 15:03:56:09 01:35:56:20 01:35:57:20
*FROM CLIP NAME:  06-LARA-250607_1503.wav
001316  08-HERO-250607_1503.wav     V     C        15:03:55:09 15:03:56:09 01:35:56:20 01:35:57:20
*FROM CLIP NAME:  08-HERO-250607_1503.wav
001317  34-PGM_L-250607_1503.wav    V     C        15:03:55:09 15:03:56:09 01:35:56:20 01:35:57:20
*FROM CLIP NAME:  34-PGM_L-250607_1503.wav
001318  07-ROZA-250607_1503.wav     V     C        15:03:55:09 15:03:56:09 01:35:56:20 01:35:57:20
*FROM CLIP NAME:  07-ROZA-250607_1503.wav
001319  35-PGM_R-250607_1503.wav    V     C        15:03:55:09 15:03:56:09 01:35:56:20 01:35:57:20
*FROM CLIP NAME:  35-PGM_R-250607_1503.wav
001320  40-MIX-LARA_R-250607_1503.  V     C        15:03:55:09 15:03:56:09 01:35:56:20 01:35:57:20
*FROM CLIP NAME:  40-MIX-LARA_R-250607_1503.wav
001321  39-MIX-LARA_L-250607_1503.  V     C        15:03:55:09 15:04:27:12 01:35:57:20 01:36:29:23
*FROM CLIP NAME:  39-MIX-LARA_L-250607_1503.wav
001322  34-PGM_L-250607_1503.wav    V     C        15:03:55:09 15:04:27:12 01:35:57:20 01:36:29:23
*FROM CLIP NAME:  34-PGM_L-250607_1503.wav
001323  08-HERO-250607_1503.wav     V     C        15:03:55:09 15:04:27:12 01:35:57:20 01:36:29:23
*FROM CLIP NAME:  08-HERO-250607_1503.wav
001324  06-LARA-250607_1503.wav     V     C        15:03:55:09 15:04:27:12 01:35:57:20 01:36:29:23
*FROM CLIP NAME:  06-LARA-250607_1503.wav
001325  07-ROZA-250607_1503.wav     V     C        15:03:55:09 15:04:27:12 01:35:57:20 01:36:29:23
*FROM CLIP NAME:  07-ROZA-250607_1503.wav
001326  40-MIX-LARA_R-250607_1503.  V     C        15:03:55:09 15:04:27:12 01:35:57:20 01:36:29:23
*FROM CLIP NAME:  40-MIX-LARA_R-250607_1503.wav
001327  35-PGM_R-250607_1503.wav    V     C        15:03:55:09 15:04:27:12 01:35:57:20 01:36:29:23
*FROM CLIP NAME:  35-PGM_R-250607_1503.wav
001328  36-PGM2_L-250607_1503.wav   V     C        15:03:55:09 15:04:00:16 01:36:29:23 01:36:35:05
*FROM CLIP NAME:  36-PGM2_L-250607_1503.wav
001329  39-MIX-LARA_L-250607_1503.  V     C        15:03:55:09 15:04:13:23 01:36:35:05 01:36:53:19
*FROM CLIP NAME:  39-MIX-LARA_L-250607_1503.wav
001330  08-HERO-250607_1503.wav     V     C        15:03:55:09 15:04:13:23 01:36:35:05 01:36:53:19
*FROM CLIP NAME:  08-HERO-250607_1503.wav
001331  40-MIX-LARA_R-250607_1503.  V     C        15:03:55:09 15:04:13:23 01:36:35:05 01:36:53:19
*FROM CLIP NAME:  40-MIX-LARA_R-250607_1503.wav
001332  07-ROZA-250607_1503.wav     V     C        15:03:55:09 15:04:13:23 01:36:35:05 01:36:53:19
*FROM CLIP NAME:  07-ROZA-250607_1503.wav
001333  35-PGM_R-250607_1503.wav    V     C        15:03:55:09 15:04:13:23 01:36:35:05 01:36:53:19
*FROM CLIP NAME:  35-PGM_R-250607_1503.wav
001334  34-PGM_L-250607_1503.wav    V     C        15:03:55:09 15:04:13:23 01:36:35:05 01:36:53:19
*FROM CLIP NAME:  34-PGM_L-250607_1503.wav
001335  06-LARA-250607_1503.wav     V     C        15:03:55:09 15:04:13:23 01:36:35:05 01:36:53:19
*FROM CLIP NAME:  06-LARA-250607_1503.wav
001336  DP_23026_20250618_Bezhanov  V     C        00:00:00:00 00:00:10:09 01:36:53:19 01:37:04:03
*FROM CLIP NAME:  DP_23026_20250618_Bezhanov_1-esv2-80p-bg-10p.wav
001337  36-PGM2_L-250607_1503.wav   V     C        15:03:55:09 15:04:05:18 01:36:53:19 01:37:04:03
*FROM CLIP NAME:  36-PGM2_L-250607_1503.wav
001338  39-MIX-LARA_L-250607_1503.  V     C        15:03:55:09 15:04:11:21 01:37:04:03 01:37:20:15
*FROM CLIP NAME:  39-MIX-LARA_L-250607_1503.wav
001339  08-HERO-250607_1503.wav     V     C        15:03:55:09 15:04:11:21 01:37:04:03 01:37:20:15
*FROM CLIP NAME:  08-HERO-250607_1503.wav
001340  07-ROZA-250607_1503.wav     V     C        15:03:55:09 15:04:11:21 01:37:04:03 01:37:20:15
*FROM CLIP NAME:  07-ROZA-250607_1503.wav
001341  40-MIX-LARA_R-250607_1503.  V     C        15:03:55:09 15:04:11:21 01:37:04:03 01:37:20:15
*FROM CLIP NAME:  40-MIX-LARA_R-250607_1503.wav
001342  34-PGM_L-250607_1503.wav    V     C        15:03:55:09 15:04:11:21 01:37:04:03 01:37:20:15
*FROM CLIP NAME:  34-PGM_L-250607_1503.wav
001343  35-PGM_R-250607_1503.wav    V     C        15:03:55:09 15:04:11:21 01:37:04:03 01:37:20:15
*FROM CLIP NAME:  35-PGM_R-250607_1503.wav
001344  06-LARA-250607_1503.wav     V     C        15:03:55:09 15:04:11:21 01:37:04:03 01:37:20:15
*FROM CLIP NAME:  06-LARA-250607_1503.wav
001345  36-PGM2_L-250607_1503.wav   V     C        15:03:55:09 15:04:13:19 01:37:20:15 01:37:39:00
*FROM CLIP NAME:  36-PGM2_L-250607_1503.wav
001346  39-MIX-LARA_L-250607_1503.  V     C        15:03:55:09 15:04:00:07 01:37:39:00 01:37:43:23
*FROM CLIP NAME:  39-MIX-LARA_L-250607_1503.wav
001347  34-PGM_L-250607_1503.wav    V     C        15:03:55:09 15:04:00:07 01:37:39:00 01:37:43:23
*FROM CLIP NAME:  34-PGM_L-250607_1503.wav
001348  08-HERO-250607_1503.wav     V     C        15:03:55:09 15:04:00:07 01:37:39:00 01:37:43:23
*FROM CLIP NAME:  08-HERO-250607_1503.wav
001349  07-ROZA-250607_1503.wav     V     C        15:03:55:09 15:04:00:07 01:37:39:00 01:37:43:23
*FROM CLIP NAME:  07-ROZA-250607_1503.wav
001350  40-MIX-LARA_R-250607_1503.  V     C        15:03:55:09 15:04:00:07 01:37:39:00 01:37:43:23
*FROM CLIP NAME:  40-MIX-LARA_R-250607_1503.wav
001351  06-LARA-250607_1503.wav     V     C        15:03:55:09 15:04:00:07 01:37:39:00 01:37:43:23
*FROM CLIP NAME:  06-LARA-250607_1503.wav
001352  35-PGM_R-250607_1503.wav    V     C        15:03:55:09 15:04:00:07 01:37:39:00 01:37:43:23
*FROM CLIP NAME:  35-PGM_R-250607_1503.wav
001353  35-PGM_R-250607_1503.wav    V     C        15:03:55:09 15:03:58:13 01:37:43:23 01:37:47:02
*FROM CLIP NAME:  35-PGM_R-250607_1503.wav
001354  34-PGM_L-250607_1503.wav    V     C        15:03:55:09 15:03:58:13 01:37:43:23 01:37:47:02
*FROM CLIP NAME:  34-PGM_L-250607_1503.wav
001355  07-ROZA-250607_1503.wav     V     C        15:03:55:09 15:03:58:13 01:37:43:23 01:37:47:02
*FROM CLIP NAME:  07-ROZA-250607_1503.wav
001356  40-MIX-LARA_R-250607_1503.  V     C        15:03:55:09 15:03:58:13 01:37:43:23 01:37:47:02
*FROM CLIP NAME:  40-MIX-LARA_R-250607_1503.wav
001357  08-HERO-250607_1503.wav     V     C        15:03:55:09 15:03:58:13 01:37:43:23 01:37:47:02
*FROM CLIP NAME:  08-HERO-250607_1503.wav
001358  39-MIX-LARA_L-250607_1503.  V     C        15:03:55:09 15:03:58:13 01:37:43:23 01:37:47:02
*FROM CLIP NAME:  39-MIX-LARA_L-250607_1503.wav
001359  06-LARA-250607_1503.wav     V     C        15:03:55:09 15:03:58:13 01:37:43:23 01:37:47:02
*FROM CLIP NAME:  06-LARA-250607_1503.wav
001360  39-MIX-LARA_L-250607_1503.  V     C        15:03:55:09 15:03:59:00 01:37:47:02 01:37:50:18
*FROM CLIP NAME:  39-MIX-LARA_L-250607_1503.wav
001361  06-LARA-250607_1503.wav     V     C        15:03:55:09 15:03:59:00 01:37:47:02 01:37:50:18
*FROM CLIP NAME:  06-LARA-250607_1503.wav
001362  34-PGM_L-250607_1503.wav    V     C        15:03:55:09 15:03:59:00 01:37:47:02 01:37:50:18
*FROM CLIP NAME:  34-PGM_L-250607_1503.wav
001363  08-HERO-250607_1503.wav     V     C        15:03:55:09 15:03:59:00 01:37:47:02 01:37:50:18
*FROM CLIP NAME:  08-HERO-250607_1503.wav
001364  35-PGM_R-250607_1503.wav    V     C        15:03:55:09 15:03:59:00 01:37:47:02 01:37:50:18
*FROM CLIP NAME:  35-PGM_R-250607_1503.wav
001365  40-MIX-LARA_R-250607_1503.  V     C        15:03:55:09 15:03:59:00 01:37:47:02 01:37:50:18
*FROM CLIP NAME:  40-MIX-LARA_R-250607_1503.wav
001366  07-ROZA-250607_1503.wav     V     C        15:03:55:09 15:03:59:00 01:37:47:02 01:37:50:18
*FROM CLIP NAME:  07-ROZA-250607_1503.wav
001367  07-ROZA-250607_1503.wav     V     C        15:03:55:09 15:03:59:06 01:37:50:18 01:37:54:15
*FROM CLIP NAME:  07-ROZA-250607_1503.wav
001368  34-PGM_L-250607_1503.wav    V     C        15:03:55:09 15:03:59:06 01:37:50:18 01:37:54:15
*FROM CLIP NAME:  34-PGM_L-250607_1503.wav
001369  06-LARA-250607_1503.wav     V     C        15:03:55:09 15:03:59:06 01:37:50:18 01:37:54:15
*FROM CLIP NAME:  06-LARA-250607_1503.wav
001370  35-PGM_R-250607_1503.wav    V     C        15:03:55:09 15:03:59:06 01:37:50:18 01:37:54:15
*FROM CLIP NAME:  35-PGM_R-250607_1503.wav
001371  08-HERO-250607_1503.wav     V     C        15:03:55:09 15:03:59:06 01:37:50:18 01:37:54:15
*FROM CLIP NAME:  08-HERO-250607_1503.wav
001372  40-MIX-LARA_R-250607_1503.  V     C        15:03:55:09 15:03:59:06 01:37:50:18 01:37:54:15
*FROM CLIP NAME:  40-MIX-LARA_R-250607_1503.wav
001373  39-MIX-LARA_L-250607_1503.  V     C        15:03:55:09 15:03:59:06 01:37:50:18 01:37:54:15
*FROM CLIP NAME:  39-MIX-LARA_L-250607_1503.wav
001374  39-MIX-LARA_L-250607_1503.  V     C        15:03:55:09 15:04:01:00 01:37:54:15 01:38:00:06
*FROM CLIP NAME:  39-MIX-LARA_L-250607_1503.wav
001375  07-ROZA-250607_1503.wav     V     C        15:03:55:09 15:04:01:00 01:37:54:15 01:38:00:06
*FROM CLIP NAME:  07-ROZA-250607_1503.wav
001376  34-PGM_L-250607_1503.wav    V     C        15:03:55:09 15:04:01:00 01:37:54:15 01:38:00:06
*FROM CLIP NAME:  34-PGM_L-250607_1503.wav
001377  06-LARA-250607_1503.wav     V     C        15:03:55:09 15:04:01:00 01:37:54:15 01:38:00:06
*FROM CLIP NAME:  06-LARA-250607_1503.wav
001378  35-PGM_R-250607_1503.wav    V     C        15:03:55:09 15:04:01:00 01:37:54:15 01:38:00:06
*FROM CLIP NAME:  35-PGM_R-250607_1503.wav
001379  08-HERO-250607_1503.wav     V     C        15:03:55:09 15:04:01:00 01:37:54:15 01:38:00:06
*FROM CLIP NAME:  08-HERO-250607_1503.wav
001380  40-MIX-LARA_R-250607_1503.  V     C        15:03:55:09 15:04:01:00 01:37:54:15 01:38:00:06
*FROM CLIP NAME:  40-MIX-LARA_R-250607_1503.wav
001381  07-ROZA-250607_1503.wav     V     C        15:03:55:10 15:03:59:20 01:38:00:06 01:38:04:16
*FROM CLIP NAME:  07-ROZA-250607_1503.wav
001382  08-HERO-250607_1503.wav     V     C        15:03:55:10 15:03:59:20 01:38:00:06 01:38:04:16
*FROM CLIP NAME:  08-HERO-250607_1503.wav
001383  35-PGM_R-250607_1503.wav    V     C        15:03:55:10 15:03:59:20 01:38:00:06 01:38:04:16
*FROM CLIP NAME:  35-PGM_R-250607_1503.wav
001384  34-PGM_L-250607_1503.wav    V     C        15:03:55:10 15:03:59:20 01:38:00:06 01:38:04:16
*FROM CLIP NAME:  34-PGM_L-250607_1503.wav
001385  06-LARA-250607_1503.wav     V     C        15:03:55:10 15:03:59:20 01:38:00:06 01:38:04:16
*FROM CLIP NAME:  06-LARA-250607_1503.wav
001386  40-MIX-LARA_R-250607_1503.  V     C        15:03:55:10 15:03:59:20 01:38:00:06 01:38:04:16
*FROM CLIP NAME:  40-MIX-LARA_R-250607_1503.wav
001387  39-MIX-LARA_L-250607_1503.  V     C        15:03:55:10 15:03:59:20 01:38:00:06 01:38:04:16
*FROM CLIP NAME:  39-MIX-LARA_L-250607_1503.wav
001388  36-PGM2_L-250607_1503.wav   V     C        15:03:55:09 15:04:04:12 01:38:04:16 01:38:13:19
*FROM CLIP NAME:  36-PGM2_L-250607_1503.wav
001389  06-LARA-250607_1503.wav     V     C        15:03:55:09 15:03:56:17 01:38:13:19 01:38:15:02
*FROM CLIP NAME:  06-LARA-250607_1503.wav
001390  40-MIX-LARA_R-250607_1503.  V     C        15:03:55:09 15:03:56:15 01:38:15:02 01:38:16:08
*FROM CLIP NAME:  40-MIX-LARA_R-250607_1503.wav
001391  07-ROZA-250607_1503.wav     V     C        15:03:55:09 15:03:56:15 01:38:15:02 01:38:16:08
*FROM CLIP NAME:  07-ROZA-250607_1503.wav
001392  35-PGM_R-250607_1503.wav    V     C        15:03:55:09 15:03:56:15 01:38:15:02 01:38:16:08
*FROM CLIP NAME:  35-PGM_R-250607_1503.wav
001393  08-HERO-250607_1503.wav     V     C        15:03:55:09 15:03:56:15 01:38:15:02 01:38:16:08
*FROM CLIP NAME:  08-HERO-250607_1503.wav
001394  34-PGM_L-250607_1503.wav    V     C        15:03:55:09 15:03:56:15 01:38:15:02 01:38:16:08
*FROM CLIP NAME:  34-PGM_L-250607_1503.wav
001395  06-LARA-250607_1503.wav     V     C        15:03:55:09 15:03:56:15 01:38:15:02 01:38:16:08
*FROM CLIP NAME:  06-LARA-250607_1503.wav
001396  39-MIX-LARA_L-250607_1503.  V     C        15:03:55:09 15:03:56:15 01:38:15:02 01:38:16:08
*FROM CLIP NAME:  39-MIX-LARA_L-250607_1503.wav
001397  08-HERO-250607_1503.wav     V     C        15:03:55:09 15:04:20:14 01:38:16:08 01:38:41:13
*FROM CLIP NAME:  08-HERO-250607_1503.wav
001398  07-ROZA-250607_1503.wav     V     C        15:03:55:09 15:04:20:14 01:38:16:08 01:38:41:13
*FROM CLIP NAME:  07-ROZA-250607_1503.wav
001399  39-MIX-LARA_L-250607_1503.  V     C        15:03:55:09 15:04:20:14 01:38:16:08 01:38:41:13
*FROM CLIP NAME:  39-MIX-LARA_L-250607_1503.wav
001400  35-PGM_R-250607_1503.wav    V     C        15:03:55:09 15:04:20:14 01:38:16:08 01:38:41:13
*FROM CLIP NAME:  35-PGM_R-250607_1503.wav
001401  40-MIX-LARA_R-250607_1503.  V     C        15:03:55:09 15:04:20:14 01:38:16:08 01:38:41:13
*FROM CLIP NAME:  40-MIX-LARA_R-250607_1503.wav
001402  06-LARA-250607_1503.wav     V     C        15:03:55:09 15:04:20:14 01:38:16:08 01:38:41:13
*FROM CLIP NAME:  06-LARA-250607_1503.wav
001403  34-PGM_L-250607_1503.wav    V     C        15:03:55:09 15:04:20:14 01:38:16:08 01:38:41:13
*FROM CLIP NAME:  34-PGM_L-250607_1503.wav
001404  07-ROZA-250607_1503.wav     V     C        15:03:55:09 15:03:58:16 01:38:41:13 01:38:44:20
*FROM CLIP NAME:  07-ROZA-250607_1503.wav
001405  39-MIX-LARA_L-250607_1503.  V     C        15:03:55:09 15:03:58:16 01:38:41:13 01:38:44:20
*FROM CLIP NAME:  39-MIX-LARA_L-250607_1503.wav
001406  08-HERO-250607_1503.wav     V     C        15:03:55:09 15:03:58:16 01:38:41:13 01:38:44:20
*FROM CLIP NAME:  08-HERO-250607_1503.wav
001407  40-MIX-LARA_R-250607_1503.  V     C        15:03:55:09 15:03:58:16 01:38:41:13 01:38:44:20
*FROM CLIP NAME:  40-MIX-LARA_R-250607_1503.wav
001408  35-PGM_R-250607_1503.wav    V     C        15:03:55:09 15:03:58:16 01:38:41:13 01:38:44:20
*FROM CLIP NAME:  35-PGM_R-250607_1503.wav
001409  34-PGM_L-250607_1503.wav    V     C        15:03:55:09 15:03:58:16 01:38:41:13 01:38:44:20
*FROM CLIP NAME:  34-PGM_L-250607_1503.wav
001410  06-LARA-250607_1503.wav     V     C        15:03:55:09 15:03:58:16 01:38:41:13 01:38:44:20
*FROM CLIP NAME:  06-LARA-250607_1503.wav
001411  06-LARA-250607_1503.wav     V     C        15:03:55:09 15:03:59:18 01:38:44:20 01:38:49:04
*FROM CLIP NAME:  06-LARA-250607_1503.wav
001412  39-MIX-LARA_L-250607_1503.  V     C        15:03:55:09 15:03:59:18 01:38:44:20 01:38:49:04
*FROM CLIP NAME:  39-MIX-LARA_L-250607_1503.wav
001413  40-MIX-LARA_R-250607_1503.  V     C        15:03:55:09 15:03:59:18 01:38:44:20 01:38:49:04
*FROM CLIP NAME:  40-MIX-LARA_R-250607_1503.wav
001414  35-PGM_R-250607_1503.wav    V     C        15:03:55:09 15:03:59:18 01:38:44:20 01:38:49:04
*FROM CLIP NAME:  35-PGM_R-250607_1503.wav
001415  08-HERO-250607_1503.wav     V     C        15:03:55:09 15:03:59:18 01:38:44:20 01:38:49:04
*FROM CLIP NAME:  08-HERO-250607_1503.wav
001416  34-PGM_L-250607_1503.wav    V     C        15:03:55:09 15:03:59:18 01:38:44:20 01:38:49:04
*FROM CLIP NAME:  34-PGM_L-250607_1503.wav
001417  07-ROZA-250607_1503.wav     V     C        15:03:55:09 15:03:59:18 01:38:44:20 01:38:49:04
*FROM CLIP NAME:  07-ROZA-250607_1503.wav
001418  Alfa.mov_L                  V     C        01:49:02:05 01:49:03:09 01:38:48:21 01:38:50:00
*FROM CLIP NAME:  Alfa.mov_L
001419  Alfa.mov_R                  V     C        01:49:02:05 01:49:03:09 01:38:48:21 01:38:50:00
*FROM CLIP NAME:  Alfa.mov_R
001420  06-LARA-250607_1503.wav     V     C        15:03:55:09 15:04:05:05 01:38:49:04 01:38:59:00
*FROM CLIP NAME:  06-LARA-250607_1503.wav
001421  FINAL_Apollo_AMPT_3012_33_  V     C        00:07:59:05 00:08:04:09 01:38:49:05 01:38:54:09
*FROM CLIP NAME:  FINAL_Apollo_AMPT_3012_33__STORIES-OF-HOPE__Steven-John-Coltart-Marcus-Knighton-Warner_.mp3_R
001422  FINAL_Apollo_AMPT_3012_33_  V     C        00:07:59:05 00:08:04:09 01:38:49:05 01:38:54:09
*FROM CLIP NAME:  FINAL_Apollo_AMPT_3012_33__STORIES-OF-HOPE__Steven-John-Coltart-Marcus-Knighton-Warner_.mp3_L
001423  FINAL_Apollo_AMPT_3012_33_  V     C        00:28:59:11 00:29:36:10 01:38:54:09 01:39:31:08
*FROM CLIP NAME:  FINAL_Apollo_AMPT_3012_33__STORIES-OF-HOPE__Steven-John-Coltart-Marcus-Knighton-Warner_.mp3_R
001424  FINAL_Apollo_AMPT_3012_33_  V     C        00:28:59:11 00:29:36:10 01:38:54:09 01:39:31:08
*FROM CLIP NAME:  FINAL_Apollo_AMPT_3012_33__STORIES-OF-HOPE__Steven-John-Coltart-Marcus-Knighton-Warner_.mp3_L
001425  34-PGM_L-250607_1503.wav    V     C        15:03:55:09 15:03:59:07 01:38:55:02 01:38:59:00
*FROM CLIP NAME:  34-PGM_L-250607_1503.wav
001426  40-MIX-LARA_R-250607_1503.  V     C        15:03:55:09 15:03:59:07 01:38:55:02 01:38:59:00
*FROM CLIP NAME:  40-MIX-LARA_R-250607_1503.wav
001427  35-PGM_R-250607_1503.wav    V     C        15:03:55:09 15:03:59:07 01:38:55:02 01:38:59:00
*FROM CLIP NAME:  35-PGM_R-250607_1503.wav
001428  08-HERO-250607_1503.wav     V     C        15:03:55:09 15:03:59:07 01:38:55:02 01:38:59:00
*FROM CLIP NAME:  08-HERO-250607_1503.wav
001429  39-MIX-LARA_L-250607_1503.  V     C        15:03:55:09 15:03:59:07 01:38:55:02 01:38:59:00
*FROM CLIP NAME:  39-MIX-LARA_L-250607_1503.wav
001430  07-ROZA-250607_1503.wav     V     C        15:03:55:09 15:03:59:07 01:38:55:02 01:38:59:00
*FROM CLIP NAME:  07-ROZA-250607_1503.wav
001431  14-2-250607_1503.wav        V     C        15:03:55:09 15:04:25:19 01:38:59:00 01:39:29:10
*FROM CLIP NAME:  14-2-250607_1503.wav
001432  08-HERO-250607_1503.wav     V     C        15:03:55:09 15:04:25:19 01:38:59:00 01:39:29:10
*FROM CLIP NAME:  08-HERO-250607_1503.wav
001433  39-MIX-LARA_L-250607_1503.  V     C        15:03:55:09 15:04:14:23 01:39:29:10 01:39:48:24
*FROM CLIP NAME:  39-MIX-LARA_L-250607_1503.wav
001434  07-ROZA-250607_1503.wav     V     C        15:03:55:09 15:04:14:23 01:39:29:10 01:39:48:24
*FROM CLIP NAME:  07-ROZA-250607_1503.wav
001435  06-LARA-250607_1503.wav     V     C        15:03:55:09 15:04:14:23 01:39:29:10 01:39:48:24
*FROM CLIP NAME:  06-LARA-250607_1503.wav
001436  34-PGM_L-250607_1503.wav    V     C        15:03:55:09 15:04:14:23 01:39:29:10 01:39:48:24
*FROM CLIP NAME:  34-PGM_L-250607_1503.wav
001437  40-MIX-LARA_R-250607_1503.  V     C        15:03:55:09 15:04:14:23 01:39:29:10 01:39:48:24
*FROM CLIP NAME:  40-MIX-LARA_R-250607_1503.wav
001438  35-PGM_R-250607_1503.wav    V     C        15:03:55:09 15:04:14:23 01:39:29:10 01:39:48:24
*FROM CLIP NAME:  35-PGM_R-250607_1503.wav
001439  08-HERO-250607_1503.wav     V     C        15:03:55:09 15:04:14:23 01:39:29:10 01:39:48:24
*FROM CLIP NAME:  08-HERO-250607_1503.wav
001440  FINAL_Apollo_AMPT_3012_33_  V     C        00:33:26:22 00:33:49:14 01:39:31:08 01:39:54:00
*FROM CLIP NAME:  FINAL_Apollo_AMPT_3012_33__STORIES-OF-HOPE__Steven-John-Coltart-Marcus-Knighton-Warner_.mp3_R
001441  FINAL_Apollo_AMPT_3012_33_  V     C        00:33:26:22 00:33:49:14 01:39:31:08 01:39:54:00
*FROM CLIP NAME:  FINAL_Apollo_AMPT_3012_33__STORIES-OF-HOPE__Steven-John-Coltart-Marcus-Knighton-Warner_.mp3_L
